<svg width="336" height="187" viewBox="0 0 336 187" fill="none" xmlns="http://www.w3.org/2000/svg">
<g clip-path="url(#clip0_1318_7383)">
<rect y="-13" width="336" height="200" rx="12" fill="url(#paint0_linear_1318_7383)"/>
<path d="M300.259 5.09277C307.964 5.09277 314.21 11.3608 314.21 19.0928C314.21 26.8248 307.964 33.0928 300.259 33.0928C296.805 33.0927 293.646 31.8321 291.21 29.7461C288.774 31.8321 285.615 33.0927 282.161 33.0928C274.456 33.0928 268.21 26.8248 268.21 19.0928C268.21 11.3608 274.456 5.09277 282.161 5.09277C285.614 5.09287 288.774 6.35275 291.21 8.43848C293.646 6.35274 296.806 5.09289 300.259 5.09277Z" fill="#ED0006"/>
<path d="M300.259 5.09277C307.964 5.09277 314.21 11.3608 314.21 19.0928C314.21 26.8248 307.964 33.0928 300.259 33.0928C296.806 33.0927 293.646 31.8328 291.21 29.7471C294.209 27.1792 296.111 23.3592 296.111 19.0928C296.111 14.8261 294.209 11.0054 291.21 8.4375C293.646 6.35203 296.806 5.09285 300.259 5.09277Z" fill="#F9A000"/>
<path d="M291.21 8.43848C294.209 11.0063 296.111 14.8263 296.111 19.0928C296.111 23.3592 294.209 27.1792 291.21 29.7471C288.211 27.1792 286.308 23.3591 286.308 19.0928C286.308 14.8264 288.211 11.0063 291.21 8.43848Z" fill="#FF5E00"/>
<path d="M25.258 98.732C24.8327 98.732 24.4293 98.6513 24.048 98.49C23.6813 98.3287 23.3587 98.116 23.08 97.852C22.816 97.5733 22.6033 97.2507 22.442 96.884C22.2807 96.5027 22.2 96.0993 22.2 95.674C22.2 95.234 22.2807 94.8307 22.442 94.464C22.6033 94.0827 22.816 93.76 23.08 93.496C23.3587 93.2173 23.6813 92.9973 24.048 92.836C24.4293 92.6747 24.8327 92.594 25.258 92.594C25.698 92.594 26.1013 92.6747 26.468 92.836C26.8493 92.9973 27.1793 93.2173 27.458 93.496C27.7367 93.76 27.9567 94.0827 28.118 94.464C28.2793 94.8307 28.36 95.234 28.36 95.674C28.36 96.0993 28.2793 96.5027 28.118 96.884C27.9567 97.2507 27.7367 97.5733 27.458 97.852C27.1793 98.116 26.8493 98.3287 26.468 98.49C26.1013 98.6513 25.698 98.732 25.258 98.732ZM35.8283 98.732C35.403 98.732 34.9996 98.6513 34.6183 98.49C34.2516 98.3287 33.929 98.116 33.6503 97.852C33.3863 97.5733 33.1736 97.2507 33.0123 96.884C32.851 96.5027 32.7703 96.0993 32.7703 95.674C32.7703 95.234 32.851 94.8307 33.0123 94.464C33.1736 94.0827 33.3863 93.76 33.6503 93.496C33.929 93.2173 34.2516 92.9973 34.6183 92.836C34.9996 92.6747 35.403 92.594 35.8283 92.594C36.2683 92.594 36.6716 92.6747 37.0383 92.836C37.4196 92.9973 37.7496 93.2173 38.0283 93.496C38.307 93.76 38.527 94.0827 38.6883 94.464C38.8496 94.8307 38.9303 95.234 38.9303 95.674C38.9303 96.0993 38.8496 96.5027 38.6883 96.884C38.527 97.2507 38.307 97.5733 38.0283 97.852C37.7496 98.116 37.4196 98.3287 37.0383 98.49C36.6716 98.6513 36.2683 98.732 35.8283 98.732ZM46.3986 98.732C45.9733 98.732 45.57 98.6513 45.1886 98.49C44.822 98.3287 44.4993 98.116 44.2206 97.852C43.9566 97.5733 43.744 97.2507 43.5826 96.884C43.4213 96.5027 43.3406 96.0993 43.3406 95.674C43.3406 95.234 43.4213 94.8307 43.5826 94.464C43.744 94.0827 43.9566 93.76 44.2206 93.496C44.4993 93.2173 44.822 92.9973 45.1886 92.836C45.57 92.6747 45.9733 92.594 46.3986 92.594C46.8386 92.594 47.242 92.6747 47.6086 92.836C47.99 92.9973 48.32 93.2173 48.5986 93.496C48.8773 93.76 49.0973 94.0827 49.2586 94.464C49.42 94.8307 49.5006 95.234 49.5006 95.674C49.5006 96.0993 49.42 96.5027 49.2586 96.884C49.0973 97.2507 48.8773 97.5733 48.5986 97.852C48.32 98.116 47.99 98.3287 47.6086 98.49C47.242 98.6513 46.8386 98.732 46.3986 98.732ZM56.9689 98.732C56.5436 98.732 56.1403 98.6513 55.7589 98.49C55.3923 98.3287 55.0696 98.116 54.7909 97.852C54.5269 97.5733 54.3143 97.2507 54.1529 96.884C53.9916 96.5027 53.9109 96.0993 53.9109 95.674C53.9109 95.234 53.9916 94.8307 54.1529 94.464C54.3143 94.0827 54.5269 93.76 54.7909 93.496C55.0696 93.2173 55.3923 92.9973 55.7589 92.836C56.1403 92.6747 56.5436 92.594 56.9689 92.594C57.4089 92.594 57.8123 92.6747 58.1789 92.836C58.5603 92.9973 58.8903 93.2173 59.1689 93.496C59.4476 93.76 59.6676 94.0827 59.8289 94.464C59.9903 94.8307 60.0709 95.234 60.0709 95.674C60.0709 96.0993 59.9903 96.5027 59.8289 96.884C59.6676 97.2507 59.4476 97.5733 59.1689 97.852C58.8903 98.116 58.5603 98.3287 58.1789 98.49C57.8123 98.6513 57.4089 98.732 56.9689 98.732ZM78.0236 98.732C77.5983 98.732 77.195 98.6513 76.8136 98.49C76.447 98.3287 76.1243 98.116 75.8456 97.852C75.5816 97.5733 75.369 97.2507 75.2076 96.884C75.0463 96.5027 74.9656 96.0993 74.9656 95.674C74.9656 95.234 75.0463 94.8307 75.2076 94.464C75.369 94.0827 75.5816 93.76 75.8456 93.496C76.1243 93.2173 76.447 92.9973 76.8136 92.836C77.195 92.6747 77.5983 92.594 78.0236 92.594C78.4636 92.594 78.867 92.6747 79.2336 92.836C79.615 92.9973 79.945 93.2173 80.2236 93.496C80.5023 93.76 80.7223 94.0827 80.8836 94.464C81.045 94.8307 81.1256 95.234 81.1256 95.674C81.1256 96.0993 81.045 96.5027 80.8836 96.884C80.7223 97.2507 80.5023 97.5733 80.2236 97.852C79.945 98.116 79.615 98.3287 79.2336 98.49C78.867 98.6513 78.4636 98.732 78.0236 98.732ZM88.5939 98.732C88.1686 98.732 87.7653 98.6513 87.3839 98.49C87.0173 98.3287 86.6946 98.116 86.4159 97.852C86.1519 97.5733 85.9393 97.2507 85.7779 96.884C85.6166 96.5027 85.5359 96.0993 85.5359 95.674C85.5359 95.234 85.6166 94.8307 85.7779 94.464C85.9393 94.0827 86.1519 93.76 86.4159 93.496C86.6946 93.2173 87.0173 92.9973 87.3839 92.836C87.7653 92.6747 88.1686 92.594 88.5939 92.594C89.0339 92.594 89.4373 92.6747 89.8039 92.836C90.1853 92.9973 90.5153 93.2173 90.7939 93.496C91.0726 93.76 91.2926 94.0827 91.4539 94.464C91.6153 94.8307 91.6959 95.234 91.6959 95.674C91.6959 96.0993 91.6153 96.5027 91.4539 96.884C91.2926 97.2507 91.0726 97.5733 90.7939 97.852C90.5153 98.116 90.1853 98.3287 89.8039 98.49C89.4373 98.6513 89.0339 98.732 88.5939 98.732ZM99.1643 98.732C98.7389 98.732 98.3356 98.6513 97.9543 98.49C97.5876 98.3287 97.2649 98.116 96.9863 97.852C96.7223 97.5733 96.5096 97.2507 96.3483 96.884C96.1869 96.5027 96.1063 96.0993 96.1063 95.674C96.1063 95.234 96.1869 94.8307 96.3483 94.464C96.5096 94.0827 96.7223 93.76 96.9863 93.496C97.2649 93.2173 97.5876 92.9973 97.9543 92.836C98.3356 92.6747 98.7389 92.594 99.1643 92.594C99.6043 92.594 100.008 92.6747 100.374 92.836C100.756 92.9973 101.086 93.2173 101.364 93.496C101.643 93.76 101.863 94.0827 102.024 94.464C102.186 94.8307 102.266 95.234 102.266 95.674C102.266 96.0993 102.186 96.5027 102.024 96.884C101.863 97.2507 101.643 97.5733 101.364 97.852C101.086 98.116 100.756 98.3287 100.374 98.49C100.008 98.6513 99.6043 98.732 99.1643 98.732ZM109.735 98.732C109.309 98.732 108.906 98.6513 108.525 98.49C108.158 98.3287 107.835 98.116 107.557 97.852C107.293 97.5733 107.08 97.2507 106.919 96.884C106.757 96.5027 106.677 96.0993 106.677 95.674C106.677 95.234 106.757 94.8307 106.919 94.464C107.08 94.0827 107.293 93.76 107.557 93.496C107.835 93.2173 108.158 92.9973 108.525 92.836C108.906 92.6747 109.309 92.594 109.735 92.594C110.175 92.594 110.578 92.6747 110.945 92.836C111.326 92.9973 111.656 93.2173 111.935 93.496C112.213 93.76 112.433 94.0827 112.595 94.464C112.756 94.8307 112.837 95.234 112.837 95.674C112.837 96.0993 112.756 96.5027 112.595 96.884C112.433 97.2507 112.213 97.5733 111.935 97.852C111.656 98.116 111.326 98.3287 110.945 98.49C110.578 98.6513 110.175 98.732 109.735 98.732ZM130.789 98.732C130.364 98.732 129.961 98.6513 129.579 98.49C129.213 98.3287 128.89 98.116 128.611 97.852C128.347 97.5733 128.135 97.2507 127.973 96.884C127.812 96.5027 127.731 96.0993 127.731 95.674C127.731 95.234 127.812 94.8307 127.973 94.464C128.135 94.0827 128.347 93.76 128.611 93.496C128.89 93.2173 129.213 92.9973 129.579 92.836C129.961 92.6747 130.364 92.594 130.789 92.594C131.229 92.594 131.633 92.6747 131.999 92.836C132.381 92.9973 132.711 93.2173 132.989 93.496C133.268 93.76 133.488 94.0827 133.649 94.464C133.811 94.8307 133.891 95.234 133.891 95.674C133.891 96.0993 133.811 96.5027 133.649 96.884C133.488 97.2507 133.268 97.5733 132.989 97.852C132.711 98.116 132.381 98.3287 131.999 98.49C131.633 98.6513 131.229 98.732 130.789 98.732ZM141.36 98.732C140.934 98.732 140.531 98.6513 140.15 98.49C139.783 98.3287 139.46 98.116 139.182 97.852C138.918 97.5733 138.705 97.2507 138.544 96.884C138.382 96.5027 138.302 96.0993 138.302 95.674C138.302 95.234 138.382 94.8307 138.544 94.464C138.705 94.0827 138.918 93.76 139.182 93.496C139.46 93.2173 139.783 92.9973 140.15 92.836C140.531 92.6747 140.934 92.594 141.36 92.594C141.8 92.594 142.203 92.6747 142.57 92.836C142.951 92.9973 143.281 93.2173 143.56 93.496C143.838 93.76 144.058 94.0827 144.22 94.464C144.381 94.8307 144.462 95.234 144.462 95.674C144.462 96.0993 144.381 96.5027 144.22 96.884C144.058 97.2507 143.838 97.5733 143.56 97.852C143.281 98.116 142.951 98.3287 142.57 98.49C142.203 98.6513 141.8 98.732 141.36 98.732ZM151.93 98.732C151.505 98.732 151.101 98.6513 150.72 98.49C150.353 98.3287 150.031 98.116 149.752 97.852C149.488 97.5733 149.275 97.2507 149.114 96.884C148.953 96.5027 148.872 96.0993 148.872 95.674C148.872 95.234 148.953 94.8307 149.114 94.464C149.275 94.0827 149.488 93.76 149.752 93.496C150.031 93.2173 150.353 92.9973 150.72 92.836C151.101 92.6747 151.505 92.594 151.93 92.594C152.37 92.594 152.773 92.6747 153.14 92.836C153.521 92.9973 153.851 93.2173 154.13 93.496C154.409 93.76 154.629 94.0827 154.79 94.464C154.951 94.8307 155.032 95.234 155.032 95.674C155.032 96.0993 154.951 96.5027 154.79 96.884C154.629 97.2507 154.409 97.5733 154.13 97.852C153.851 98.116 153.521 98.3287 153.14 98.49C152.773 98.6513 152.37 98.732 151.93 98.732ZM162.5 98.732C162.075 98.732 161.672 98.6513 161.29 98.49C160.924 98.3287 160.601 98.116 160.322 97.852C160.058 97.5733 159.846 97.2507 159.684 96.884C159.523 96.5027 159.442 96.0993 159.442 95.674C159.442 95.234 159.523 94.8307 159.684 94.464C159.846 94.0827 160.058 93.76 160.322 93.496C160.601 93.2173 160.924 92.9973 161.29 92.836C161.672 92.6747 162.075 92.594 162.5 92.594C162.94 92.594 163.344 92.6747 163.71 92.836C164.092 92.9973 164.422 93.2173 164.7 93.496C164.979 93.76 165.199 94.0827 165.36 94.464C165.522 94.8307 165.602 95.234 165.602 95.674C165.602 96.0993 165.522 96.5027 165.36 96.884C165.199 97.2507 164.979 97.5733 164.7 97.852C164.422 98.116 164.092 98.3287 163.71 98.49C163.344 98.6513 162.94 98.732 162.5 98.732ZM184.567 92.594C185.359 92.6087 186.085 92.7553 186.745 93.034C187.42 93.298 187.992 93.672 188.461 94.156C188.93 94.6253 189.297 95.1827 189.561 95.828C189.825 96.4587 189.957 97.1627 189.957 97.94C189.957 98.732 189.818 99.458 189.539 100.118C189.275 100.763 188.894 101.328 188.395 101.812C187.911 102.281 187.324 102.648 186.635 102.912C185.946 103.176 185.19 103.308 184.369 103.308C183.548 103.308 182.792 103.176 182.103 102.912C181.428 102.648 180.842 102.281 180.343 101.812C179.859 101.328 179.478 100.763 179.199 100.118C178.935 99.458 178.803 98.732 178.803 97.94C178.803 97.3387 178.876 96.7813 179.023 96.268C179.184 95.74 179.412 95.2633 179.705 94.838L184.501 87.6H187.977L184.567 92.594ZM184.369 100.448C185.088 100.448 185.696 100.228 186.195 99.788C186.694 99.348 186.943 98.732 186.943 97.94C186.943 97.1627 186.694 96.554 186.195 96.114C185.696 95.674 185.088 95.454 184.369 95.454C183.65 95.454 183.042 95.674 182.543 96.114C182.059 96.5393 181.817 97.148 181.817 97.94C181.817 98.732 182.059 99.348 182.543 99.788C183.042 100.228 183.65 100.448 184.369 100.448ZM200.093 94.992C200.782 95.4027 201.31 95.9307 201.677 96.576C202.044 97.2067 202.227 97.918 202.227 98.71C202.227 99.414 202.095 100.052 201.831 100.624C201.582 101.196 201.215 101.68 200.731 102.076C200.262 102.472 199.682 102.78 198.993 103C198.318 103.205 197.556 103.308 196.705 103.308C195.854 103.308 195.084 103.205 194.395 103C193.706 102.78 193.126 102.472 192.657 102.076C192.188 101.68 191.821 101.196 191.557 100.624C191.308 100.052 191.183 99.414 191.183 98.71C191.183 97.918 191.366 97.2067 191.733 96.576C192.1 95.9307 192.62 95.4027 193.295 94.992C192.811 94.64 192.422 94.2 192.129 93.672C191.836 93.144 191.689 92.5207 191.689 91.802C191.689 91.054 191.821 90.4013 192.085 89.844C192.364 89.2867 192.73 88.8173 193.185 88.436C193.64 88.0547 194.168 87.7687 194.769 87.578C195.385 87.3873 196.03 87.292 196.705 87.292C197.38 87.292 198.018 87.3873 198.619 87.578C199.235 87.7687 199.77 88.0547 200.225 88.436C200.68 88.8173 201.039 89.2867 201.303 89.844C201.567 90.4013 201.699 91.054 201.699 91.802C201.699 92.5207 201.552 93.144 201.259 93.672C200.98 94.2 200.592 94.64 200.093 94.992ZM196.705 90.152C196.133 90.152 195.656 90.3133 195.275 90.636C194.908 90.944 194.725 91.384 194.725 91.956C194.725 92.5133 194.908 92.9607 195.275 93.298C195.656 93.6207 196.133 93.782 196.705 93.782C197.277 93.782 197.746 93.6207 198.113 93.298C198.494 92.9607 198.685 92.5133 198.685 91.956C198.685 91.384 198.494 90.944 198.113 90.636C197.746 90.3133 197.277 90.152 196.705 90.152ZM196.705 100.448C197.438 100.448 198.04 100.272 198.509 99.92C198.978 99.5533 199.213 99.018 199.213 98.314C199.213 97.6247 198.978 97.104 198.509 96.752C198.04 96.3853 197.438 96.202 196.705 96.202C195.972 96.202 195.37 96.3853 194.901 96.752C194.432 97.104 194.197 97.6247 194.197 98.314C194.197 99.018 194.432 99.5533 194.901 99.92C195.37 100.272 195.972 100.448 196.705 100.448ZM212.597 94.992C213.286 95.4027 213.814 95.9307 214.181 96.576C214.548 97.2067 214.731 97.918 214.731 98.71C214.731 99.414 214.599 100.052 214.335 100.624C214.086 101.196 213.719 101.68 213.235 102.076C212.766 102.472 212.186 102.78 211.497 103C210.822 103.205 210.06 103.308 209.209 103.308C208.358 103.308 207.588 103.205 206.899 103C206.21 102.78 205.63 102.472 205.161 102.076C204.692 101.68 204.325 101.196 204.061 100.624C203.812 100.052 203.687 99.414 203.687 98.71C203.687 97.918 203.87 97.2067 204.237 96.576C204.604 95.9307 205.124 95.4027 205.799 94.992C205.315 94.64 204.926 94.2 204.633 93.672C204.34 93.144 204.193 92.5207 204.193 91.802C204.193 91.054 204.325 90.4013 204.589 89.844C204.868 89.2867 205.234 88.8173 205.689 88.436C206.144 88.0547 206.672 87.7687 207.273 87.578C207.889 87.3873 208.534 87.292 209.209 87.292C209.884 87.292 210.522 87.3873 211.123 87.578C211.739 87.7687 212.274 88.0547 212.729 88.436C213.184 88.8173 213.543 89.2867 213.807 89.844C214.071 90.4013 214.203 91.054 214.203 91.802C214.203 92.5207 214.056 93.144 213.763 93.672C213.484 94.2 213.096 94.64 212.597 94.992ZM209.209 90.152C208.637 90.152 208.16 90.3133 207.779 90.636C207.412 90.944 207.229 91.384 207.229 91.956C207.229 92.5133 207.412 92.9607 207.779 93.298C208.16 93.6207 208.637 93.782 209.209 93.782C209.781 93.782 210.25 93.6207 210.617 93.298C210.998 92.9607 211.189 92.5133 211.189 91.956C211.189 91.384 210.998 90.944 210.617 90.636C210.25 90.3133 209.781 90.152 209.209 90.152ZM209.209 100.448C209.942 100.448 210.544 100.272 211.013 99.92C211.482 99.5533 211.717 99.018 211.717 98.314C211.717 97.6247 211.482 97.104 211.013 96.752C210.544 96.3853 209.942 96.202 209.209 96.202C208.476 96.202 207.874 96.3853 207.405 96.752C206.936 97.104 206.701 97.6247 206.701 98.314C206.701 99.018 206.936 99.5533 207.405 99.92C207.874 100.272 208.476 100.448 209.209 100.448ZM225.101 94.992C225.79 95.4027 226.318 95.9307 226.685 96.576C227.052 97.2067 227.235 97.918 227.235 98.71C227.235 99.414 227.103 100.052 226.839 100.624C226.59 101.196 226.223 101.68 225.739 102.076C225.27 102.472 224.69 102.78 224.001 103C223.326 103.205 222.564 103.308 221.713 103.308C220.862 103.308 220.092 103.205 219.403 103C218.714 102.78 218.134 102.472 217.665 102.076C217.196 101.68 216.829 101.196 216.565 100.624C216.316 100.052 216.191 99.414 216.191 98.71C216.191 97.918 216.374 97.2067 216.741 96.576C217.108 95.9307 217.628 95.4027 218.303 94.992C217.819 94.64 217.43 94.2 217.137 93.672C216.844 93.144 216.697 92.5207 216.697 91.802C216.697 91.054 216.829 90.4013 217.093 89.844C217.372 89.2867 217.738 88.8173 218.193 88.436C218.648 88.0547 219.176 87.7687 219.777 87.578C220.393 87.3873 221.038 87.292 221.713 87.292C222.388 87.292 223.026 87.3873 223.627 87.578C224.243 87.7687 224.778 88.0547 225.233 88.436C225.688 88.8173 226.047 89.2867 226.311 89.844C226.575 90.4013 226.707 91.054 226.707 91.802C226.707 92.5207 226.56 93.144 226.267 93.672C225.988 94.2 225.6 94.64 225.101 94.992ZM221.713 90.152C221.141 90.152 220.664 90.3133 220.283 90.636C219.916 90.944 219.733 91.384 219.733 91.956C219.733 92.5133 219.916 92.9607 220.283 93.298C220.664 93.6207 221.141 93.782 221.713 93.782C222.285 93.782 222.754 93.6207 223.121 93.298C223.502 92.9607 223.693 92.5133 223.693 91.956C223.693 91.384 223.502 90.944 223.121 90.636C222.754 90.3133 222.285 90.152 221.713 90.152ZM221.713 100.448C222.446 100.448 223.048 100.272 223.517 99.92C223.986 99.5533 224.221 99.018 224.221 98.314C224.221 97.6247 223.986 97.104 223.517 96.752C223.048 96.3853 222.446 96.202 221.713 96.202C220.98 96.202 220.378 96.3853 219.909 96.752C219.44 97.104 219.205 97.6247 219.205 98.314C219.205 99.018 219.44 99.5533 219.909 99.92C220.378 100.272 220.98 100.448 221.713 100.448Z" fill="white"/>
<path d="M23.128 137.352C23.7413 137.352 24.272 137.499 24.72 137.792C25.1733 138.08 25.504 138.496 25.712 139.04H24.84C24.6853 138.704 24.4613 138.445 24.168 138.264C23.88 138.083 23.5333 137.992 23.128 137.992C22.8347 137.992 22.5627 138.045 22.312 138.152C22.0613 138.253 21.8453 138.403 21.664 138.6C21.4827 138.792 21.3413 139.024 21.24 139.296C21.1387 139.568 21.088 139.872 21.088 140.208C21.088 140.544 21.1387 140.848 21.24 141.12C21.3413 141.392 21.4827 141.624 21.664 141.816C21.8453 142.008 22.0613 142.157 22.312 142.264C22.5627 142.365 22.8347 142.416 23.128 142.416C23.5333 142.416 23.88 142.328 24.168 142.152C24.4613 141.971 24.6853 141.712 24.84 141.376H25.712C25.504 141.909 25.1733 142.323 24.72 142.616C24.272 142.904 23.7413 143.048 23.128 143.048C22.7173 143.048 22.3413 142.976 22 142.832C21.6587 142.683 21.3653 142.48 21.12 142.224C20.8747 141.968 20.6827 141.669 20.544 141.328C20.4107 140.981 20.344 140.608 20.344 140.208C20.344 139.803 20.4133 139.427 20.552 139.08C20.6907 138.733 20.8827 138.432 21.128 138.176C21.3787 137.92 21.6747 137.72 22.016 137.576C22.3573 137.427 22.728 137.352 23.128 137.352ZM30.0917 141.76H27.6597L27.2117 143H26.4437L28.4597 137.456H29.2997L31.3077 143H30.5397L30.0917 141.76ZM29.8837 141.168L28.8757 138.352L27.8677 141.168H29.8837ZM35.1223 143L33.7943 140.72H32.9143V143H32.1863V137.424H33.9863C34.3063 137.424 34.5863 137.467 34.8263 137.552C35.0716 137.632 35.2743 137.747 35.4343 137.896C35.5943 138.04 35.7143 138.213 35.7943 138.416C35.8796 138.613 35.9223 138.829 35.9223 139.064C35.9223 139.448 35.813 139.787 35.5943 140.08C35.3756 140.373 35.0423 140.568 34.5943 140.664L35.9943 143H35.1223ZM32.9143 140.136H33.9863C34.3863 140.136 34.6823 140.04 34.8743 139.848C35.0716 139.651 35.1703 139.389 35.1703 139.064C35.1703 138.728 35.0716 138.472 34.8743 138.296C34.6823 138.115 34.3863 138.024 33.9863 138.024H32.9143V140.136ZM41.7495 140.224C41.7495 140.656 41.6802 141.045 41.5415 141.392C41.4082 141.733 41.2135 142.024 40.9575 142.264C40.7015 142.499 40.3895 142.68 40.0215 142.808C39.6588 142.936 39.2482 143 38.7895 143H37.0535V137.424H38.7895C39.2482 137.424 39.6588 137.491 40.0215 137.624C40.3895 137.752 40.7015 137.939 40.9575 138.184C41.2135 138.424 41.4082 138.717 41.5415 139.064C41.6802 139.405 41.7495 139.792 41.7495 140.224ZM38.7895 142.4C39.5148 142.4 40.0642 142.211 40.4375 141.832C40.8162 141.453 41.0055 140.917 41.0055 140.224C41.0055 139.525 40.8162 138.984 40.4375 138.6C40.0588 138.211 39.5095 138.016 38.7895 138.016H37.7815V142.4H38.7895ZM49.1386 137.424V143H48.4106V140.472H45.5706V143H44.8426V137.424H45.5706V139.872H48.4106V137.424H49.1386ZM52.9018 143.056C52.4965 143.056 52.1205 142.981 51.7738 142.832C51.4325 142.683 51.1365 142.48 50.8858 142.224C50.6405 141.968 50.4485 141.667 50.3098 141.32C50.1711 140.973 50.1018 140.603 50.1018 140.208C50.1018 139.797 50.1711 139.419 50.3098 139.072C50.4538 138.725 50.6485 138.427 50.8938 138.176C51.1445 137.92 51.4405 137.72 51.7818 137.576C52.1231 137.432 52.4965 137.36 52.9018 137.36C53.3178 137.36 53.6965 137.435 54.0378 137.584C54.3791 137.728 54.6725 137.928 54.9178 138.184C55.1685 138.44 55.3605 138.741 55.4938 139.088C55.6325 139.435 55.7018 139.808 55.7018 140.208C55.7018 140.613 55.6298 140.992 55.4858 141.344C55.3471 141.691 55.1525 141.992 54.9018 142.248C54.6565 142.499 54.3631 142.696 54.0218 142.84C53.6805 142.984 53.3071 143.056 52.9018 143.056ZM52.9018 142.424C53.1951 142.424 53.4671 142.373 53.7178 142.272C53.9685 142.165 54.1845 142.016 54.3658 141.824C54.5525 141.627 54.6965 141.392 54.7978 141.12C54.9045 140.848 54.9578 140.544 54.9578 140.208C54.9578 139.872 54.9045 139.568 54.7978 139.296C54.6965 139.024 54.5525 138.792 54.3658 138.6C54.1845 138.403 53.9685 138.253 53.7178 138.152C53.4671 138.045 53.1951 137.992 52.9018 137.992C52.6085 137.992 52.3365 138.045 52.0858 138.152C51.8351 138.253 51.6165 138.403 51.4298 138.6C51.2485 138.792 51.1045 139.024 50.9978 139.296C50.8965 139.568 50.8458 139.872 50.8458 140.208C50.8458 140.544 50.8965 140.848 50.9978 141.12C51.1045 141.392 51.2485 141.627 51.4298 141.824C51.6165 142.016 51.8351 142.165 52.0858 142.272C52.3365 142.373 52.6085 142.424 52.9018 142.424ZM57.3909 142.408H59.3429V143H56.6629V137.424H57.3909V142.408ZM64.812 140.224C64.812 140.656 64.7427 141.045 64.604 141.392C64.4707 141.733 64.276 142.024 64.02 142.264C63.764 142.499 63.452 142.68 63.084 142.808C62.7213 142.936 62.3107 143 61.852 143H60.116V137.424H61.852C62.3107 137.424 62.7213 137.491 63.084 137.624C63.452 137.752 63.764 137.939 64.02 138.184C64.276 138.424 64.4707 138.717 64.604 139.064C64.7427 139.405 64.812 139.792 64.812 140.224ZM61.852 142.4C62.5773 142.4 63.1267 142.211 63.5 141.832C63.8787 141.453 64.068 140.917 64.068 140.224C64.068 139.525 63.8787 138.984 63.5 138.6C63.1213 138.211 62.572 138.016 61.852 138.016H60.844V142.4H61.852ZM66.5003 138.016V139.88H68.5323V140.48H66.5003V142.4H68.7723V143H65.7723V137.416H68.7723V138.016H66.5003ZM72.8098 143L71.4818 140.72H70.6018V143H69.8738V137.424H71.6738C71.9938 137.424 72.2738 137.467 72.5138 137.552C72.7591 137.632 72.9618 137.747 73.1218 137.896C73.2818 138.04 73.4018 138.213 73.4818 138.416C73.5671 138.613 73.6098 138.829 73.6098 139.064C73.6098 139.448 73.5005 139.787 73.2818 140.08C73.0631 140.373 72.7298 140.568 72.2818 140.664L73.6818 143H72.8098ZM70.6018 140.136H71.6738C72.0738 140.136 72.3698 140.04 72.5618 139.848C72.7591 139.651 72.8578 139.389 72.8578 139.064C72.8578 138.728 72.7591 138.472 72.5618 138.296C72.3698 138.115 72.0738 138.024 71.6738 138.024H70.6018V140.136ZM81.2578 143H80.5298L77.6018 138.56V143H76.8738V137.416H77.6018L80.5298 141.848V137.416H81.2578V143ZM85.7948 141.76H83.3628L82.9148 143H82.1468L84.1628 137.456H85.0028L87.0108 143H86.2428L85.7948 141.76ZM85.5868 141.168L84.5788 138.352L83.5708 141.168H85.5868ZM93.5454 137.464V143H92.8174V138.872L90.9774 143H90.4654L88.6174 138.864V143H87.8894V137.464H88.6734L90.7214 142.04L92.7694 137.464H93.5454ZM95.5081 138.016V139.88H97.5401V140.48H95.5081V142.4H97.7801V143H94.7801V137.416H97.7801V138.016H95.5081Z" fill="white" fill-opacity="0.4"/>
<path d="M29.96 150.624V159H28.28V153.552L26.036 159H24.764L22.508 153.552V159H20.828V150.624H22.736L25.4 156.852L28.064 150.624H29.96ZM32.473 151.56C32.177 151.56 31.929 151.468 31.729 151.284C31.537 151.092 31.441 150.856 31.441 150.576C31.441 150.296 31.537 150.064 31.729 149.88C31.929 149.688 32.177 149.592 32.473 149.592C32.769 149.592 33.013 149.688 33.205 149.88C33.405 150.064 33.505 150.296 33.505 150.576C33.505 150.856 33.405 151.092 33.205 151.284C33.013 151.468 32.769 151.56 32.473 151.56ZM33.301 152.352V159H31.621V152.352H33.301ZM34.5288 155.676C34.5288 154.988 34.6688 154.388 34.9488 153.876C35.2288 153.356 35.6168 152.956 36.1128 152.676C36.6088 152.388 37.1768 152.244 37.8168 152.244C38.6408 152.244 39.3208 152.452 39.8568 152.868C40.4008 153.276 40.7648 153.852 40.9488 154.596H39.1368C39.0408 154.308 38.8768 154.084 38.6448 153.924C38.4208 153.756 38.1408 153.672 37.8048 153.672C37.3248 153.672 36.9448 153.848 36.6648 154.2C36.3848 154.544 36.2448 155.036 36.2448 155.676C36.2448 156.308 36.3848 156.8 36.6648 157.152C36.9448 157.496 37.3248 157.668 37.8048 157.668C38.4848 157.668 38.9288 157.364 39.1368 156.756H40.9488C40.7648 157.476 40.4008 158.048 39.8568 158.472C39.3128 158.896 38.6328 159.108 37.8168 159.108C37.1768 159.108 36.6088 158.968 36.1128 158.688C35.6168 158.4 35.2288 158 34.9488 157.488C34.6688 156.968 34.5288 156.364 34.5288 155.676ZM45.9236 152.256C46.4276 152.256 46.8756 152.368 47.2676 152.592C47.6596 152.808 47.9636 153.132 48.1796 153.564C48.4036 153.988 48.5156 154.5 48.5156 155.1V159H46.8356V155.328C46.8356 154.8 46.7036 154.396 46.4396 154.116C46.1756 153.828 45.8156 153.684 45.3596 153.684C44.8956 153.684 44.5276 153.828 44.2556 154.116C43.9916 154.396 43.8596 154.8 43.8596 155.328V159H42.1796V150.12H43.8596V153.18C44.0756 152.892 44.3636 152.668 44.7236 152.508C45.0836 152.34 45.4836 152.256 45.9236 152.256ZM56.2932 155.532C56.2932 155.772 56.2772 155.988 56.2452 156.18H51.3852C51.4252 156.66 51.5932 157.036 51.8892 157.308C52.1852 157.58 52.5492 157.716 52.9812 157.716C53.6052 157.716 54.0492 157.448 54.3132 156.912H56.1252C55.9332 157.552 55.5652 158.08 55.0212 158.496C54.4772 158.904 53.8092 159.108 53.0172 159.108C52.3772 159.108 51.8012 158.968 51.2892 158.688C50.7852 158.4 50.3892 157.996 50.1012 157.476C49.8212 156.956 49.6812 156.356 49.6812 155.676C49.6812 154.988 49.8212 154.384 50.1012 153.864C50.3812 153.344 50.7732 152.944 51.2772 152.664C51.7812 152.384 52.3612 152.244 53.0172 152.244C53.6492 152.244 54.2132 152.38 54.7092 152.652C55.2132 152.924 55.6012 153.312 55.8732 153.816C56.1532 154.312 56.2932 154.884 56.2932 155.532ZM54.5532 155.052C54.5452 154.62 54.3892 154.276 54.0852 154.02C53.7812 153.756 53.4092 153.624 52.9692 153.624C52.5532 153.624 52.2012 153.752 51.9132 154.008C51.6332 154.256 51.4612 154.604 51.3972 155.052H54.5532ZM57.0874 155.652C57.0874 154.98 57.2194 154.384 57.4834 153.864C57.7554 153.344 58.1194 152.944 58.5754 152.664C59.0394 152.384 59.5554 152.244 60.1234 152.244C60.6194 152.244 61.0514 152.344 61.4194 152.544C61.7954 152.744 62.0954 152.996 62.3194 153.3V152.352H64.0114V159H62.3194V158.028C62.1034 158.34 61.8034 158.6 61.4194 158.808C61.0434 159.008 60.6074 159.108 60.1114 159.108C59.5514 159.108 59.0394 158.964 58.5754 158.676C58.1194 158.388 57.7554 157.984 57.4834 157.464C57.2194 156.936 57.0874 156.332 57.0874 155.652ZM62.3194 155.676C62.3194 155.268 62.2394 154.92 62.0794 154.632C61.9194 154.336 61.7034 154.112 61.4314 153.96C61.1594 153.8 60.8674 153.72 60.5554 153.72C60.2434 153.72 59.9554 153.796 59.6914 153.948C59.4274 154.1 59.2114 154.324 59.0434 154.62C58.8834 154.908 58.8034 155.252 58.8034 155.652C58.8034 156.052 58.8834 156.404 59.0434 156.708C59.2114 157.004 59.4274 157.232 59.6914 157.392C59.9634 157.552 60.2514 157.632 60.5554 157.632C60.8674 157.632 61.1594 157.556 61.4314 157.404C61.7034 157.244 61.9194 157.02 62.0794 156.732C62.2394 156.436 62.3194 156.084 62.3194 155.676ZM67.3322 150.12V159H65.6522V150.12H67.3322ZM74.7434 159.084C74.1594 159.084 73.6314 158.984 73.1594 158.784C72.6954 158.584 72.3274 158.296 72.0554 157.92C71.7834 157.544 71.6434 157.1 71.6354 156.588H73.4354C73.4594 156.932 73.5794 157.204 73.7954 157.404C74.0194 157.604 74.3234 157.704 74.7074 157.704C75.0994 157.704 75.4074 157.612 75.6314 157.428C75.8554 157.236 75.9674 156.988 75.9674 156.684C75.9674 156.436 75.8914 156.232 75.7394 156.072C75.5874 155.912 75.3954 155.788 75.1634 155.7C74.9394 155.604 74.6274 155.5 74.2274 155.388C73.6834 155.228 73.2394 155.072 72.8954 154.92C72.5594 154.76 72.2674 154.524 72.0194 154.212C71.7794 153.892 71.6594 153.468 71.6594 152.94C71.6594 152.444 71.7834 152.012 72.0314 151.644C72.2794 151.276 72.6274 150.996 73.0754 150.804C73.5234 150.604 74.0354 150.504 74.6114 150.504C75.4754 150.504 76.1754 150.716 76.7114 151.14C77.2554 151.556 77.5554 152.14 77.6114 152.892H75.7634C75.7474 152.604 75.6234 152.368 75.3914 152.184C75.1674 151.992 74.8674 151.896 74.4914 151.896C74.1634 151.896 73.8994 151.98 73.6994 152.148C73.5074 152.316 73.4114 152.56 73.4114 152.88C73.4114 153.104 73.4834 153.292 73.6274 153.444C73.7794 153.588 73.9634 153.708 74.1794 153.804C74.4034 153.892 74.7154 153.996 75.1154 154.116C75.6594 154.276 76.1034 154.436 76.4474 154.596C76.7914 154.756 77.0874 154.996 77.3354 155.316C77.5834 155.636 77.7074 156.056 77.7074 156.576C77.7074 157.024 77.5914 157.44 77.3594 157.824C77.1274 158.208 76.7874 158.516 76.3394 158.748C75.8914 158.972 75.3594 159.084 74.7434 159.084ZM78.7319 155.652C78.7319 154.98 78.8639 154.384 79.1279 153.864C79.3999 153.344 79.7639 152.944 80.2199 152.664C80.6839 152.384 81.1999 152.244 81.7679 152.244C82.2639 152.244 82.6959 152.344 83.0639 152.544C83.4399 152.744 83.7399 152.996 83.9639 153.3V152.352H85.6559V159H83.9639V158.028C83.7479 158.34 83.4479 158.6 83.0639 158.808C82.6879 159.008 82.2519 159.108 81.7559 159.108C81.1959 159.108 80.6839 158.964 80.2199 158.676C79.7639 158.388 79.3999 157.984 79.1279 157.464C78.8639 156.936 78.7319 156.332 78.7319 155.652ZM83.9639 155.676C83.9639 155.268 83.8839 154.92 83.7239 154.632C83.5639 154.336 83.3479 154.112 83.0759 153.96C82.8039 153.8 82.5119 153.72 82.1999 153.72C81.8879 153.72 81.5999 153.796 81.3359 153.948C81.0719 154.1 80.8559 154.324 80.6879 154.62C80.5279 154.908 80.4479 155.252 80.4479 155.652C80.4479 156.052 80.5279 156.404 80.6879 156.708C80.8559 157.004 81.0719 157.232 81.3359 157.392C81.6079 157.552 81.8959 157.632 82.1999 157.632C82.5119 157.632 82.8039 157.556 83.0759 157.404C83.3479 157.244 83.5639 157.02 83.7239 156.732C83.8839 156.436 83.9639 156.084 83.9639 155.676ZM95.5528 152.256C96.3688 152.256 97.0248 152.508 97.5208 153.012C98.0248 153.508 98.2768 154.204 98.2768 155.1V159H96.5968V155.328C96.5968 154.808 96.4648 154.412 96.2008 154.14C95.9368 153.86 95.5768 153.72 95.1208 153.72C94.6648 153.72 94.3008 153.86 94.0288 154.14C93.7648 154.412 93.6328 154.808 93.6328 155.328V159H91.9528V155.328C91.9528 154.808 91.8208 154.412 91.5568 154.14C91.2928 153.86 90.9328 153.72 90.4768 153.72C90.0128 153.72 89.6448 153.86 89.3728 154.14C89.1088 154.412 88.9768 154.808 88.9768 155.328V159H87.2968V152.352H88.9768V153.156C89.1928 152.876 89.4688 152.656 89.8048 152.496C90.1488 152.336 90.5248 152.256 90.9328 152.256C91.4528 152.256 91.9168 152.368 92.3248 152.592C92.7328 152.808 93.0488 153.12 93.2728 153.528C93.4888 153.144 93.8008 152.836 94.2088 152.604C94.6248 152.372 95.0728 152.256 95.5528 152.256Z" fill="white" fill-opacity="0.8"/>
<path d="M143.224 137.424L141.12 143H140.28L138.176 137.424H138.952L140.704 142.232L142.456 137.424H143.224ZM147.318 141.76H144.886L144.438 143H143.67L145.686 137.456H146.526L148.534 143H147.766L147.318 141.76ZM147.11 141.168L146.102 138.352L145.094 141.168H147.11ZM150.141 142.408H152.093V143H149.413V137.424H150.141V142.408ZM153.594 137.424V143H152.866V137.424H153.594ZM159.531 140.224C159.531 140.656 159.461 141.045 159.323 141.392C159.189 141.733 158.995 142.024 158.739 142.264C158.483 142.499 158.171 142.68 157.803 142.808C157.44 142.936 157.029 143 156.571 143H154.835V137.424H156.571C157.029 137.424 157.44 137.491 157.803 137.624C158.171 137.752 158.483 137.939 158.739 138.184C158.995 138.424 159.189 138.717 159.323 139.064C159.461 139.405 159.531 139.792 159.531 140.224ZM156.571 142.4C157.296 142.4 157.845 142.211 158.219 141.832C158.597 141.453 158.787 140.917 158.787 140.224C158.787 139.525 158.597 138.984 158.219 138.6C157.84 138.211 157.291 138.016 156.571 138.016H155.563V142.4H156.571ZM166.056 137.424V138.016H164.536V143H163.808V138.016H162.28V137.424H166.056ZM171.248 137.424V143H170.52V140.472H167.68V143H166.952V137.424H167.68V139.872H170.52V137.424H171.248ZM175.419 143L174.091 140.72H173.211V143H172.483V137.424H174.283C174.603 137.424 174.883 137.467 175.123 137.552C175.369 137.632 175.571 137.747 175.731 137.896C175.891 138.04 176.011 138.213 176.091 138.416C176.177 138.613 176.219 138.829 176.219 139.064C176.219 139.448 176.11 139.787 175.891 140.08C175.673 140.373 175.339 140.568 174.891 140.664L176.291 143H175.419ZM173.211 140.136H174.283C174.683 140.136 174.979 140.04 175.171 139.848C175.369 139.651 175.467 139.389 175.467 139.064C175.467 138.728 175.369 138.472 175.171 138.296C174.979 138.115 174.683 138.024 174.283 138.024H173.211V140.136ZM178.062 137.424V140.952C178.062 141.453 178.182 141.824 178.422 142.064C178.668 142.299 179.006 142.416 179.438 142.416C179.87 142.416 180.206 142.299 180.446 142.064C180.686 141.824 180.806 141.453 180.806 140.952V137.424H181.534V140.944C181.534 141.296 181.478 141.605 181.366 141.872C181.26 142.133 181.11 142.352 180.918 142.528C180.732 142.704 180.51 142.837 180.254 142.928C179.998 143.013 179.724 143.056 179.43 143.056C179.137 143.056 178.862 143.013 178.606 142.928C178.35 142.837 178.126 142.704 177.934 142.528C177.748 142.352 177.601 142.133 177.494 141.872C177.388 141.605 177.334 141.296 177.334 140.944V137.424H178.062Z" fill="white" fill-opacity="0.4"/>
<path d="M139.164 157.104C139.932 156.464 140.544 155.932 141 155.508C141.456 155.076 141.836 154.628 142.14 154.164C142.444 153.7 142.596 153.244 142.596 152.796C142.596 152.388 142.5 152.068 142.308 151.836C142.116 151.604 141.82 151.488 141.42 151.488C141.02 151.488 140.712 151.624 140.496 151.896C140.28 152.16 140.168 152.524 140.16 152.988H138.528C138.56 152.028 138.844 151.3 139.38 150.804C139.924 150.308 140.612 150.06 141.444 150.06C142.356 150.06 143.056 150.304 143.544 150.792C144.032 151.272 144.276 151.908 144.276 152.7C144.276 153.324 144.108 153.92 143.772 154.488C143.436 155.056 143.052 155.552 142.62 155.976C142.188 156.392 141.624 156.896 140.928 157.488H144.468V158.88H138.54V157.632L139.164 157.104ZM146.991 154.368C146.191 153.952 145.791 153.308 145.791 152.436C145.791 152.004 145.899 151.612 146.115 151.26C146.339 150.9 146.671 150.616 147.111 150.408C147.559 150.192 148.103 150.084 148.743 150.084C149.383 150.084 149.923 150.192 150.363 150.408C150.811 150.616 151.143 150.9 151.359 151.26C151.583 151.612 151.695 152.004 151.695 152.436C151.695 152.876 151.587 153.264 151.371 153.6C151.155 153.928 150.867 154.184 150.507 154.368C150.947 154.56 151.291 154.84 151.539 155.208C151.787 155.576 151.911 156.012 151.911 156.516C151.911 157.06 151.771 157.536 151.491 157.944C151.219 158.344 150.843 158.652 150.363 158.868C149.883 159.084 149.343 159.192 148.743 159.192C148.143 159.192 147.603 159.084 147.123 158.868C146.651 158.652 146.275 158.344 145.995 157.944C145.723 157.536 145.587 157.06 145.587 156.516C145.587 156.012 145.711 155.576 145.959 155.208C146.207 154.832 146.551 154.552 146.991 154.368ZM150.063 152.676C150.063 152.284 149.943 151.98 149.703 151.764C149.471 151.548 149.151 151.44 148.743 151.44C148.343 151.44 148.023 151.548 147.783 151.764C147.551 151.98 147.435 152.288 147.435 152.688C147.435 153.048 147.555 153.336 147.795 153.552C148.043 153.768 148.359 153.876 148.743 153.876C149.127 153.876 149.443 153.768 149.691 153.552C149.939 153.328 150.063 153.036 150.063 152.676ZM148.743 155.1C148.287 155.1 147.915 155.216 147.627 155.448C147.347 155.68 147.207 156.012 147.207 156.444C147.207 156.844 147.343 157.172 147.615 157.428C147.895 157.676 148.271 157.8 148.743 157.8C149.215 157.8 149.587 157.672 149.859 157.416C150.131 157.16 150.267 156.836 150.267 156.444C150.267 156.02 150.127 155.692 149.847 155.46C149.567 155.22 149.199 155.1 148.743 155.1ZM157.93 147.636L154.69 161.172H153.046L156.286 147.636H157.93ZM158.87 151.8V150.252H161.762V159H160.034V151.8H158.87ZM163.421 154.512C163.421 153.128 163.669 152.044 164.165 151.26C164.669 150.476 165.501 150.084 166.661 150.084C167.821 150.084 168.649 150.476 169.145 151.26C169.649 152.044 169.901 153.128 169.901 154.512C169.901 155.904 169.649 156.996 169.145 157.788C168.649 158.58 167.821 158.976 166.661 158.976C165.501 158.976 164.669 158.58 164.165 157.788C163.669 156.996 163.421 155.904 163.421 154.512ZM168.245 154.512C168.245 153.92 168.205 153.424 168.125 153.024C168.053 152.616 167.901 152.284 167.669 152.028C167.445 151.772 167.109 151.644 166.661 151.644C166.213 151.644 165.873 151.772 165.641 152.028C165.417 152.284 165.265 152.616 165.185 153.024C165.113 153.424 165.077 153.92 165.077 154.512C165.077 155.12 165.113 155.632 165.185 156.048C165.257 156.456 165.409 156.788 165.641 157.044C165.873 157.292 166.213 157.416 166.661 157.416C167.109 157.416 167.449 157.292 167.681 157.044C167.913 156.788 168.065 156.456 168.137 156.048C168.209 155.632 168.245 155.12 168.245 154.512Z" fill="white" fill-opacity="0.8"/>
<path d="M428.153 21.9544C414.008 55.649 410.715 97.4664 410.98 130.934C411.112 147.653 412.131 162.261 413.117 172.687C413.611 177.9 414.095 182.067 414.456 184.928C414.637 186.359 414.786 187.463 414.891 188.209C414.943 188.582 414.984 188.866 415.012 189.055C415.025 189.15 415.036 189.221 415.043 189.268C415.047 189.292 415.049 189.31 415.051 189.321C415.052 189.327 415.052 189.332 415.053 189.335C415.053 189.336 415.053 189.337 415.053 189.338C415.048 189.339 414.975 189.351 414.065 189.489C413.123 189.633 413.079 189.64 413.076 189.639C413.076 189.638 413.076 189.637 413.076 189.635C413.075 189.632 413.074 189.627 413.073 189.621C413.072 189.608 413.069 189.589 413.065 189.564C413.058 189.515 413.046 189.442 413.032 189.345C413.004 189.151 412.962 188.864 412.91 188.487C412.804 187.733 412.654 186.619 412.472 185.179C412.109 182.299 411.621 178.111 411.126 172.876C410.136 162.405 409.112 147.739 408.979 130.949C408.714 97.3974 412.004 55.2532 426.309 21.1802L428.153 21.9544ZM421.894 21.8496L422.825 22.2128C409.824 55.574 404.217 97.1001 401.867 130.34C400.693 146.95 400.334 161.47 400.268 171.836C400.235 177.018 400.276 181.162 400.324 184.009C400.349 185.432 400.375 186.531 400.395 187.274C400.405 187.644 400.414 187.927 400.42 188.115C400.423 188.21 400.425 188.281 400.427 188.329C400.428 188.352 400.428 188.37 400.428 188.381C400.428 188.387 400.429 188.392 400.429 188.395C400.429 188.396 400.429 188.397 400.429 188.398C400.423 188.399 400.352 188.401 399.43 188.435C398.431 188.472 398.431 188.471 398.43 188.47C398.431 188.469 398.431 188.468 398.431 188.467C398.431 188.464 398.43 188.458 398.43 188.452L398.421 188.179C398.415 187.987 398.406 187.702 398.396 187.328C398.375 186.579 398.348 185.473 398.324 184.043C398.275 181.182 398.235 177.022 398.268 171.823C398.334 161.424 398.695 146.861 399.872 130.2C402.226 96.8992 407.85 55.1322 420.962 21.4866L421.894 21.8496ZM416.554 22.1284L417.495 22.4666C405.641 55.4941 397.713 96.7289 392.747 129.743C390.265 146.242 388.525 160.674 387.406 170.98C386.847 176.133 386.442 180.255 386.178 183.087C386.046 184.503 385.949 185.597 385.885 186.336C385.852 186.706 385.829 186.986 385.813 187.175C385.805 187.269 385.8 187.34 385.796 187.387L385.79 187.453C385.79 187.454 385.79 187.456 385.79 187.456C385.79 187.457 385.789 187.457 384.793 187.377C383.796 187.297 383.796 187.296 383.796 187.296C383.796 187.295 383.797 187.294 383.797 187.293C383.797 187.289 383.797 187.284 383.798 187.278C383.799 187.266 383.8 187.248 383.802 187.224C383.806 187.175 383.812 187.103 383.82 187.008C383.836 186.817 383.86 186.534 383.893 186.163C383.957 185.42 384.054 184.321 384.187 182.901C384.452 180.059 384.857 175.928 385.418 170.764C386.539 160.437 388.283 145.977 390.769 129.446C395.74 96.3957 403.691 55.0054 415.612 21.7904L416.554 22.1284ZM412.166 22.7221C401.465 55.419 391.207 96.362 383.623 129.148C379.832 145.537 376.71 159.881 374.536 170.128C373.449 175.251 372.599 179.35 372.021 182.167C371.732 183.576 371.511 184.664 371.363 185.4C371.288 185.768 371.231 186.048 371.194 186.236C371.175 186.329 371.161 186.4 371.151 186.448C371.146 186.471 371.143 186.49 371.141 186.502C371.14 186.507 371.139 186.512 371.139 186.514C371.138 186.516 371.137 186.517 371.137 186.518C371.137 186.518 371.137 186.519 370.157 186.324C369.245 186.142 369.181 186.129 369.176 186.127C369.176 186.126 369.176 186.124 369.177 186.123C369.177 186.12 369.178 186.115 369.18 186.109C369.182 186.097 369.185 186.08 369.19 186.056C369.2 186.008 369.214 185.936 369.233 185.842C369.271 185.654 369.328 185.372 369.402 185.004C369.552 184.266 369.772 183.176 370.062 181.765C370.641 178.944 371.492 174.841 372.58 169.713C374.756 159.458 377.88 145.101 381.675 128.698C389.262 95.8975 399.535 54.8839 410.264 22.1L412.166 22.7221ZM405.876 22.6937L406.835 22.9768C397.287 55.3455 384.696 95.9961 374.493 128.551C369.392 144.829 364.886 159.084 361.656 169.27C360.042 174.363 358.746 178.44 357.854 181.242C357.408 182.643 357.062 183.727 356.828 184.459C356.712 184.825 356.623 185.104 356.563 185.291C356.533 185.385 356.51 185.455 356.495 185.503C356.488 185.526 356.483 185.544 356.479 185.556C356.477 185.562 356.476 185.566 356.475 185.569C356.474 185.57 356.474 185.572 356.473 185.572C356.469 185.572 356.408 185.553 355.52 185.27C354.578 184.969 354.568 184.965 354.568 184.964C354.568 184.963 354.569 184.962 354.569 184.961C354.57 184.958 354.571 184.954 354.573 184.948C354.577 184.936 354.583 184.918 354.591 184.894C354.606 184.847 354.628 184.776 354.658 184.683C354.718 184.496 354.807 184.217 354.924 183.851C355.157 183.118 355.503 182.036 355.948 180.635C356.841 177.833 358.136 173.758 359.751 168.666C362.98 158.482 367.484 144.228 372.585 127.953C382.787 95.3998 395.373 54.7621 404.917 22.4103L405.876 22.6937ZM400.542 22.9711L401.51 23.2246C393.117 55.2667 378.184 95.6229 365.363 127.943C358.95 144.108 353.061 158.273 348.775 168.397C346.632 173.459 344.89 177.512 343.683 180.299C343.08 181.692 342.61 182.77 342.291 183.499C342.132 183.863 342.01 184.141 341.928 184.328C341.887 184.421 341.856 184.491 341.836 184.539C341.825 184.562 341.817 184.58 341.812 184.592C341.809 184.597 341.807 184.603 341.806 184.606C341.805 184.607 341.805 184.608 341.805 184.609C341.802 184.609 341.755 184.589 340.889 184.207C339.991 183.81 339.974 183.803 339.974 183.802C339.975 183.801 339.976 183.8 339.976 183.798C339.978 183.796 339.979 183.791 339.982 183.785C339.987 183.774 339.995 183.756 340.005 183.733C340.026 183.687 340.056 183.616 340.097 183.524C340.179 183.338 340.3 183.061 340.459 182.698C340.777 181.971 341.245 180.896 341.847 179.505C343.052 176.722 344.793 172.674 346.933 167.618C351.215 157.504 357.098 143.353 363.504 127.205C376.321 94.8968 391.215 54.6351 399.576 22.7173L400.542 22.9711ZM395.204 23.2535L396.179 23.4755C388.947 55.1925 371.667 95.2545 356.227 127.336C348.501 143.388 341.226 157.463 335.883 167.525C333.211 172.556 331.023 176.585 329.501 179.356C328.741 180.741 328.147 181.812 327.743 182.537C327.541 182.9 327.386 183.176 327.282 183.362C327.23 183.454 327.191 183.525 327.164 183.572C327.151 183.595 327.14 183.613 327.134 183.625C327.13 183.631 327.128 183.636 327.127 183.639C327.126 183.64 327.125 183.642 327.124 183.642C327.118 183.64 327.047 183.6 326.253 183.152C325.404 182.674 325.382 182.661 325.382 182.66C325.382 182.66 325.383 182.658 325.384 182.657C325.386 182.654 325.388 182.65 325.392 182.644C325.398 182.633 325.408 182.615 325.421 182.592C325.447 182.546 325.486 182.476 325.537 182.384C325.641 182.2 325.794 181.926 325.995 181.565C326.398 180.843 326.989 179.775 327.748 178.393C329.265 175.629 331.45 171.609 334.117 166.587C339.451 156.542 346.713 142.491 354.424 126.468C369.857 94.4006 387.051 54.5129 394.229 23.0317L395.204 23.2535ZM390.848 23.7255C384.778 55.1194 365.14 94.8849 347.085 126.724C338.048 142.661 329.388 156.644 322.989 166.643C319.789 171.641 317.153 175.645 315.317 178.4C314.399 179.777 313.68 180.844 313.191 181.565C312.947 181.925 312.759 182.201 312.633 182.385C312.571 182.477 312.522 182.547 312.49 182.594C312.474 182.617 312.462 182.636 312.454 182.647C312.45 182.653 312.447 182.657 312.445 182.66C312.444 182.662 312.443 182.663 312.442 182.664C312.442 182.665 312.441 182.665 311.618 182.098C310.844 181.566 310.797 181.533 310.794 181.531C310.795 181.53 310.796 181.528 310.797 181.527C310.799 181.525 310.802 181.52 310.806 181.514C310.814 181.503 310.825 181.485 310.841 181.463C310.872 181.417 310.92 181.348 310.982 181.257C311.107 181.074 311.293 180.801 311.536 180.442C312.023 179.725 312.738 178.664 313.653 177.292C315.483 174.546 318.112 170.552 321.305 165.564C327.69 155.588 336.329 141.636 345.345 125.738C363.396 93.9059 382.883 54.3899 388.884 23.3464L390.848 23.7255ZM384.526 23.8147L385.515 23.9709C380.611 55.042 358.607 94.5097 337.94 126.103C327.59 141.924 317.547 155.813 310.091 165.747C306.362 170.714 303.28 174.694 301.129 177.432C300.054 178.801 299.211 179.86 298.637 180.577C298.35 180.935 298.131 181.209 297.982 181.393C297.908 181.485 297.851 181.555 297.813 181.601C297.795 181.624 297.78 181.642 297.771 181.653C297.766 181.659 297.762 181.665 297.76 181.668C297.759 181.669 297.758 181.67 297.757 181.67C297.757 181.671 297.756 181.672 296.98 181.04C296.267 180.459 296.21 180.413 296.206 180.408C296.207 180.408 296.208 180.406 296.209 180.405C296.211 180.402 296.215 180.398 296.219 180.393C296.228 180.381 296.242 180.364 296.26 180.341C296.297 180.295 296.353 180.227 296.426 180.137C296.572 179.955 296.791 179.684 297.076 179.328C297.646 178.615 298.485 177.56 299.556 176.196C301.699 173.468 304.773 169.501 308.491 164.547C315.929 154.637 325.946 140.783 336.266 125.008C356.938 93.4065 378.709 54.2607 383.539 23.6584L384.526 23.8147ZM380.186 24.2162C378.317 39.6269 371.273 57.1141 361.825 74.6254C352.369 92.1515 340.464 109.776 328.804 125.477C317.143 141.18 305.713 154.975 297.2 164.843C292.943 169.777 289.415 173.732 286.95 176.453C285.717 177.813 284.75 178.866 284.091 179.579C283.761 179.935 283.508 180.207 283.338 180.39C283.253 180.481 283.188 180.55 283.145 180.596C283.123 180.619 283.106 180.637 283.095 180.649C283.09 180.654 283.086 180.659 283.083 180.662C283.082 180.664 283.08 180.665 283.08 180.666C283.079 180.667 283.076 180.665 282.35 179.982C281.671 179.342 281.626 179.298 281.623 179.295C281.624 179.294 281.625 179.292 281.626 179.291C281.628 179.289 281.633 179.284 281.638 179.279C281.648 179.268 281.665 179.251 281.686 179.228C281.728 179.183 281.792 179.115 281.876 179.025C282.044 178.844 282.295 178.575 282.622 178.221C283.277 177.513 284.24 176.465 285.467 175.11C287.923 172.4 291.441 168.457 295.685 163.537C304.176 153.694 315.574 139.938 327.199 124.285C338.826 108.628 350.67 91.0876 360.065 73.6753C369.467 56.2481 376.376 39.0206 378.201 23.9757L380.186 24.2162ZM373.855 24.3784L374.851 24.462C373.57 39.7237 366.215 57.0584 356.001 74.4108C345.777 91.7829 332.63 109.268 319.659 124.849C306.686 140.434 293.873 154.134 284.304 163.936C279.52 168.838 275.545 172.767 272.765 175.47C271.376 176.822 270.285 177.868 269.54 178.577C269.169 178.931 268.882 179.201 268.69 179.382C268.594 179.473 268.52 179.542 268.471 179.588C268.447 179.611 268.428 179.628 268.415 179.64C268.409 179.645 268.405 179.651 268.402 179.654C268.4 179.655 268.399 179.656 268.398 179.657C268.397 179.657 268.396 179.658 267.714 178.928C267.032 178.197 267.032 178.196 267.032 178.195C267.033 178.194 267.034 178.194 267.036 178.192C267.039 178.19 267.043 178.185 267.049 178.18C267.061 178.168 267.079 178.151 267.103 178.129C267.151 178.084 267.223 178.016 267.318 177.927C267.508 177.748 267.792 177.48 268.161 177.128C268.9 176.425 269.986 175.384 271.37 174.037C274.139 171.344 278.102 167.427 282.873 162.539C292.417 152.762 305.192 139.103 318.122 123.57C331.055 108.033 344.128 90.6404 354.278 73.3959C364.439 56.1316 371.615 39.1087 372.859 24.295L373.855 24.3784ZM369.514 24.7032C368.824 39.8175 361.154 56.9993 350.177 74.1905C339.183 91.4072 324.794 108.751 310.513 124.213C296.229 139.679 282.032 153.283 271.408 163.02C266.096 167.888 261.675 171.79 258.582 174.477C257.035 175.82 255.82 176.86 254.991 177.564C254.577 177.916 254.259 178.184 254.044 178.364C253.937 178.454 253.855 178.522 253.8 178.568C253.773 178.591 253.752 178.609 253.738 178.621C253.731 178.626 253.726 178.631 253.723 178.634C253.721 178.635 253.719 178.636 253.718 178.637C253.717 178.638 253.717 178.638 253.077 177.87C252.451 177.117 252.438 177.101 252.438 177.1C252.439 177.099 252.441 177.098 252.442 177.097C252.446 177.094 252.45 177.09 252.457 177.085C252.47 177.074 252.49 177.056 252.517 177.034C252.57 176.989 252.651 176.922 252.757 176.833C252.969 176.654 253.285 176.389 253.696 176.039C254.52 175.34 255.729 174.305 257.27 172.967C260.352 170.29 264.759 166.4 270.057 161.545C280.653 151.834 294.808 138.27 309.044 122.857C323.283 107.44 337.585 90.1919 348.491 73.1136C359.412 56.01 366.851 39.1921 367.517 24.6112L369.514 24.7032ZM364.176 24.9456C364.083 39.914 356.094 56.9446 344.354 73.9727C332.593 91.0324 316.962 108.234 301.372 123.576C285.776 138.922 270.196 152.43 258.516 162.1C252.676 166.935 247.809 170.812 244.401 173.481C242.698 174.816 241.359 175.849 240.445 176.548C239.988 176.898 239.638 177.164 239.401 177.343C239.283 177.433 239.193 177.501 239.132 177.547C239.102 177.569 239.08 177.587 239.064 177.598C239.057 177.604 239.051 177.608 239.047 177.611C239.045 177.612 239.043 177.613 239.042 177.614C239.036 177.608 238.984 177.54 238.441 176.815C237.844 176.019 237.841 176.015 237.842 176.014C237.843 176.014 237.845 176.013 237.846 176.011C237.85 176.009 237.855 176.004 237.863 175.999C237.877 175.988 237.9 175.972 237.929 175.95C237.988 175.905 238.076 175.837 238.193 175.749C238.427 175.572 238.775 175.307 239.229 174.96C240.138 174.265 241.472 173.237 243.169 171.907C246.564 169.248 251.416 165.382 257.241 160.559C268.892 150.913 284.427 137.445 299.969 122.151C315.516 106.852 331.047 89.7505 342.708 72.8373C354.39 55.8925 362.086 39.2801 362.176 24.9341L364.176 24.9456ZM357.837 25.2234L358.837 25.1894C359.341 40.0122 351.03 56.8897 338.529 73.7515C326 90.6526 309.129 107.713 292.229 122.934C275.323 138.159 258.359 151.57 245.625 161.173C239.258 165.975 233.946 169.827 230.225 172.478C228.364 173.804 226.9 174.829 225.902 175.524C225.403 175.871 225.02 176.137 224.761 176.315C224.632 176.404 224.533 176.471 224.467 176.516C224.434 176.538 224.409 176.556 224.392 176.568C224.384 176.573 224.378 176.578 224.374 176.581C224.372 176.582 224.37 176.583 224.369 176.584C224.367 176.583 224.343 176.55 223.804 175.758C223.28 174.99 223.244 174.936 223.242 174.931C223.243 174.931 223.245 174.929 223.247 174.928C223.251 174.926 223.256 174.921 223.264 174.916C223.28 174.905 223.305 174.888 223.337 174.866C223.402 174.822 223.5 174.756 223.627 174.668C223.883 174.492 224.263 174.228 224.759 173.883C225.752 173.192 227.209 172.17 229.063 170.849C232.772 168.207 238.07 164.366 244.421 159.576C257.126 149.995 274.041 136.622 290.89 121.447C307.744 106.268 324.506 89.3093 336.923 72.5605C349.369 55.7727 357.319 39.3665 356.839 25.2573L357.837 25.2234ZM352.505 25.4997L353.502 25.4241C354.61 40.1047 345.969 56.8317 332.709 73.5262C319.412 90.2685 301.3 107.185 283.09 122.285C264.875 137.39 246.528 150.704 232.738 160.24C225.843 165.009 220.085 168.835 216.049 171.469C214.032 172.786 212.445 173.804 211.362 174.494C210.821 174.839 210.405 175.103 210.124 175.28C209.984 175.368 209.877 175.435 209.806 175.48C209.77 175.502 209.743 175.519 209.725 175.53C209.716 175.536 209.708 175.541 209.704 175.544C209.702 175.545 209.699 175.546 209.698 175.547C209.695 175.545 209.663 175.494 209.167 174.699C208.649 173.868 208.638 173.851 208.639 173.85C208.64 173.849 208.643 173.848 208.645 173.847C208.649 173.844 208.656 173.84 208.664 173.835C208.681 173.824 208.708 173.807 208.743 173.786C208.814 173.742 208.919 173.676 209.057 173.588C209.335 173.413 209.749 173.152 210.287 172.808C211.365 172.122 212.946 171.107 214.956 169.794C218.979 167.169 224.723 163.353 231.602 158.596C245.361 149.08 263.657 135.801 281.813 120.745C299.977 105.684 317.97 88.8689 331.144 72.2825C344.355 55.6487 352.555 39.4481 351.508 25.5751L352.505 25.4997ZM347.167 25.7831L348.16 25.6656C349.876 40.2027 340.902 56.7791 326.886 73.3036C312.822 89.8855 293.47 106.658 273.952 121.637C254.427 136.622 234.698 149.839 219.854 159.309C212.432 164.044 206.227 167.844 201.879 170.461C199.704 171.769 197.993 172.782 196.825 173.468C196.242 173.81 195.793 174.071 195.491 174.247C195.339 174.335 195.224 174.401 195.147 174.446C195.108 174.468 195.079 174.485 195.06 174.496C195.05 174.502 195.043 174.506 195.038 174.509C195.035 174.511 195.033 174.512 195.031 174.513C195.028 174.51 194.998 174.46 194.532 173.647C194.071 172.846 194.037 172.784 194.035 172.779C194.036 172.778 194.038 172.777 194.04 172.776C194.044 172.773 194.052 172.769 194.061 172.763C194.08 172.752 194.109 172.736 194.147 172.714C194.223 172.67 194.337 172.604 194.486 172.517C194.786 172.343 195.232 172.084 195.812 171.743C196.974 171.06 198.679 170.052 200.847 168.748C205.183 166.139 211.373 162.348 218.779 157.623C233.593 148.172 253.27 134.988 272.735 120.05C292.207 105.106 311.431 88.4334 325.361 72.0092C339.34 55.5277 347.783 39.5345 346.173 25.9007L347.167 25.7831ZM342.815 25.9063C343.983 33.1255 342.218 40.8401 338.35 48.7574C334.481 56.6769 328.476 64.867 321.061 73.0774C306.231 89.4977 285.642 106.125 264.817 120.983C243.983 135.846 222.873 148.966 206.976 158.369C199.026 163.071 192.377 166.846 187.715 169.445C185.384 170.744 183.548 171.749 182.296 172.431C181.67 172.771 181.189 173.031 180.865 173.206C180.703 173.293 180.58 173.358 180.497 173.403C180.456 173.425 180.424 173.442 180.403 173.453C180.393 173.458 180.385 173.463 180.38 173.466C180.377 173.467 180.375 173.468 180.373 173.469C180.372 173.47 180.37 173.47 179.901 172.588C179.464 171.767 179.435 171.708 179.433 171.703C179.435 171.703 179.436 171.701 179.439 171.7C179.444 171.698 179.451 171.694 179.461 171.688C179.482 171.678 179.513 171.661 179.554 171.64C179.635 171.596 179.757 171.531 179.917 171.445C180.239 171.272 180.717 171.013 181.341 170.674C182.588 169.996 184.416 168.993 186.741 167.697C191.391 165.106 198.025 161.341 205.958 156.649C221.826 147.263 242.883 134.174 263.655 119.355C284.435 104.529 304.889 87.9989 319.577 71.7362C326.921 63.6051 332.795 55.571 336.553 47.8791C340.311 40.1856 341.92 32.8999 340.84 26.225L342.815 25.9063Z" fill="url(#paint1_linear_1318_7383)"/>
<path d="M-124 97.8926C-103.089 67.9232 -91.0818 27.7315 -84.3071 -5.04395C-80.9226 -21.418 -78.8494 -35.9136 -77.6226 -46.3145C-77.0092 -51.5143 -76.6071 -55.6898 -76.3589 -58.5635C-76.2348 -60 -76.1489 -61.1112 -76.0942 -61.8623C-76.0669 -62.2378 -76.0474 -62.5237 -76.0347 -62.7148C-76.0284 -62.81 -76.024 -62.8819 -76.021 -62.9297C-76.0195 -62.9533 -76.0178 -62.9716 -76.0171 -62.9834C-76.0167 -62.9892 -76.0163 -62.9942 -76.0161 -62.9971C-76.016 -62.9982 -76.0161 -62.9993 -76.0161 -63C-76.0103 -63.0001 -75.9368 -62.9959 -75.0181 -62.9404C-74.0664 -62.883 -74.022 -62.8799 -74.02 -62.8789C-74.0201 -62.8781 -74.0199 -62.8765 -74.02 -62.875C-74.0202 -62.8717 -74.0206 -62.8666 -74.021 -62.8604C-74.0218 -62.8476 -74.0233 -62.8285 -74.0249 -62.8037C-74.0281 -62.7539 -74.0321 -62.6796 -74.0386 -62.582C-74.0515 -62.3869 -74.0715 -62.0972 -74.0991 -61.7178C-74.1544 -60.9581 -74.2418 -59.8375 -74.3667 -58.3916C-74.6166 -55.4993 -75.0202 -51.3026 -75.6362 -46.0801C-76.8683 -35.6355 -78.9494 -21.0812 -82.3481 -4.63867C-89.14 28.2195 -101.213 68.7312 -122.359 99.0371L-124 97.8926ZM-117.902 99.3105L-118.736 98.7598C-99.0147 68.8756 -84.8058 29.4553 -75.5229 -2.54883C-70.8846 -18.5405 -67.4816 -32.6606 -65.2388 -42.7812C-64.1175 -47.8411 -63.2865 -51.901 -62.7358 -54.6943C-62.4606 -56.0908 -62.2549 -57.1712 -62.1187 -57.9014C-62.0506 -58.2659 -62.0001 -58.5436 -61.9663 -58.7295C-61.9495 -58.8223 -61.9366 -58.8928 -61.9282 -58.9395C-61.9241 -58.9623 -61.9205 -58.9797 -61.9185 -58.9912C-61.9175 -58.9968 -61.917 -59.002 -61.9165 -59.0049C-61.9163 -59.0059 -61.9158 -59.0072 -61.9155 -59.0078C-61.9101 -59.0074 -61.8399 -58.9948 -60.9312 -58.834C-59.9465 -58.6598 -59.9466 -58.6591 -59.9468 -58.6582C-59.947 -58.6575 -59.9476 -58.6563 -59.9478 -58.6553C-59.9483 -58.6521 -59.9487 -58.6466 -59.9497 -58.6406L-59.9985 -58.3721C-60.0329 -58.1831 -60.0842 -57.9021 -60.1528 -57.5342C-60.2902 -56.7977 -60.4963 -55.7109 -60.7729 -54.3076C-61.3264 -51.5005 -62.1616 -47.4251 -63.2866 -42.3486C-65.5366 -32.1958 -68.9493 -18.0334 -73.6021 -1.99219C-82.9017 30.07 -97.1776 69.7224 -117.067 99.8613L-117.902 99.3105ZM-112.623 100.16L-113.471 99.6318C-94.9415 69.8329 -78.5246 31.1851 -66.7319 -0.0478516C-60.8383 -15.6571 -56.1042 -29.4012 -52.8442 -39.2422C-51.2144 -44.1624 -49.9528 -48.1071 -49.0991 -50.8203C-48.6723 -52.1768 -48.3474 -53.2263 -48.1294 -53.9355C-48.0205 -54.2898 -47.9383 -54.5595 -47.8833 -54.7402C-47.8559 -54.8304 -47.8355 -54.8989 -47.8218 -54.9443L-47.8022 -55.0078C-47.8019 -55.0088 -47.8015 -55.0101 -47.8013 -55.0107C-47.8011 -55.0114 -47.8007 -55.0117 -46.8433 -54.7236C-45.8858 -54.4356 -45.886 -54.4354 -45.8862 -54.4346C-45.8864 -54.4339 -45.8869 -54.4328 -45.8872 -54.4316C-45.8881 -54.4286 -45.8894 -54.4237 -45.8911 -54.418C-45.8947 -54.4062 -45.8998 -54.3883 -45.9067 -54.3652C-45.9208 -54.3188 -45.9425 -54.2494 -45.9702 -54.1582C-46.0258 -53.9755 -46.1088 -53.7038 -46.2183 -53.3477C-46.4375 -52.6344 -46.7637 -51.5806 -47.1919 -50.2197C-48.0483 -47.4978 -49.3126 -43.5436 -50.9458 -38.6133C-54.2124 -28.7522 -58.9556 -14.9819 -64.8608 0.658203C-76.6664 31.9253 -93.138 70.7204 -111.773 100.688L-112.623 100.16ZM-108.208 100.502C-90.8744 70.784 -72.2417 32.9109 -57.937 2.45117C-50.7863 -12.7752 -44.7197 -26.1433 -40.4409 -35.7041C-38.3016 -40.4843 -36.609 -44.3133 -35.4517 -46.9463C-34.8731 -48.2625 -34.4286 -49.2805 -34.1284 -49.9688C-33.9784 -50.3127 -33.8639 -50.5743 -33.7876 -50.75C-33.7496 -50.8375 -33.7209 -50.9039 -33.7017 -50.9482C-33.6921 -50.9703 -33.685 -50.9879 -33.6802 -50.999C-33.678 -51.004 -33.6764 -51.0081 -33.6753 -51.0107C-33.6748 -51.0118 -33.6737 -51.013 -33.6733 -51.0137C-33.673 -51.0143 -33.6729 -51.0154 -32.7554 -50.6182C-31.902 -50.2487 -31.8423 -50.2222 -31.8384 -50.2197C-31.8386 -50.2189 -31.8388 -50.2171 -31.8394 -50.2158C-31.8406 -50.213 -31.8429 -50.2085 -31.8452 -50.2031C-31.8501 -50.1919 -31.8572 -50.1751 -31.8667 -50.1533C-31.8861 -50.1086 -31.9153 -50.0412 -31.9536 -49.9531C-32.0303 -49.7766 -32.1451 -49.5137 -32.2954 -49.1689C-32.5963 -48.479 -33.0413 -47.4595 -33.6206 -46.1416C-34.7795 -43.505 -36.4745 -39.6723 -38.6157 -34.8877C-42.8983 -25.3184 -48.9695 -11.9389 -56.1265 3.30078C-70.4375 33.7739 -89.0997 71.7127 -106.479 101.51L-108.208 100.502ZM-102.064 101.852L-102.943 101.373C-86.8053 71.7338 -65.9526 34.637 -49.1362 4.95312C-40.7277 -9.88934 -33.3268 -22.8794 -28.0288 -32.1592C-25.3798 -36.799 -23.2567 -40.5121 -21.7954 -43.0645C-21.0649 -44.3405 -20.4991 -45.327 -20.1167 -45.9941C-19.9257 -46.3274 -19.7798 -46.5816 -19.6821 -46.752C-19.6334 -46.8369 -19.5965 -46.9013 -19.5718 -46.9443C-19.5595 -46.9657 -19.5506 -46.9823 -19.5444 -46.9932C-19.5415 -46.9982 -19.5392 -47.0022 -19.5376 -47.0049C-19.537 -47.0059 -19.5361 -47.0071 -19.5356 -47.0078C-19.5316 -47.0063 -19.476 -46.9757 -18.6675 -46.5117C-17.8098 -46.0195 -17.8 -46.0134 -17.8003 -46.0127C-17.8007 -46.012 -17.8015 -46.011 -17.8022 -46.0098C-17.8038 -46.0071 -17.8062 -46.0031 -17.8091 -45.998C-17.8153 -45.9872 -17.8251 -45.9706 -17.8374 -45.9492C-17.8621 -45.9062 -17.899 -45.8419 -17.9478 -45.7568C-18.0454 -45.5865 -18.1912 -45.3324 -18.3823 -44.999C-18.7646 -44.3321 -19.3297 -43.346 -20.0601 -42.0703C-21.521 -39.5186 -23.644 -35.8069 -26.2925 -31.168C-31.5896 -21.8896 -38.9888 -8.90073 -47.396 5.93945C-64.2112 35.6213 -85.0569 72.7064 -101.186 102.33L-102.064 101.852ZM-96.7915 102.701L-97.6841 102.25C-82.7446 72.6872 -59.6647 36.3703 -40.3374 7.4668C-30.6705 -6.98976 -21.9364 -19.6013 -15.6187 -28.5986C-12.4599 -33.0972 -9.90465 -36.6929 -8.13916 -39.1641C-7.25656 -40.3995 -6.5708 -41.3542 -6.10596 -42C-5.87358 -42.3228 -5.69592 -42.5693 -5.57666 -42.7344C-5.5172 -42.8167 -5.47211 -42.8791 -5.44189 -42.9209C-5.42693 -42.9416 -5.41536 -42.9572 -5.40771 -42.9678C-5.40395 -42.973 -5.40086 -42.9778 -5.39893 -42.9805C-5.39815 -42.9816 -5.39742 -42.9828 -5.39697 -42.9834C-5.39435 -42.9824 -5.35304 -42.953 -4.58643 -42.3975C-3.79134 -41.8213 -3.77667 -41.8103 -3.77686 -41.8096C-3.77739 -41.8089 -3.7789 -41.8079 -3.77979 -41.8066C-3.78163 -41.8041 -3.78403 -41.7999 -3.7876 -41.7949C-3.79507 -41.7846 -3.80695 -41.7695 -3.82178 -41.749C-3.85168 -41.7077 -3.89641 -41.6454 -3.95557 -41.5635C-4.0742 -41.3992 -4.25119 -41.154 -4.48291 -40.832C-4.94641 -40.1881 -5.6301 -39.2353 -6.51123 -38.002C-8.27388 -35.5347 -10.8264 -31.9431 -13.9819 -27.4492C-20.2931 -18.4612 -29.0187 -5.86208 -38.6753 8.5791C-57.9954 37.4718 -81.0185 73.7043 -95.8999 103.152L-96.7915 102.701ZM-91.5132 103.547L-92.4194 103.125C-78.6841 73.636 -53.37 38.1002 -31.5327 9.97949C-20.6065 -4.09059 -10.5359 -16.3219 -3.19775 -25.0361C0.471375 -29.3933 3.45796 -32.8722 5.52783 -35.2617C6.56256 -36.4562 7.36826 -37.3787 7.91553 -38.0029C8.18912 -38.315 8.39877 -38.5522 8.53955 -38.7119C8.60977 -38.7915 8.66293 -38.8521 8.69873 -38.8926C8.71661 -38.9128 8.73067 -38.9282 8.73975 -38.9385C8.74416 -38.9435 8.74721 -38.9476 8.74951 -38.9502C8.75064 -38.9515 8.75185 -38.9525 8.75244 -38.9531C8.75827 -38.949 8.81917 -38.8958 9.50146 -38.291C10.2305 -37.6448 10.2495 -37.6279 10.2495 -37.627C10.2489 -37.6263 10.2477 -37.6252 10.2466 -37.624C10.2444 -37.6216 10.2411 -37.6181 10.2368 -37.6133C10.228 -37.6033 10.2144 -37.5882 10.1968 -37.5684C10.1616 -37.5285 10.1092 -37.4686 10.0396 -37.3896C9.89998 -37.2313 9.69182 -36.9953 9.41943 -36.6846C8.87465 -36.0632 8.07162 -35.1436 7.03955 -33.9521C4.9751 -31.5689 1.99413 -28.0974 -1.66846 -23.748C-8.99408 -15.0488 -19.0464 -2.83743 -29.9526 11.207C-51.7802 39.3153 -76.9726 74.699 -90.606 103.969L-91.5132 103.547ZM-87.1548 104.001C-74.6235 74.5835 -47.0672 39.8331 -22.7241 12.499C-10.5394 -1.18278 0.86525 -13.0339 9.22314 -21.4639C13.402 -25.6787 16.8208 -29.0392 19.1948 -31.3467C20.3816 -32.5002 21.3083 -33.3917 21.938 -33.9941C22.2524 -34.2949 22.4936 -34.5247 22.6558 -34.6787C22.7363 -34.7552 22.7981 -34.8135 22.8394 -34.8525C22.8597 -34.8718 22.8757 -34.8875 22.8862 -34.8975C22.891 -34.902 22.8953 -34.9057 22.8979 -34.9082C22.8989 -34.9091 22.9002 -34.9105 22.9009 -34.9111C22.9016 -34.9118 22.9023 -34.912 23.5884 -34.1846C24.2323 -33.5018 24.272 -33.4601 24.2739 -33.457C24.2733 -33.4564 24.2719 -33.455 24.271 -33.4541C24.2685 -33.4518 24.264 -33.4478 24.2593 -33.4434C24.2492 -33.4339 24.2341 -33.4191 24.2144 -33.4004C24.1739 -33.3621 24.1126 -33.3044 24.0327 -33.2285C23.8722 -33.076 23.6326 -32.8481 23.3198 -32.5488C22.6937 -31.9498 21.7711 -31.0627 20.5884 -29.9131C18.2222 -27.6132 14.8124 -24.2609 10.6431 -20.0557C2.30341 -11.6441 -9.07478 0.180473 -21.23 13.8291C-45.5674 41.1568 -72.9235 75.6951 -85.3149 104.784L-87.1548 104.001ZM-80.9556 105.242L-81.8892 104.882C-70.5652 75.5351 -40.7586 41.5729 -13.9136 15.0283C-0.470474 1.73572 12.2679 -9.73289 21.645 -17.8779C26.3338 -21.9507 30.1837 -25.1938 32.8618 -27.4189C34.2006 -28.5313 35.2475 -29.3893 35.9595 -29.9697C36.3152 -30.2598 36.5873 -30.4814 36.771 -30.6299C36.8626 -30.7039 36.9332 -30.7602 36.98 -30.7979C37.0029 -30.8163 37.0209 -30.8303 37.0327 -30.8398C37.0385 -30.8445 37.0433 -30.8491 37.0464 -30.8516C37.0474 -30.8523 37.0486 -30.853 37.0493 -30.8535C37.0501 -30.8542 37.0509 -30.8545 37.6763 -30.0742C38.2519 -29.356 38.2972 -29.2989 38.3003 -29.2939C38.2996 -29.2933 38.2985 -29.2919 38.2974 -29.291C38.2946 -29.2888 38.29 -29.2855 38.2847 -29.2812C38.2733 -29.2721 38.2565 -29.2575 38.2339 -29.2393C38.1882 -29.2025 38.1192 -29.1473 38.0288 -29.0742C37.8473 -28.9275 37.5766 -28.7081 37.2231 -28.4199C36.5157 -27.8431 35.474 -26.9882 34.1401 -25.8799C31.472 -23.663 27.6331 -20.4302 22.9565 -16.3682C13.6024 -8.2431 0.897537 3.19636 -12.5073 16.4512C-39.3589 43.0022 -68.8699 76.6987 -80.0229 105.603L-80.9556 105.242ZM-76.6284 105.762C-71.5621 91.088 -61.0005 75.4717 -48.0835 60.3369C-35.1554 45.1894 -19.8129 30.4602 -5.11377 17.5605C9.58772 4.65881 23.6615 -6.42625 34.0581 -14.2852C39.2564 -18.2146 43.5371 -21.3392 46.519 -23.4814C48.0098 -24.5524 49.1769 -25.3781 49.9712 -25.9365C50.368 -26.2155 50.6724 -26.4285 50.8774 -26.5713C50.9795 -26.6423 51.0576 -26.6962 51.1099 -26.7324C51.1357 -26.7503 51.1561 -26.7642 51.1694 -26.7734C51.1757 -26.7778 51.1807 -26.7818 51.1841 -26.7842C51.1855 -26.7852 51.1871 -26.7865 51.188 -26.7871C51.1889 -26.7877 51.1918 -26.7851 51.7573 -25.9648C52.287 -25.1965 52.322 -25.1445 52.3237 -25.1406C52.3231 -25.14 52.322 -25.1385 52.3208 -25.1377C52.3176 -25.1355 52.3122 -25.1321 52.3062 -25.1279C52.2934 -25.1192 52.2736 -25.1063 52.2485 -25.0889C52.1975 -25.0535 52.1209 -24.9999 52.02 -24.9297C51.8175 -24.7887 51.5156 -24.5778 51.1216 -24.3008C50.3326 -23.7461 49.1709 -22.9241 47.686 -21.8574C44.7156 -19.7234 40.4481 -16.6081 35.2642 -12.6895C24.8945 -4.85092 10.8607 6.20239 -3.79443 19.0635C-18.452 31.9267 -33.718 46.5866 -46.562 61.6357C-59.417 76.6978 -69.7917 92.0887 -74.7378 106.414L-76.6284 105.762ZM-70.4048 106.934L-71.3608 106.643C-66.9007 91.991 -56.0669 76.5891 -42.4351 61.7705C-28.7877 46.9352 -12.2598 32.6036 3.6958 20.0957C19.6545 7.58538 35.0602 -3.11588 46.4751 -10.6885C52.1828 -14.4749 56.8946 -17.4806 60.1802 -19.54C61.8227 -20.5695 63.1095 -21.3632 63.9858 -21.8994C64.4238 -22.1674 64.7604 -22.3708 64.9868 -22.5078C65.0998 -22.5762 65.1859 -22.6283 65.2437 -22.6631C65.2722 -22.6803 65.2944 -22.6933 65.3091 -22.7021C65.3162 -22.7064 65.3219 -22.7106 65.3257 -22.7129C65.3271 -22.7137 65.3287 -22.7144 65.3296 -22.7148C65.3306 -22.7155 65.3317 -22.7162 65.8452 -21.8584C66.3587 -21.0006 66.3587 -20.9995 66.3579 -20.999C66.357 -20.9986 66.3555 -20.9979 66.354 -20.9971C66.3506 -20.995 66.3452 -20.9914 66.3384 -20.9873C66.3243 -20.9789 66.3028 -20.966 66.2749 -20.9492C66.2185 -20.9153 66.1335 -20.8644 66.022 -20.7969C65.7983 -20.6615 65.4648 -20.4595 65.0298 -20.1934C64.1592 -19.6607 62.8787 -18.8712 61.2427 -17.8457C57.9698 -15.7943 53.2723 -12.7974 47.5806 -9.02148C36.1955 -1.46864 20.8348 9.2012 4.9292 21.6699C-10.9798 34.1413 -27.4162 48.3986 -40.9634 63.125C-54.526 77.8683 -65.1185 93.0031 -69.4478 107.225L-70.4048 106.934ZM-66.0923 107.528C-62.241 92.8966 -51.1316 77.7104 -36.7866 63.21C-22.4204 48.6881 -4.70815 34.7553 12.5034 22.6396C29.7191 10.5212 46.4573 0.204041 58.8901 -7.08203C65.107 -10.7253 70.2494 -13.6115 73.8384 -15.5879C75.6328 -16.5761 77.0392 -17.3376 77.9976 -17.8516C78.4763 -18.1083 78.8436 -18.3033 79.0913 -18.4346C79.2149 -18.5 79.3093 -18.5497 79.3726 -18.583C79.4041 -18.5996 79.4287 -18.6126 79.4448 -18.6211C79.4525 -18.6251 79.4584 -18.6287 79.4624 -18.6309C79.4643 -18.6318 79.4662 -18.6323 79.4673 -18.6328C79.4684 -18.6334 79.4692 -18.6339 79.9331 -17.748C80.3871 -16.8812 80.3966 -16.8622 80.396 -16.8613C80.395 -16.8609 80.3929 -16.8603 80.3911 -16.8594C80.3874 -16.8574 80.3818 -16.8544 80.3745 -16.8506C80.3591 -16.8425 80.3359 -16.8297 80.3052 -16.8135C80.2434 -16.7809 80.1502 -16.7318 80.0278 -16.667C79.783 -16.5373 79.4186 -16.344 78.9429 -16.0889C77.9906 -15.5782 76.5908 -14.8203 74.8032 -13.8359C71.2279 -11.8671 66.1013 -8.98956 59.9019 -5.35645C47.5009 1.91095 30.8118 12.1972 13.6548 24.2744C-3.5065 36.3547 -21.1139 50.212 -35.3647 64.6172C-49.6365 79.0437 -60.4434 93.9228 -64.1587 108.038L-66.0923 107.528ZM-60.8228 108.413C-57.5853 93.7987 -46.1963 78.8272 -31.1401 64.6465C-16.0559 50.4395 2.84021 36.9063 21.3071 25.1836C39.7793 13.4576 57.8505 3.5257 71.3013 -3.47363C78.0274 -6.97366 83.6004 -9.74147 87.4927 -11.6348C89.4387 -12.5814 90.9651 -13.31 92.0054 -13.8018C92.5253 -14.0475 92.9239 -14.2339 93.1929 -14.3594C93.3274 -14.4221 93.4299 -14.4701 93.4985 -14.502C93.5326 -14.5177 93.5583 -14.5301 93.5757 -14.5381C93.5842 -14.542 93.5908 -14.5448 93.5952 -14.5469C93.5974 -14.5479 93.6 -14.5483 93.6011 -14.5488C93.6054 -14.542 93.642 -14.4644 94.021 -13.6416C94.4374 -12.7376 94.4389 -12.7329 94.438 -12.7324C94.437 -12.7319 94.4351 -12.7314 94.4331 -12.7305C94.429 -12.7286 94.4227 -12.7254 94.4146 -12.7217C94.3979 -12.714 94.3726 -12.7029 94.3394 -12.6875C94.2722 -12.6564 94.1715 -12.6089 94.0386 -12.5469C93.7726 -12.4228 93.3768 -12.2375 92.8599 -11.9932C91.8258 -11.5044 90.3058 -10.7801 88.3667 -9.83691C84.4884 -7.95042 78.9322 -5.18989 72.2241 -1.69922C58.8062 5.283 40.7879 15.1858 22.3784 26.8721C3.96396 38.5615 -14.8145 52.0176 -29.769 66.1025C-44.7516 80.2139 -55.7666 94.838 -58.8696 108.845L-60.8228 108.413ZM-54.5669 109.474L-55.5513 109.297C-52.9292 94.6991 -41.2566 79.9451 -25.4917 66.0869C-9.68991 52.1964 10.3895 39.0627 30.1108 27.7334C49.8383 16.4006 69.2416 6.85404 83.7095 0.141602C90.9439 -3.21485 96.9468 -5.86465 101.142 -7.6748C103.239 -8.57976 104.886 -9.27469 106.008 -9.74414C106.569 -9.97869 106.999 -10.1577 107.29 -10.2773C107.434 -10.3371 107.546 -10.3818 107.62 -10.4121C107.656 -10.4272 107.685 -10.4396 107.704 -10.4473C107.712 -10.4509 107.719 -10.4542 107.724 -10.4561C107.726 -10.4569 107.729 -10.4576 107.73 -10.458C107.732 -10.4569 107.748 -10.4199 108.109 -9.53223C108.459 -8.67121 108.483 -8.61008 108.484 -8.60547C108.483 -8.60506 108.481 -8.60424 108.479 -8.60352C108.475 -8.60175 108.468 -8.59823 108.459 -8.59473C108.441 -8.58737 108.413 -8.57627 108.377 -8.56152C108.305 -8.53184 108.196 -8.48782 108.052 -8.42871C107.765 -8.31031 107.338 -8.13261 106.781 -7.89941C105.665 -7.43265 104.025 -6.73977 101.935 -5.83789C97.754 -4.03387 91.7673 -1.39187 84.5513 1.95605C70.1169 8.65297 50.7687 18.1727 31.1069 29.4678C11.439 40.7664 -8.51204 53.8236 -24.1714 67.5889C-39.8672 81.3863 -51.0877 95.7554 -53.5835 109.65L-54.5669 109.474ZM-49.2954 110.324L-50.2866 110.188C-48.2843 95.603 -36.321 81.0654 -19.8491 67.5303C-3.32988 53.9564 17.9326 41.2239 38.9087 30.2881C59.8921 19.3485 80.6273 10.1871 96.1128 3.76172C103.856 0.548775 110.29 -1.98198 114.789 -3.70898C117.037 -4.57228 118.803 -5.23446 120.007 -5.68164C120.609 -5.90513 121.071 -6.07552 121.382 -6.18945C121.538 -6.24632 121.656 -6.28951 121.736 -6.31836C121.775 -6.33263 121.806 -6.34329 121.826 -6.35059C121.836 -6.35414 121.844 -6.35749 121.849 -6.35938C121.851 -6.36014 121.854 -6.36089 121.855 -6.36133C121.857 -6.35822 121.878 -6.30206 122.196 -5.4209C122.528 -4.49897 122.535 -4.48022 122.534 -4.47949C122.532 -4.47906 122.53 -4.47832 122.528 -4.47754C122.523 -4.47581 122.516 -4.47308 122.506 -4.46973C122.487 -4.4627 122.457 -4.45251 122.418 -4.43848C122.341 -4.41019 122.224 -4.36775 122.07 -4.31152C121.761 -4.19871 121.302 -4.02991 120.704 -3.80762C119.506 -3.36281 117.747 -2.70235 115.505 -1.8418C111.021 -0.120247 104.603 2.40315 96.8784 5.6084C81.4265 12.0199 60.7488 21.1574 39.8335 32.0615C18.9106 42.9696 -2.2142 55.6278 -18.5796 69.0752C-34.9917 82.5612 -46.4129 96.6767 -48.3052 110.46L-49.2954 110.324ZM-44.0171 111.169L-45.0122 111.075C-43.635 96.502 -31.378 82.1817 -14.2026 68.9717C3.03258 55.7157 25.4766 43.3846 47.7065 32.8418C69.9448 22.2951 92.0105 13.5188 108.513 7.37988C116.765 4.3101 123.63 1.89893 128.431 0.254883C130.832 -0.567131 132.717 -1.19804 134.003 -1.62305C134.646 -1.83549 135.139 -1.99632 135.472 -2.10449C135.638 -2.15857 135.765 -2.1992 135.85 -2.22656C135.892 -2.2402 135.924 -2.2509 135.946 -2.25781C135.956 -2.26125 135.965 -2.26386 135.97 -2.26562C135.973 -2.26649 135.976 -2.26714 135.977 -2.26758C135.979 -2.26456 135.998 -2.20895 136.284 -1.31641C136.565 -0.436424 136.586 -0.368713 136.586 -0.363281C136.585 -0.3629 136.584 -0.362022 136.582 -0.361328C136.576 -0.359695 136.568 -0.356812 136.558 -0.353516C136.537 -0.346825 136.505 -0.336685 136.463 -0.323242C136.38 -0.296349 136.255 -0.255638 136.09 -0.202148C135.761 -0.0949554 135.271 0.0650406 134.631 0.276367C133.352 0.699257 131.473 1.32697 129.08 2.14648C124.292 3.7857 117.444 6.19099 109.21 9.25391C92.7409 15.3805 70.7322 24.1354 48.563 34.6494C26.3853 45.1674 4.08734 57.4277 -12.9839 70.5576C-30.1145 83.7333 -41.7292 97.5952 -43.021 111.263L-44.0171 111.169ZM-39.7368 111.963C-39.3611 104.66 -36.014 97.4883 -30.5688 90.5605C-25.1222 83.6309 -17.5303 76.8857 -8.55518 70.417C9.39485 57.48 33.0183 45.5506 56.5005 35.4014C79.9922 25.248 103.388 16.8571 120.907 11.0049C129.667 8.07851 136.961 5.78561 142.065 4.22461C144.617 3.44412 146.623 2.84711 147.991 2.44434C148.674 2.24305 149.198 2.0897 149.552 1.9873C149.729 1.9362 149.863 1.89796 149.954 1.87207C149.999 1.85915 150.033 1.84932 150.056 1.84277C150.067 1.8396 150.076 1.83663 150.082 1.83496C150.084 1.83419 150.087 1.83343 150.088 1.83301C150.09 1.83257 150.091 1.83298 150.365 2.79395C150.619 3.68814 150.636 3.75204 150.636 3.75684C150.635 3.75724 150.633 3.75809 150.63 3.75879C150.625 3.76034 150.617 3.76257 150.606 3.76562C150.584 3.77197 150.55 3.78123 150.505 3.79395C150.417 3.8194 150.284 3.85755 150.109 3.9082C149.758 4.00977 149.236 4.16186 148.555 4.3623C147.194 4.76326 145.195 5.35938 142.65 6.1377C137.56 7.69444 130.282 9.98118 121.541 12.9014C104.054 18.7426 80.7165 27.1141 57.2944 37.2373C33.8626 47.3648 10.3914 59.2272 -7.38623 72.04C-16.2748 78.4463 -23.7065 85.0664 -28.9966 91.7969C-34.2877 98.5287 -37.3914 105.314 -37.7388 112.066L-39.7368 111.963Z" fill="url(#paint2_linear_1318_7383)"/>
</g>
<defs>
<linearGradient id="paint0_linear_1318_7383" x1="278.5" y1="-48" x2="123" y2="254.5" gradientUnits="userSpaceOnUse">
<stop stop-color="#2436DE"/>
<stop offset="1" stop-color="#85D6E8"/>
</linearGradient>
<linearGradient id="paint1_linear_1318_7383" x1="373.095" y1="22.7375" x2="335.845" y2="193.049" gradientUnits="userSpaceOnUse">
<stop stop-color="white" stop-opacity="0.39"/>
<stop offset="1" stop-color="white" stop-opacity="0"/>
</linearGradient>
<linearGradient id="paint2_linear_1318_7383" x1="-70.0064" y1="108.698" x2="2.20293" y2="-49.9822" gradientUnits="userSpaceOnUse">
<stop stop-color="white" stop-opacity="0.17"/>
<stop offset="1" stop-color="white" stop-opacity="0"/>
</linearGradient>
<clipPath id="clip0_1318_7383">
<rect y="-13" width="336" height="200" rx="12" fill="white"/>
</clipPath>
</defs>
</svg>
