<svg width="38" height="38" viewBox="0 0 38 38" fill="none" xmlns="http://www.w3.org/2000/svg">
<path d="M35.8861 20.1489C35.4997 19.4081 34.8456 18.8605 34.0435 18.6082C33.2415 18.3559 32.392 18.4295 31.6511 18.8152L23.1243 23.2588C23.1469 23.1283 23.1622 22.9956 23.1673 22.8607C23.2037 22.0258 22.9106 21.2251 22.3419 20.6053C21.7739 19.9856 21.0009 19.6246 20.166 19.5889L12.7103 19.2666C12.1671 19.2433 11.6909 19.349 11.209 19.5998L6.22948 22.1949L5.67531 21.1318C5.38948 20.5835 4.71135 20.3698 4.16302 20.6557L1.69625 21.9412C1.14792 22.227 0.93427 22.9051 1.2201 23.4535L6.87625 34.3078C7.01406 34.5725 7.24812 34.7687 7.53396 34.8584C7.64552 34.8934 7.76 34.9109 7.87302 34.9109C8.05094 34.9109 8.22667 34.8686 8.38854 34.784L10.8553 33.4985C11.12 33.3607 11.3161 33.1266 11.4058 32.8408C11.4962 32.5549 11.4693 32.2509 11.3315 31.9862L10.7773 30.923L11.2943 30.6533C11.5057 30.5432 11.7405 30.5628 12.073 30.6343L17.5906 31.8185C18.0434 31.9154 18.5334 32.0051 19.0402 32.0051C19.5652 32.0051 20.1099 31.9089 20.6509 31.6274L34.5518 24.3832C35.2926 23.9974 35.8402 23.3426 36.0925 22.5413C36.3448 21.7399 36.2726 20.8897 35.8861 20.1489ZM10.5717 32.5783C10.552 32.6417 10.509 32.6927 10.4514 32.7226L7.98458 34.0082C7.92698 34.038 7.85989 34.0439 7.79719 34.0235C7.73375 34.0038 7.68271 33.9608 7.65281 33.9032L1.99667 23.0502C1.93469 22.9321 1.98281 22.7797 2.10094 22.7177L4.56771 21.4322C4.60271 21.414 4.64135 21.4052 4.67927 21.4052C4.76896 21.4052 4.85719 21.4534 4.90021 21.5365L10.5564 32.3909C10.5862 32.4485 10.5921 32.5155 10.5717 32.5783ZM35.2591 22.2788C35.0768 22.8577 34.6823 23.3295 34.1485 23.6081L20.2477 30.8516C19.52 31.2308 18.7624 31.1753 17.7751 30.9639L12.2575 29.7797C11.8244 29.6864 11.3584 29.6346 10.8903 29.8782L10.3733 30.1479L6.63344 22.9715L11.6129 20.3764C11.9578 20.197 12.2837 20.1241 12.6724 20.1409L20.1281 20.4632C20.7297 20.4894 21.2868 20.7497 21.6966 21.1974C22.1071 21.6444 22.3185 22.2219 22.2923 22.8235C22.266 23.425 22.0057 23.9821 21.558 24.3919C21.1103 24.8024 20.5321 25.0132 19.932 24.9876L14.9146 24.7711C14.674 24.7609 14.4691 24.9475 14.4589 25.1896C14.4486 25.431 14.6353 25.6351 14.8774 25.6453L19.8948 25.8619C19.9407 25.8641 19.9867 25.8648 20.0326 25.8648C20.8172 25.8648 21.5646 25.5739 22.1501 25.0365C22.3273 24.8739 22.4826 24.6938 22.616 24.5013L22.6197 24.5078L32.0551 19.5911C32.5889 19.3133 33.2014 19.26 33.7803 19.4423C34.3593 19.6246 34.831 20.0191 35.1096 20.5528C35.3881 21.0866 35.4414 21.6998 35.2591 22.2788ZM21.9926 9.28577C21.9926 8.97733 21.6995 8.81618 21.0308 8.5216C20.9594 8.49025 20.8865 8.45816 20.8143 8.42535C20.7443 8.394 20.675 8.36337 20.6057 8.33275C19.9444 8.04181 19.1211 7.67941 19.1211 6.76723C19.1211 5.96806 19.7344 5.2965 20.5569 5.11785V4.22389C20.5569 3.98254 20.753 3.78639 20.9944 3.78639C21.2357 3.78639 21.4319 3.98254 21.4319 4.22389V5.11785C22.2544 5.2965 22.8676 5.96806 22.8676 6.76723C22.8676 7.00858 22.6715 7.20473 22.4301 7.20473C22.1887 7.20473 21.9926 7.00858 21.9926 6.76723C21.9926 6.31441 21.5449 5.94545 20.9944 5.94545C20.4439 5.94545 19.9961 6.31368 19.9961 6.76723C19.9961 7.07566 20.2893 7.23754 20.9579 7.53139C21.0294 7.56275 21.1023 7.59483 21.1745 7.62764C21.2445 7.659 21.3137 7.68962 21.383 7.72025C22.0444 8.01118 22.8676 8.37358 22.8676 9.28577C22.8676 10.0849 22.2544 10.7565 21.4319 10.9351V11.8291C21.4319 12.0705 21.2357 12.2666 20.9944 12.2666C20.753 12.2666 20.5569 12.0705 20.5569 11.8291V10.9351C19.7344 10.7565 19.1211 10.0849 19.1211 9.28577C19.1211 9.04441 19.3173 8.84827 19.5586 8.84827C19.8 8.84827 19.9961 9.04441 19.9961 9.28577C19.9961 9.73858 20.4439 10.1075 20.9944 10.1075C21.5449 10.1075 21.9926 9.73931 21.9926 9.28577ZM20.9944 13.6301C25.4693 13.6301 29.7225 11.6927 32.664 8.31379C32.8076 8.149 32.8076 7.904 32.664 7.7392C29.7232 4.36098 25.4693 2.42285 20.9944 2.42285C16.5195 2.42285 12.2655 4.36025 9.32479 7.7392C9.18114 7.904 9.18114 8.149 9.32479 8.31379C12.2662 11.6927 16.5195 13.6301 20.9944 13.6301ZM20.9944 3.42035C23.5348 3.42035 25.6012 5.48681 25.6012 8.02722C25.6012 10.5676 23.5348 12.6341 20.9944 12.6341C18.454 12.6341 16.3875 10.5676 16.3875 8.02722C16.3875 5.48681 18.4547 3.42035 20.9944 3.42035ZM31.7474 8.02722C29.7517 10.2016 27.1639 11.7015 24.3376 12.3672C25.637 11.3639 26.4762 9.79254 26.4762 8.02722C26.4762 6.26264 25.637 4.69056 24.3376 3.68723C27.1639 4.35223 29.7517 5.85285 31.7474 8.02722ZM17.6511 3.68723C16.3518 4.69056 15.5125 6.26191 15.5125 8.02722C15.5125 9.79181 16.3518 11.3639 17.6511 12.3672C14.8249 11.7015 12.2371 10.2016 10.2414 8.02722C12.2378 5.85285 14.8256 4.35223 17.6511 3.68723Z" fill="#0075FF"/>
</svg>
