<svg width="38" height="38" viewBox="0 0 38 38" fill="none" xmlns="http://www.w3.org/2000/svg">
<g clip-path="url(#clip0_1537_3650)">
<path d="M37.128 30.583L35.4086 21.9522C35.3553 21.6845 35.2005 21.4534 34.9728 21.3014C34.7451 21.1494 34.4724 21.095 34.2046 21.1483L31.992 21.5891C31.992 21.5891 31.992 21.5891 31.9919 21.5891C31.4602 21.695 31.1078 22.1976 31.1785 22.7278C29.9336 23.106 28.4322 23.1521 26.58 21.6241C26.2253 21.3315 25.8316 21.1413 25.4296 21.0531V1.84134C25.4296 0.866971 24.6368 0.0742188 23.6625 0.0742188H7.39423C6.91536 0.0742188 6.48329 0.253213 6.1447 0.591808L0.700206 6.03645C0.361612 6.37504 0.182617 6.80711 0.182617 7.28598V32.6499C0.182617 33.6243 0.975369 34.4169 1.94974 34.4169H18.819L21.121 36.7189C21.4812 37.079 21.9543 37.2591 22.4274 37.2591C22.9005 37.2591 23.3736 37.079 23.7337 36.7189C23.9036 36.5489 24.0335 36.3537 24.1233 36.1454L24.6298 36.6519C25.3503 37.3722 26.5223 37.3722 27.2426 36.6518C27.4175 36.4769 27.5529 36.2726 27.6443 36.0499C27.9511 36.2637 28.316 36.3788 28.6992 36.3788C29.1937 36.3788 29.6576 36.1871 30.0056 35.8392C30.3399 35.5048 30.5299 35.0634 30.5443 34.5907C30.9982 34.5768 31.4478 34.397 31.7934 34.0514C32.2521 33.5928 32.4274 32.921 32.2792 32.3047L32.9663 31.6176C33.043 31.8025 33.1726 31.9608 33.3433 32.0748C33.5139 32.1887 33.7098 32.2478 33.9101 32.2478C33.977 32.2478 34.0444 32.2412 34.1114 32.2278L36.324 31.787C36.8776 31.6767 37.2383 31.1366 37.128 30.583ZM32.221 22.7329C32.2207 22.733 32.2204 22.7331 32.22 22.7332L32.221 22.7329ZM31.4043 23.8782L32.6754 30.2587L31.6076 31.3264L26.5475 26.1926C26.5401 26.1852 26.5326 26.178 26.5249 26.1709C25.4163 25.1609 24.3915 24.7265 23.7129 24.9798C23.3604 25.1114 23.1318 25.4096 23.0859 25.7982C23.0853 25.8027 23.0849 25.8074 23.0844 25.8119C23.0739 25.9233 23.0641 26.0344 23.0544 26.1448C22.922 27.6499 22.786 28.5432 21.6595 29.0189L20.8964 25.5222C20.8392 25.2605 21.0032 25.0587 21.1508 24.9354L24.1176 22.4583C24.6129 22.0446 25.2881 22.0704 25.8377 22.5238C28.0585 24.356 29.9356 24.3027 31.4043 23.8782ZM6.32056 2.06569V5.72672C6.32056 5.99452 6.1027 6.21238 5.83498 6.21238H2.17401L6.32056 2.06569ZM1.94967 33.2504C1.61851 33.2504 1.34911 32.9811 1.34911 32.6499V7.37887H5.8349C6.74592 7.37887 7.48705 6.63766 7.48705 5.72665V1.24078H23.6625C23.9936 1.24078 24.263 1.51018 24.263 1.84134V21.0863C23.9458 21.177 23.6425 21.3354 23.3699 21.563L22.5286 22.2654H17.8739C17.76 21.9306 17.4765 21.6631 17.1054 21.5891L14.8928 21.1484C14.3396 21.0384 13.7992 21.3986 13.6889 21.9522L13.4464 23.169H3.90264C3.58052 23.169 3.31936 23.4302 3.31936 23.7523C3.31936 24.0744 3.58052 24.3356 3.90264 24.3356H13.2141L12.1622 29.6156C11.9027 29.7828 11.676 29.8631 11.4603 29.8631C11.0462 29.8631 10.9174 29.6572 10.6947 28.6388C10.506 27.7763 10.2207 26.4728 8.75569 26.4728C7.68391 26.4728 7.1214 27.0357 6.6251 27.5323C6.0365 28.1214 5.48049 28.6777 3.90264 28.6777C3.58052 28.6777 3.31936 28.9389 3.31936 29.261C3.31936 29.5831 3.58052 29.8443 3.90264 29.8443C5.96388 29.8443 6.82298 28.9846 7.45023 28.3569C7.93457 27.8724 8.19231 27.6394 8.75561 27.6394C9.19322 27.6394 9.32774 27.8494 9.555 28.8882C9.74158 29.7409 10.0236 31.0297 11.4603 31.0297C11.6313 31.0297 11.7995 31.0093 11.9675 30.9681C12.0415 31.368 12.3509 31.7027 12.7734 31.7869L14.9859 32.2277C15.053 32.2412 15.1205 32.2477 15.1874 32.2477C15.3876 32.2477 15.5836 32.1886 15.7542 32.0746C15.901 31.9766 16.0168 31.8455 16.0953 31.6932L17.6525 33.2503H1.94967V33.2504ZM15.0737 31.0559L13.1414 30.6709L14.4958 23.8725C14.4962 23.8706 14.4966 23.8687 14.497 23.8668L14.805 22.3204L16.7374 22.7053L15.0737 31.0559ZM30.9686 33.2265C30.7031 33.492 30.2711 33.492 30.0056 33.2265L26.2414 29.4623C26.0136 29.2346 25.6443 29.2346 25.4165 29.4623C25.1887 29.6901 25.1888 30.0593 25.4165 30.2872L29.1807 34.0514C29.1811 34.0517 29.1815 34.0521 29.1819 34.0525C29.3088 34.1801 29.3786 34.3506 29.3786 34.5329C29.3786 34.7157 29.3083 34.8867 29.1807 35.0144C29.0531 35.142 28.882 35.2123 28.6992 35.2123C28.5164 35.2123 28.3453 35.142 28.2177 35.0144L24.2402 31.0369C24.0125 30.8091 23.6432 30.8091 23.4154 31.0368C23.1876 31.2646 23.1875 31.6339 23.4154 31.8617L26.417 34.8634C26.4172 34.8636 26.4174 34.8639 26.4177 34.8641L26.4193 34.8656C26.5459 34.9931 26.6155 35.1634 26.6155 35.3455C26.6155 35.5283 26.5453 35.6994 26.4176 35.827C26.152 36.0924 25.7201 36.0924 25.4546 35.827L22.239 32.6114C22.0113 32.3837 21.642 32.3837 21.4142 32.6114C21.1864 32.8392 21.1864 33.2085 21.4142 33.4363L22.9088 34.9309L22.9089 34.931C23.1743 35.1966 23.1741 35.6284 22.9087 35.8938C22.6432 36.1594 22.2113 36.1594 21.9457 35.8938L16.4034 30.3515L17.7819 23.4319H21.1314L20.403 24.04C19.8524 24.4997 19.6168 25.1307 19.7566 25.771L20.6566 29.895C20.6901 30.0487 20.7844 30.1824 20.918 30.2657C21.0516 30.349 21.2132 30.3745 21.366 30.337C23.9117 29.7096 24.0736 27.8701 24.2164 26.247C24.2211 26.1934 24.2258 26.1396 24.2307 26.0857C24.4612 26.1326 24.9753 26.3397 25.7279 27.0229L31.118 32.4915C31.217 32.7416 31.1602 33.0348 30.9686 33.2265ZM34.0236 31.0559L32.3601 22.7053L34.2924 22.3204L35.956 30.6709L34.0236 31.0559ZM3.31936 19.9046C3.31936 19.5825 3.58052 19.3213 3.90264 19.3213H19.3136C19.6357 19.3213 19.8969 19.5825 19.8969 19.9046C19.8969 20.2267 19.6357 20.4879 19.3136 20.4879H3.90264C3.58045 20.4878 3.31936 20.2267 3.31936 19.9046ZM3.31936 12.2091C3.31936 11.887 3.58052 11.6258 3.90264 11.6258H6.27193C6.59404 11.6258 6.85521 11.887 6.85521 12.2091C6.85521 12.5312 6.59404 12.7924 6.27193 12.7924H3.90264C3.58045 12.7924 3.31936 12.5312 3.31936 12.2091ZM3.31936 16.0568C3.31936 15.7347 3.58052 15.4735 3.90264 15.4735H6.27193C6.59404 15.4735 6.85521 15.7347 6.85521 16.0568C6.85521 16.3789 6.59404 16.6401 6.27193 16.6401H3.90264C3.58045 16.6401 3.31936 16.379 3.31936 16.0568ZM15.322 17.7627C19.5048 17.7627 22.9077 14.3597 22.9077 10.1769C22.9077 5.99423 19.5048 2.5913 15.322 2.5913C11.1393 2.5913 7.73633 5.99423 7.73633 10.1769C7.73633 14.3597 11.1393 17.7627 15.322 17.7627ZM15.322 3.75786C18.8615 3.75786 21.7411 6.63745 21.7411 10.1769C21.7411 13.7164 18.8615 16.5961 15.322 16.5961C11.7826 16.5961 8.90289 13.7165 8.90289 10.1769C8.90289 6.63745 11.7826 3.75786 15.322 3.75786ZM15.322 15.6478C18.3386 15.6478 20.7929 13.1935 20.7929 10.1769C20.7929 7.16036 18.3386 4.70613 15.322 4.70613C12.3055 4.70613 9.85123 7.16036 9.85123 10.1769C9.85131 13.1936 12.3055 15.6478 15.322 15.6478ZM15.322 5.87276C17.6954 5.87276 19.6263 7.80364 19.6263 10.177C19.6263 12.5504 17.6954 14.4813 15.322 14.4813C12.9487 14.4813 11.0178 12.5504 11.0178 10.177C11.0179 7.80364 12.9487 5.87276 15.322 5.87276ZM13.6073 9.15926C13.6073 8.43978 14.0843 7.8296 14.7388 7.62844V7.27198C14.7388 6.94987 14.9999 6.6887 15.322 6.6887C15.6442 6.6887 15.9053 6.94987 15.9053 7.27198V7.60372C16.2714 7.69326 16.6006 7.91119 16.8265 8.22346C17.0152 8.48448 16.9567 8.8491 16.6957 9.03787C16.4347 9.22663 16.07 9.16816 15.8813 8.90707C15.7987 8.79296 15.667 8.72479 15.5288 8.72479H15.2084C14.9689 8.72479 14.774 8.91968 14.774 9.15926C14.774 9.39884 14.9689 9.59373 15.2084 9.59373H15.4359C16.3187 9.59373 17.0369 10.312 17.0369 11.1947C17.0369 11.9142 16.5598 12.5244 15.9054 12.7255V13.082C15.9054 13.4041 15.6442 13.6653 15.3221 13.6653C15 13.6653 14.7388 13.4041 14.7388 13.082V12.7503C14.3728 12.6608 14.0436 12.4428 13.8177 12.1306C13.6289 11.8696 13.6875 11.5049 13.9485 11.3162C14.2095 11.1274 14.5741 11.186 14.7629 11.447C14.8454 11.5611 14.9772 11.6292 15.1154 11.6292H15.4359C15.6754 11.6292 15.8703 11.4344 15.8703 11.1948C15.8703 10.9552 15.6754 10.7604 15.4359 10.7604H15.2083C14.3255 10.7603 13.6073 10.0421 13.6073 9.15926Z" fill="#0075FF"/>
</g>
<defs>
<clipPath id="clip0_1537_3650">
<rect width="37.33" height="37.33" fill="white" transform="translate(0 0.00195312)"/>
</clipPath>
</defs>
</svg>
