<svg width="21" height="17" viewBox="0 0 21 17" fill="none" xmlns="http://www.w3.org/2000/svg">
<path d="M10.7713 0.00282944C12.8734 0.00282944 14.9752 0.00254327 17.0772 0.00311561C17.2892 0.00311561 17.2689 -0.0217813 17.2692 0.183117C17.2701 0.740865 17.2724 1.2989 17.2671 1.85665C17.266 1.96854 17.2975 2.00174 17.4143 2.00116C18.4383 1.99687 19.4625 2.00059 20.4865 1.9963C20.6075 1.99573 20.6458 2.01519 20.6207 2.14253C20.4694 2.91863 20.3243 3.69615 20.183 4.47397C20.1668 4.56383 20.1258 4.57899 20.0464 4.57756C19.8456 4.57413 19.6445 4.58128 19.4437 4.57441C19.3445 4.57098 19.3106 4.60675 19.323 4.69747C19.3256 4.71607 19.3233 4.73553 19.3233 4.7547C19.3233 7.91604 19.3239 11.0771 19.3206 14.2384C19.3206 14.3603 19.3395 14.4153 19.4802 14.4413C19.8135 14.5034 20.0284 14.773 20.0384 15.1049C20.0434 15.2718 20.0419 15.4386 20.0387 15.6055C20.0375 15.6744 20.0581 15.7002 20.1338 15.7142C20.5395 15.7883 20.7629 16.0545 20.7656 16.4534C20.7665 16.601 20.7629 16.749 20.7668 16.8967C20.7688 16.9685 20.7479 17.0057 20.6681 16.9962C20.644 16.9934 20.6193 16.996 20.5948 16.996C18.4633 16.996 16.3321 16.9945 14.2006 16.9991C14.0622 16.9994 14.0066 16.9711 14.0207 16.8286C14.034 16.6963 14.0222 16.5618 14.0239 16.4282C14.0287 16.0545 14.2574 15.7806 14.634 15.7171C14.7255 15.7016 14.7441 15.6704 14.7414 15.5914C14.7367 15.4438 14.7385 15.2958 14.7405 15.1482C14.7461 14.7673 14.9764 14.494 15.3609 14.4281C15.4512 14.4127 15.4695 14.3801 15.4695 14.3005C15.4674 12.708 15.4922 11.1151 15.4618 9.52317C15.4203 7.29733 13.7849 5.48043 11.5321 5.10183C8.96043 4.66971 6.4562 6.46372 6.11939 8.97859C6.08701 9.22012 6.06993 9.46222 6.07023 9.70546C6.07082 11.2216 6.0717 12.738 6.06817 14.2542C6.06787 14.3663 6.08819 14.4147 6.21743 14.4364C6.55659 14.494 6.78476 14.7733 6.79683 15.117C6.80242 15.2789 6.79948 15.4412 6.798 15.6032C6.79742 15.6656 6.80389 15.7002 6.88662 15.7156C7.30468 15.7938 7.514 16.0505 7.51489 16.4685C7.51518 16.6116 7.51224 16.7547 7.51577 16.8975C7.51754 16.9702 7.49192 17.0051 7.41449 16.9965C7.39035 16.994 7.36562 16.9962 7.34119 16.9962C5.20967 16.9962 3.07846 16.9948 0.946944 16.9994C0.805923 16.9997 0.756462 16.9685 0.770299 16.828C0.783842 16.6909 0.771183 16.5515 0.773832 16.4133C0.780309 16.0613 1.01642 15.7792 1.37295 15.7202C1.48394 15.7019 1.50544 15.6613 1.50102 15.5657C1.49425 15.4183 1.49719 15.2701 1.49984 15.1224C1.50691 14.7661 1.73684 14.4911 2.09749 14.4304C2.20348 14.4127 2.21731 14.3729 2.21731 14.2842C2.21555 11.0943 2.21496 7.90459 2.21849 4.71464C2.21849 4.59874 2.18228 4.56898 2.06952 4.57356C1.87403 4.58157 1.67766 4.57298 1.48159 4.57699C1.40357 4.57842 1.37148 4.55381 1.35705 4.47569C1.21368 3.69243 1.06824 2.90947 0.91662 2.12765C0.893362 2.00803 0.936345 1.99573 1.04057 1.99601C2.04508 1.99887 3.04931 1.9983 4.05383 1.99744C4.29672 1.99716 4.26845 2.02177 4.26904 1.79483C4.27022 1.25139 4.27375 0.707669 4.26639 0.16423C4.26462 0.0337359 4.30054 -0.0017493 4.43597 -0.00146313C6.54776 0.00426029 8.65954 0.00282944 10.7713 0.00282944Z" fill="#D2DBFF"/>
</svg>
