<svg width="25" height="25" viewBox="0 0 25 25" fill="none" xmlns="http://www.w3.org/2000/svg">
<g clip-path="url(#clip0_1530_14202)">
<path d="M24.1994 15.5068C24.1994 14.4285 23.3985 13.5342 22.3604 13.3865C22.6178 13.0266 22.7571 12.5965 22.7571 12.1443C22.7571 10.9636 21.7961 10.0029 20.6149 10.0029H20.1371C20.3784 9.65627 20.5204 9.23571 20.5204 8.78233C20.5204 7.60118 19.5595 6.64028 18.3783 6.64028H15.3031V5.1745C17.131 5.31864 18.8232 5.36922 20.2924 5.36922C20.6865 5.36922 21.0649 5.36561 21.4255 5.35919C21.6801 5.35464 21.8827 5.14469 21.8782 4.89016C21.8737 4.63558 21.6623 4.43261 21.4092 4.43744C20.6172 4.45145 19.8484 4.45023 19.1018 4.43664L19.8052 3.56462C19.9651 3.36648 19.934 3.07628 19.7358 2.91648C19.5375 2.75659 19.2475 2.78767 19.0877 2.98581L17.9429 4.40495C17.0247 4.3712 16.1446 4.31842 15.3032 4.25064V3.91009C15.3032 3.65551 15.0969 3.44917 14.8423 3.44917C14.5877 3.44917 14.3814 3.65556 14.3814 3.91009V4.16908C11.069 3.84943 8.41443 3.30545 6.51355 2.80998C6.27299 2.74731 6.04138 2.6844 5.81694 2.62168L7.98351 1.9779C8.22754 1.90538 8.36657 1.64879 8.2941 1.40476C8.22158 1.16077 7.96494 1.02184 7.721 1.09421L4.21512 2.13592C2.34101 1.52012 1.35176 1.01705 1.33863 1.0103C1.11241 0.893726 0.834585 0.98246 0.717913 1.20863C0.601194 1.43485 0.689929 1.71291 0.916195 1.82959C0.991429 1.86845 2.79823 2.7909 6.2428 3.69203C6.72725 3.81883 7.21152 3.93643 7.69433 4.0457L8.75371 5.51561C8.8438 5.64063 8.98485 5.70705 9.12801 5.70705C9.22143 5.70705 9.31565 5.67878 9.39712 5.62C9.6036 5.47113 9.65038 5.18308 9.50156 4.97655L9.03421 4.32812C10.8748 4.68939 12.6785 4.93398 14.3813 5.09462V6.64019H11.306C10.1249 6.64019 9.16396 7.60113 9.16396 8.78224C9.16396 9.23562 9.30595 9.65623 9.54721 10.0028H9.06993C8.49763 10.0028 7.95974 10.2256 7.55558 10.6298C7.15068 11.0336 6.92774 11.5714 6.92774 12.1442C6.92774 12.6068 7.07558 13.0352 7.32585 13.3858C6.86853 13.4498 6.44553 13.6592 6.1115 13.9924C5.70725 14.3977 5.48455 14.9356 5.48455 15.5067C5.48455 16.5854 6.28597 17.4799 7.32454 17.6272C7.0671 17.9874 6.92769 18.4174 6.92769 18.8692C6.92769 20.0503 7.88863 21.0113 9.06984 21.0113H9.54684C9.30581 21.3578 9.16396 21.7782 9.16396 22.2314C9.16396 23.4126 10.1249 24.3735 11.306 24.3735H18.3784C19.5596 24.3735 20.5205 23.4125 20.5205 22.2314C20.5205 21.7782 20.3786 21.3578 20.1376 21.0113H20.615C21.1863 21.0113 21.7241 20.7886 22.1298 20.3839C22.5344 19.9793 22.7572 19.4414 22.7572 18.8692C22.7572 18.4065 22.6093 17.9782 22.359 17.6276C22.8168 17.5635 23.2396 17.354 23.5721 17.0214C23.9766 16.6169 24.1994 16.079 24.1994 15.5068ZM11.3058 7.56213H18.3782C19.051 7.56213 19.5984 8.10954 19.5984 8.78233C19.5984 9.45513 19.051 10.0025 18.3782 10.0025H11.3058C10.6329 10.0025 10.0856 9.45518 10.0856 8.78233C10.0856 8.10944 10.6329 7.56213 11.3058 7.56213ZM8.20677 11.2821C8.43716 11.0517 8.74363 10.9248 9.06965 10.9248H20.6148C21.2877 10.9248 21.8351 11.4718 21.8351 12.1443C21.8351 12.4708 21.7083 12.7772 21.4777 13.0072C21.2473 13.2377 20.9409 13.3646 20.6148 13.3646H17.5331C16.9019 12.5734 15.9306 12.065 14.8421 12.065C13.7536 12.065 12.7822 12.5733 12.1511 13.3646H9.0697C8.39685 13.3646 7.84944 12.8172 7.84944 12.1443C7.8494 11.8182 7.9761 11.5122 8.20677 11.2821ZM17.3621 15.5069C17.3621 16.8965 16.2316 18.027 14.842 18.027C13.4525 18.027 12.3219 16.8965 12.3219 15.5069C12.3219 14.1174 13.4525 12.9869 14.842 12.9869C16.2316 12.9869 17.3621 14.1174 17.3621 15.5069ZM6.40616 15.5068C6.40616 15.1814 6.53319 14.8748 6.76311 14.6443C6.99449 14.4136 7.3011 14.2865 7.62646 14.2865H11.6244C11.4799 14.666 11.4001 15.0773 11.4001 15.5069C11.4001 15.9365 11.4799 16.3476 11.6243 16.7271H7.62655C6.95357 16.7271 6.40616 16.1796 6.40616 15.5068ZM18.3783 23.4517H11.3058C10.6329 23.4517 10.0856 22.9043 10.0856 22.2315C10.0856 21.5593 10.632 21.0124 11.304 21.0114H18.38C19.052 21.0124 19.5985 21.5593 19.5985 22.2315C19.5985 22.9043 19.0511 23.4517 18.3783 23.4517ZM21.4782 19.7317C21.2469 19.9624 20.9403 20.0895 20.6149 20.0895H9.06965C8.3968 20.0895 7.8494 19.5421 7.8494 18.8692C7.8494 18.5432 7.97629 18.2368 8.2064 18.0067C8.43773 17.776 8.74429 17.6489 9.0697 17.6489H12.1508C12.782 18.4403 13.7535 18.9488 14.8421 18.9488C15.9307 18.9488 16.9021 18.4403 17.5333 17.6489H20.6149C21.2878 17.6489 21.8352 18.1964 21.8352 18.8692C21.8352 19.1952 21.7083 19.5017 21.4782 19.7317ZM22.9201 16.3696C22.6897 16.6001 22.3833 16.727 22.0572 16.727H18.0597C18.2041 16.3475 18.2839 15.9364 18.2839 15.5068C18.2839 15.0771 18.2041 14.6659 18.0597 14.2864H22.0573C22.7301 14.2864 23.2775 14.8338 23.2775 15.5066C23.2775 15.8327 23.1506 16.1391 22.9201 16.3696Z" fill="#0075FF"/>
<path d="M23.7446 8.05856C23.9992 8.05856 24.2055 7.8522 24.2055 7.59764C24.2055 7.34308 23.9992 7.13672 23.7446 7.13672C23.4901 7.13672 23.2837 7.34308 23.2837 7.59764C23.2837 7.8522 23.4901 8.05856 23.7446 8.05856Z" fill="#0075FF"/>
<path d="M24.2056 24.375C24.4601 24.375 24.6665 24.1686 24.6665 23.914C24.6665 23.6595 24.4601 23.4531 24.2056 23.4531C23.951 23.4531 23.7446 23.6595 23.7446 23.914C23.7446 24.1686 23.951 24.375 24.2056 24.375Z" fill="#0075FF"/>
<path d="M3.92577 17.2763C4.18033 17.2763 4.38669 17.07 4.38669 16.8154C4.38669 16.5609 4.18033 16.3545 3.92577 16.3545C3.67121 16.3545 3.46484 16.5609 3.46484 16.8154C3.46484 17.07 3.67121 17.2763 3.92577 17.2763Z" fill="#0075FF"/>
<path d="M4.4785 9.90134C4.73306 9.90134 4.93942 9.69498 4.93942 9.44041C4.93942 9.18585 4.73306 8.97949 4.4785 8.97949C4.22394 8.97949 4.01758 9.18585 4.01758 9.44041C4.01758 9.69498 4.22394 9.90134 4.4785 9.90134Z" fill="#0075FF"/>
</g>
<defs>
<clipPath id="clip0_1530_14202">
<rect width="24" height="24" fill="white" transform="translate(0.666504 0.666992)"/>
</clipPath>
</defs>
</svg>
