<svg width="38" height="38" viewBox="0 0 38 38" fill="none" xmlns="http://www.w3.org/2000/svg">
<path d="M21.1398 17.3597C20.8412 17.3597 20.5425 17.246 20.315 17.0179C18.4958 15.1987 15.5356 15.1981 13.7158 17.0179C13.2608 17.4735 12.5212 17.4735 12.0663 17.0179C11.6107 16.5624 11.6107 15.8239 12.0663 15.3684C14.7954 12.6386 19.236 12.6392 21.9646 15.3684C22.4201 15.8239 22.4201 16.5624 21.9646 17.0179C21.7371 17.246 21.4378 17.3597 21.1398 17.3597Z" fill="#0075FF"/>
<path d="M20.3152 24.0145C18.5228 24.0145 16.7304 23.332 15.3661 21.9677C14.9105 21.5122 14.9105 20.7738 15.3661 20.3182C15.821 19.8627 16.5606 19.8627 17.0156 20.3182C18.8348 22.1375 21.795 22.1381 23.6148 20.3182C24.0698 19.8627 24.8094 19.8627 25.2644 20.3182C25.7199 20.7738 25.7199 21.5122 25.2644 21.9677C23.8995 23.332 22.1071 24.0145 20.3152 24.0145Z" fill="#0075FF"/>
<path d="M24.4389 22.3084C24.1402 22.3084 23.8416 22.1946 23.6141 21.9666C23.1586 21.511 23.1586 20.7726 23.6141 20.3171L30.1305 13.8006C30.5855 13.3451 31.3251 13.3451 31.7801 13.8006C32.2356 14.2562 32.2356 14.9946 31.7801 15.4502L25.2636 21.9666C25.0362 22.1946 24.7375 22.3084 24.4389 22.3084Z" fill="#0075FF"/>
<path d="M14.6234 32.124C14.3248 32.124 14.0262 32.0103 13.7987 31.7822C13.3431 31.3267 13.3431 30.5882 13.7987 30.1327L17.4413 26.4901C17.8962 26.0346 18.6358 26.0346 19.0908 26.4901C19.5463 26.9456 19.5463 27.6841 19.0908 28.1396L15.4482 31.7822C15.2207 32.0103 14.9221 32.124 14.6234 32.124Z" fill="#0075FF"/>
<path d="M6.37491 23.8752C6.07627 23.8752 5.77763 23.7614 5.55015 23.5334C5.09461 23.0778 5.09461 22.3394 5.55015 21.8839L12.0666 15.368C12.5221 14.9125 13.2611 14.9125 13.7161 15.368C14.1716 15.8236 14.1716 16.562 13.7161 17.0175L7.19967 23.5334C6.97161 23.7609 6.67297 23.8752 6.37491 23.8752Z" fill="#0075FF"/>
<path d="M19.0639 11.1871C18.7652 11.1871 18.4672 11.0734 18.2391 10.8459C17.7836 10.3903 17.7836 9.6519 18.2391 9.19577L21.8817 5.55259C22.3373 5.09705 23.0757 5.09705 23.5318 5.55259C23.9874 6.00814 23.9874 6.74657 23.5318 7.2027L19.8892 10.8459C19.6612 11.0728 19.3619 11.1871 19.0639 11.1871Z" fill="#0075FF"/>
<path d="M10.4991 33.7948C8.69497 33.7948 6.89088 33.1241 5.54992 31.7825C2.86682 29.0994 2.86682 24.5667 5.54992 21.8836C6.00488 21.4281 6.74448 21.4281 7.19944 21.8836C7.65498 22.3392 7.65498 23.0776 7.19944 23.5332C5.4111 25.3215 5.4111 28.3441 7.19944 30.1324C8.98778 31.9208 12.0103 31.9208 13.7987 30.1324C14.2536 29.6769 14.9932 29.6769 15.4482 30.1324C15.9037 30.588 15.9037 31.3264 15.4482 31.7819C14.1072 33.1241 12.3031 33.7948 10.4991 33.7948Z" fill="#0075FF"/>
<path d="M30.9552 15.7924C30.6566 15.7924 30.3579 15.6787 30.1305 15.4506C29.6749 14.9951 29.6749 14.2567 30.1305 13.8011C31.9188 12.0128 31.9188 8.99022 30.1305 7.20188C28.3421 5.41354 25.3196 5.41354 23.5312 7.20188C23.0763 7.65742 22.3367 7.65742 21.8817 7.20188C21.4262 6.74634 21.4262 6.0079 21.8817 5.55236C24.5648 2.86927 29.0975 2.86927 31.7806 5.55236C34.4637 8.23545 34.4637 12.7681 31.7806 15.4512C31.5525 15.6787 31.2539 15.7924 30.9552 15.7924Z" fill="#0075FF"/>
</svg>
