<svg width="38" height="38" viewBox="0 0 38 38" fill="none" xmlns="http://www.w3.org/2000/svg">
<path d="M11.6655 3.5H12.8321V4.66656H11.6655V3.5Z" fill="#0075FF"/>
<path d="M13.9988 3.5H18.665V4.66656H13.9988V3.5Z" fill="#0075FF"/>
<path d="M17.4985 24.498H15.1654C14.7013 24.498 14.2562 24.6824 13.928 25.0106C13.5999 25.3387 13.4155 25.7838 13.4155 26.2479C13.4155 26.712 13.5999 27.1571 13.928 27.4852C14.2562 27.8134 14.7013 27.9977 15.1654 27.9977H17.4985C17.9626 27.9977 18.4077 27.8134 18.7358 27.4852C19.064 27.1571 19.2483 26.712 19.2483 26.2479C19.2483 25.7838 19.064 25.3387 18.7358 25.0106C18.4077 24.6824 17.9626 24.498 17.4985 24.498ZM17.4985 26.8312H15.1654C15.0107 26.8312 14.8623 26.7697 14.7529 26.6603C14.6435 26.5509 14.5821 26.4026 14.5821 26.2479C14.5821 26.0932 14.6435 25.9448 14.7529 25.8354C14.8623 25.7261 15.0107 25.6646 15.1654 25.6646H17.4985C17.6532 25.6646 17.8016 25.7261 17.9109 25.8354C18.0203 25.9448 18.0818 26.0932 18.0818 26.2479C18.0818 26.4026 18.0203 26.5509 17.9109 26.6603C17.8016 26.7697 17.6532 26.8312 17.4985 26.8312Z" fill="#0075FF"/>
<path d="M2.33309 16.3321H3.49966V9.57421L4.25384 10.3284L5.0786 9.50363L3.32875 7.75378C3.21937 7.64444 3.07104 7.58301 2.91637 7.58301C2.76171 7.58301 2.61338 7.64444 2.50399 7.75378L0.75415 9.50363L1.57891 10.3284L2.33309 9.57421V16.3321Z" fill="#0075FF"/>
<path d="M29.1641 9.57421V16.3321H30.3307V9.57421L31.0849 10.3284L31.9097 9.50363L30.1598 7.75378C30.0504 7.64444 29.9021 7.58301 29.7474 7.58301C29.5928 7.58301 29.4444 7.64444 29.335 7.75378L27.5852 9.50363L28.41 10.3284L29.1641 9.57421Z" fill="#0075FF"/>
<path d="M32.6636 26.8314C32.1145 26.8292 31.5827 27.0237 31.1646 27.3797C30.9566 27.0349 30.6632 26.7495 30.3128 26.5513C29.9623 26.3531 29.5666 26.2486 29.1639 26.2481C28.6148 26.2459 28.083 26.4404 27.6649 26.7964C27.3499 26.2716 26.8406 25.8922 26.2475 25.7406V5.24996C26.2463 4.16747 25.8157 3.12967 25.0503 2.36423C24.2849 1.59879 23.2471 1.16823 22.1646 1.16699H10.4989C9.41645 1.16823 8.37865 1.59879 7.61321 2.36423C6.84778 3.12967 6.41721 4.16747 6.41598 5.24996V15.924C6.04519 16.0974 5.74621 16.3944 5.57022 16.7639L2.92212 22.5093C2.53583 23.3511 2.33493 24.2661 2.33301 25.1923V36.1639H3.49957V25.1923C3.50154 24.435 3.66666 23.687 3.98369 22.9992L6.41598 17.7205V26.2481C6.41678 26.7239 6.50169 27.1959 6.66679 27.6421L6.08934 28.6395L7.09842 29.2228L10.5981 23.1625C10.6739 23.0292 10.7753 22.9122 10.8964 22.8181C11.0175 22.724 11.156 22.6548 11.3039 22.6142C11.6034 22.5376 11.9209 22.5794 12.1905 22.7309C12.4584 22.8868 12.6536 23.1425 12.7334 23.4421C12.8132 23.7416 12.7711 24.0606 12.6163 24.3291L9.99149 28.8729C9.94078 28.964 9.91465 29.0668 9.91567 29.1711C9.9167 29.2754 9.94483 29.3777 9.99732 29.4678L11.2455 31.5443C11.5191 31.9965 11.6643 32.5148 11.6655 33.0433V36.158H12.8321V33.0433C12.8307 32.3036 12.6292 31.578 12.2488 30.9435L11.8813 30.3311H15.4802C15.3215 30.9298 15.4053 31.5669 15.7135 32.1042L18.2274 36.4555L19.2365 35.8722L16.7226 31.521C16.6056 31.321 16.5508 31.0909 16.5652 30.8597C16.5795 30.6286 16.6624 30.4069 16.8031 30.223C16.9439 30.0391 17.1362 29.9012 17.3555 29.827C17.5749 29.7527 17.8114 29.7455 18.0349 29.8061C18.1836 29.8449 18.3229 29.9134 18.4442 30.0077C18.5655 30.102 18.6664 30.2199 18.7407 30.3544L19.9073 32.3725C19.9728 32.4832 20.0725 32.5698 20.1913 32.6192C20.3101 32.6686 20.4416 32.6782 20.5664 32.6467C20.6907 32.6132 20.8004 32.5396 20.8785 32.4372C20.9565 32.3349 20.9986 32.2096 20.998 32.0809V20.9986C20.998 20.6892 21.1209 20.3924 21.3397 20.1737C21.5585 19.9549 21.8552 19.832 22.1646 19.832C22.474 19.832 22.7707 19.9549 22.9895 20.1737C23.2082 20.3924 23.3311 20.6892 23.3311 20.9986V30.3311C23.3311 30.4858 23.3926 30.6341 23.502 30.7435C23.6114 30.8529 23.7597 30.9143 23.9144 30.9143C24.0691 30.9143 24.2175 30.8529 24.3269 30.7435C24.4362 30.6341 24.4977 30.4858 24.4977 30.3311V27.9979C24.4977 27.6885 24.6206 27.3918 24.8394 27.173C25.0581 26.9543 25.3549 26.8314 25.6643 26.8314C25.9736 26.8314 26.2704 26.9543 26.4891 27.173C26.7079 27.3918 26.8308 27.6885 26.8308 27.9979V30.3311C26.8308 30.4858 26.8923 30.6341 27.0017 30.7435C27.111 30.8529 27.2594 30.9143 27.4141 30.9143C27.5688 30.9143 27.7172 30.8529 27.8265 30.7435C27.9359 30.6341 27.9974 30.4858 27.9974 30.3311V28.5812C27.9974 28.2718 28.1203 27.9751 28.3391 27.7563C28.5578 27.5376 28.8546 27.4146 29.1639 27.4146C29.4733 27.4146 29.7701 27.5376 29.9888 27.7563C30.2076 27.9751 30.3305 28.2718 30.3305 28.5812V30.3311C30.3305 30.4858 30.392 30.6341 30.5013 30.7435C30.6107 30.8529 30.7591 30.9143 30.9138 30.9143C31.0685 30.9143 31.2168 30.8529 31.3262 30.7435C31.4356 30.6341 31.4971 30.4858 31.4971 30.3311V29.1645C31.4971 28.8551 31.62 28.5584 31.8387 28.3396C32.0575 28.1208 32.3542 27.9979 32.6636 27.9979C32.973 27.9979 33.2697 28.1208 33.4885 28.3396C33.7073 28.5584 33.8302 28.8551 33.8302 29.1645V36.1639H34.9968V29.1645C34.9968 28.5457 34.7509 27.9523 34.3134 27.5147C33.8759 27.0772 33.2824 26.8314 32.6636 26.8314ZM25.081 25.7406C24.8766 25.7934 24.6803 25.8739 24.4977 25.9798V20.9986C24.4977 20.3798 24.2519 19.7863 23.8143 19.3488C23.3768 18.9112 22.7834 18.6654 22.1646 18.6654C21.5458 18.6654 20.9523 18.9112 20.5148 19.3488C20.0773 19.7863 19.8314 20.3798 19.8314 20.9986V29.1645H19.2423C18.9797 28.9394 18.6712 28.7742 18.3382 28.6804C17.7395 28.522 17.1025 28.6058 16.5651 28.9137C16.4434 28.9873 16.3282 29.0712 16.2209 29.1645H11.1814L11.1756 29.1587L13.6312 24.9124C13.9406 24.3764 14.0243 23.7394 13.8641 23.1416C13.7038 22.5438 13.3127 22.0341 12.7767 21.7247C12.2406 21.4153 11.6037 21.3316 11.0059 21.4918C10.4081 21.6521 9.89842 22.0432 9.58903 22.5792L7.58254 26.0498V5.24996C7.58254 4.47648 7.8898 3.73468 8.43673 3.18775C8.98367 2.64082 9.72547 2.33355 10.4989 2.33355H22.1646C22.938 2.33355 23.6798 2.64082 24.2268 3.18775C24.7737 3.73468 25.081 4.47648 25.081 5.24996V25.7406Z" fill="#0075FF"/>
<path d="M15.7486 12.2489H16.9152C17.0699 12.2489 17.2182 12.3103 17.3276 12.4197C17.437 12.5291 17.4985 12.6775 17.4985 12.8321H18.665C18.665 12.3681 18.4807 11.923 18.1525 11.5948C17.8244 11.2667 17.3793 11.0823 16.9152 11.0823V10.499H15.7486V11.0823C15.2845 11.0823 14.8395 11.2667 14.5113 11.5948C14.1831 11.923 13.9988 12.3681 13.9988 12.8321C13.9988 13.2962 14.1831 13.7413 14.5113 14.0695C14.8395 14.3976 15.2845 14.582 15.7486 14.582H16.9152C17.0699 14.582 17.2182 14.6434 17.3276 14.7528C17.437 14.8622 17.4985 15.0106 17.4985 15.1653C17.4985 15.32 17.437 15.4683 17.3276 15.5777C17.2182 15.6871 17.0699 15.7486 16.9152 15.7486H15.7486C15.5939 15.7486 15.4456 15.6871 15.3362 15.5777C15.2268 15.4683 15.1653 15.32 15.1653 15.1653H13.9988C13.9988 15.6294 14.1831 16.0744 14.5113 16.4026C14.8395 16.7308 15.2845 16.9151 15.7486 16.9151V17.4984H16.9152V16.9151C17.3793 16.9151 17.8244 16.7308 18.1525 16.4026C18.4807 16.0744 18.665 15.6294 18.665 15.1653C18.665 14.7012 18.4807 14.2561 18.1525 13.9279C17.8244 13.5998 17.3793 13.4154 16.9152 13.4154H15.7486C15.5939 13.4154 15.4456 13.354 15.3362 13.2446C15.2268 13.1352 15.1653 12.9868 15.1653 12.8321C15.1653 12.6775 15.2268 12.5291 15.3362 12.4197C15.4456 12.3103 15.5939 12.2489 15.7486 12.2489Z" fill="#0075FF"/>
<path d="M16.3318 8.16602C15.1782 8.16602 14.0505 8.5081 13.0913 9.14902C12.1321 9.78994 11.3845 10.7009 10.943 11.7667C10.5016 12.8325 10.386 14.0053 10.6111 15.1368C10.8362 16.2682 11.3917 17.3075 12.2074 18.1233C13.0232 18.939 14.0625 19.4945 15.1939 19.7196C16.3254 19.9446 17.4982 19.8291 18.564 19.3876C19.6298 18.9462 20.5407 18.1986 21.1816 17.2394C21.8226 16.2802 22.1647 15.1524 22.1647 13.9988C22.163 12.4524 21.5479 10.9698 20.4544 9.87628C19.3609 8.78279 17.8783 8.16771 16.3318 8.16602ZM16.3318 18.6651C15.4089 18.6651 14.5068 18.3914 13.7394 17.8787C12.972 17.3659 12.374 16.6372 12.0208 15.7845C11.6676 14.9319 11.5752 13.9937 11.7552 13.0885C11.9353 12.1833 12.3797 11.3519 13.0323 10.6993C13.6849 10.0467 14.5163 9.60229 15.4215 9.42224C16.3267 9.24219 17.2649 9.3346 18.1175 9.68777C18.9702 10.041 19.699 10.639 20.2117 11.4064C20.7244 12.1738 20.9981 13.0759 20.9981 13.9988C20.9967 15.236 20.5046 16.422 19.6298 17.2968C18.7551 18.1716 17.569 18.6637 16.3318 18.6651Z" fill="#0075FF"/>
<path d="M29.1641 17.499H30.3306V18.6656H29.1641V17.499Z" fill="#0075FF"/>
<path d="M29.1641 19.832H30.3306V20.9986H29.1641V19.832Z" fill="#0075FF"/>
<path d="M2.33301 17.499H3.49957V18.6656H2.33301V17.499Z" fill="#0075FF"/>
</svg>
