<svg width="25" height="17" viewBox="0 0 25 17" fill="none" xmlns="http://www.w3.org/2000/svg">
<path d="M21.7234 0.666992H3.61014C1.98675 0.666992 0.666748 1.98192 0.666748 3.59657V13.7374C0.666748 15.3532 1.98788 16.667 3.61014 16.667H21.7234C23.3467 16.667 24.6667 15.3521 24.6667 13.7374V3.59657C24.6667 1.98079 23.3467 0.666992 21.7234 0.666992ZM23.3083 13.7374C23.3083 14.6073 22.5962 15.3149 21.7234 15.3149H3.61014C2.73618 15.3149 2.02524 14.6073 2.02524 13.7374V6.3391H23.3083V13.7374ZM23.3083 4.98586H2.02524V3.59657C2.02524 2.72671 2.73618 2.0191 3.61014 2.0191H21.7234C22.5962 2.0191 23.3083 2.72671 23.3083 3.59657V4.98586ZM16.5158 12.5408C16.5158 12.1667 16.8203 11.8647 17.195 11.8647H19.4592C19.8339 11.8647 20.1384 12.1678 20.1384 12.5408C20.1384 12.9138 19.8339 13.2169 19.4592 13.2169H17.195C16.8203 13.2169 16.5158 12.9138 16.5158 12.5408Z" fill="#0075FF"/>
</svg>
