<svg width="38" height="38" viewBox="0 0 38 38" fill="none" xmlns="http://www.w3.org/2000/svg">
<path d="M27.0131 16.2767V8.41511C27.0131 8.07152 26.7345 7.79294 26.391 7.79294C24.6757 7.79294 23.2801 6.39762 23.2801 4.68271C23.2801 4.33912 23.0015 4.06055 22.658 4.06055H8.08747C7.74388 4.06055 7.4653 4.33912 7.4653 4.68271C7.4653 6.39762 6.06998 7.79294 4.35508 7.79294C4.01149 7.79294 3.73291 8.07152 3.73291 8.41511V19.9373C3.73291 26.3565 14.6536 31.3226 15.1187 31.5307C15.1996 31.5668 15.2861 31.585 15.373 31.585C15.4596 31.585 15.5459 31.5671 15.6267 31.531C15.6776 31.5081 16.7927 31.006 18.3165 30.1302C19.8998 32.0489 22.2951 33.2738 24.9713 33.2738C29.7275 33.2738 33.5969 29.4044 33.5969 24.6479C33.5969 20.5963 30.7853 17.1974 27.0131 16.2767ZM15.3739 30.2763C13.7571 29.5035 4.97724 25.0675 4.97724 19.9373V8.99292C6.88141 8.71951 8.39187 7.20905 8.66528 5.30488H22.0801C22.3539 7.20905 23.8643 8.71951 25.7688 8.99292V16.0628C25.5058 16.0385 25.2405 16.0224 24.9713 16.0224C20.2149 16.0224 16.3455 19.8918 16.3455 24.6479C16.3455 26.2809 16.8099 27.8037 17.6013 29.1069C16.5907 29.6831 15.7684 30.089 15.3739 30.2763ZM24.9713 32.0295C20.9011 32.0295 17.5898 28.7182 17.5898 24.6479C17.5898 20.578 20.9011 17.2667 24.9713 17.2667C29.0412 17.2667 32.3526 20.578 32.3526 24.6479C32.3526 28.7182 29.0412 32.0295 24.9713 32.0295Z" fill="#0075FF"/>
<path d="M24.9713 21.5173C25.6628 21.5173 26.2254 22.08 26.2254 22.7717C26.2254 23.1153 26.504 23.3939 26.8476 23.3939C27.1912 23.3939 27.4697 23.1153 27.4697 22.7717C27.4697 21.61 26.6693 20.6395 25.5935 20.361V19.9288C25.5935 19.5852 25.3149 19.3066 24.9713 19.3066C24.6278 19.3066 24.3492 19.5852 24.3492 19.9288V20.361C23.2733 20.6395 22.4727 21.61 22.4727 22.7717C22.4727 24.1494 23.5937 25.2701 24.9713 25.2701C25.6628 25.2701 26.2254 25.8327 26.2254 26.5244C26.2254 27.2162 25.6628 27.7788 24.9713 27.7788C24.2796 27.7788 23.717 27.2162 23.717 26.5244C23.717 26.1809 23.4384 25.9023 23.0948 25.9023C22.7512 25.9023 22.4727 26.1809 22.4727 26.5244C22.4727 27.6861 23.2733 28.6567 24.3492 28.9352V29.367C24.3492 29.7106 24.6278 29.9892 24.9713 29.9892C25.3149 29.9892 25.5935 29.7106 25.5935 29.367V28.9352C26.6693 28.6567 27.4697 27.6861 27.4697 26.5244C27.4697 25.1467 26.349 24.0258 24.9713 24.0258C24.2796 24.0258 23.717 23.4631 23.717 22.7717C23.717 22.08 24.2796 21.5173 24.9713 21.5173Z" fill="#0075FF"/>
<path d="M18.4552 14.193C18.2122 13.95 17.8184 13.95 17.5754 14.193L13.4457 18.3231L11.6089 16.4863C11.3659 16.2433 10.9722 16.2433 10.7292 16.4863C10.4861 16.7294 10.4861 17.1231 10.7292 17.3661L13.0058 19.6427C13.1224 19.7594 13.2807 19.825 13.4457 19.825C13.6106 19.825 13.7689 19.7594 13.8856 19.6427L18.4552 15.0728C18.6982 14.8298 18.6982 14.4361 18.4552 14.193Z" fill="#0075FF"/>
</svg>
