<svg width="25" height="25" viewBox="0 0 25 25" fill="none" xmlns="http://www.w3.org/2000/svg">
<g clip-path="url(#clip0_1530_14242)">
<path d="M21.1283 6.71851C20.9725 4.12993 18.8239 2.07877 16.1962 2.07877C15.8063 2.07877 15.4903 1.76274 15.4903 1.37288C15.4903 0.983023 15.8063 0.666992 16.1962 0.666992C19.6089 0.666992 22.3932 3.35799 22.5428 6.73388L22.7559 6.52084C23.0316 6.24516 23.4785 6.24516 23.7541 6.52084C24.0298 6.79651 24.0298 7.24341 23.7541 7.51909L22.3424 8.93087C22.0667 9.20654 21.6197 9.20654 21.3441 8.93087L19.9323 7.51909C19.6567 7.24341 19.6567 6.79651 19.9323 6.52084C20.208 6.24516 20.655 6.24516 20.9306 6.52084L21.1283 6.71851ZM9.16598 17.5738C8.92294 17.5966 8.67787 17.6082 8.43145 17.6082C4.14314 17.6082 0.666748 14.1318 0.666748 9.84348C0.666748 5.55516 4.14314 2.07877 8.43145 2.07877C12.4935 2.07877 15.8271 5.19798 16.1675 9.1719C16.4093 9.14921 16.6543 9.13759 16.902 9.13759C21.1904 9.13759 24.6667 12.614 24.6667 16.9023C24.6667 21.1906 21.1904 24.667 16.902 24.667C12.84 24.667 9.50639 21.5477 9.16598 17.5738ZM8.43145 3.49051C4.92281 3.49051 2.07853 6.33484 2.07853 9.84343C2.07853 13.352 4.92286 16.1964 8.43145 16.1964C8.68092 16.1964 8.92842 16.182 9.17311 16.1536C9.47911 12.9676 11.7201 10.3012 14.7714 9.43355C14.5601 6.11598 11.8024 3.49051 8.43145 3.49051ZM16.902 23.2552C20.4107 23.2552 23.255 20.4109 23.255 16.9023C23.255 13.3937 20.4106 10.5494 16.902 10.5494C13.3935 10.5494 10.5491 13.3937 10.5491 16.9023C10.5491 20.4109 13.3934 23.2552 16.902 23.2552Z" fill="#0075FF"/>
</g>
<defs>
<clipPath id="clip0_1530_14242">
<rect width="24" height="24" fill="white" transform="translate(0.666748 0.666992)"/>
</clipPath>
</defs>
</svg>
