<svg width="38" height="38" viewBox="0 0 38 38" fill="none" xmlns="http://www.w3.org/2000/svg">
<path fill-rule="evenodd" clip-rule="evenodd" d="M13.4878 5.6803C14.0948 4.72251 14.9713 3.96549 16.0072 3.50441C17.0431 3.04333 18.1922 2.89876 19.3101 3.08887C20.4279 3.27898 21.4646 3.7953 22.2899 4.57291C23.1151 5.35052 23.6921 6.35473 23.9483 7.45931C23.9577 7.48777 23.9643 7.51707 23.968 7.5468C24.2875 9.02262 24.0134 10.5649 23.2049 11.8402C22.3964 13.1155 21.1185 14.0215 19.6474 14.3622C19.619 14.3716 19.5897 14.3782 19.56 14.3819C18.4518 14.6208 17.2977 14.527 16.2427 14.1122C15.1877 13.6974 14.2788 12.9801 13.63 12.0505C12.9813 11.1208 12.6217 10.0202 12.5964 8.88688C12.5711 7.75353 12.8813 6.63798 13.4878 5.6803ZM17.2908 4.05441C16.2018 4.29807 15.2309 4.91179 14.5437 5.79099C13.8564 6.6702 13.4953 7.76049 13.5218 8.87611C13.5483 9.99173 13.9608 11.0637 14.689 11.9092C15.4172 12.7548 16.416 13.3218 17.5154 13.5135C18.6147 13.7052 19.7465 13.5098 20.718 12.9606C21.6894 12.4114 22.4403 11.5423 22.8429 10.5015C23.2454 9.46072 23.2746 8.31254 22.9255 7.25262C22.5764 6.19269 21.8706 5.2866 20.9283 4.68872C20.3938 4.34842 19.7972 4.11718 19.1729 4.00832C18.5486 3.89946 17.909 3.91512 17.2908 4.05441ZM26.4092 14.4842C26.2729 14.6608 25.6358 15.4635 25.5686 15.594C25.4848 15.7574 25.4607 15.9449 25.5004 16.1241C25.54 16.3034 25.641 16.4632 25.7858 16.576L29.7206 19.6154C29.8857 19.7421 30.0942 19.7983 30.3006 19.7718C30.507 19.7453 30.6945 19.6383 30.8223 19.474L31.5872 18.4838C31.714 18.3188 31.7703 18.1102 31.7439 17.9038C31.7175 17.6973 31.6104 17.5097 31.4462 17.3819L27.5113 14.3425C27.3461 14.2161 27.1377 14.1601 26.9313 14.1866C26.725 14.213 26.5375 14.3199 26.4096 14.4839L26.4092 14.4842ZM13.0734 4.68821C12.0026 6.08503 11.528 7.84881 11.7532 9.5944C11.9784 11.34 12.8852 12.9255 14.2754 14.0048C15.6657 15.0841 17.4266 15.5694 19.1735 15.3548C20.9205 15.1402 22.5115 14.2431 23.5992 12.8593L23.6429 12.803C24.7159 11.4012 25.1888 9.63082 24.9575 7.88066C24.7263 6.13051 23.8099 4.54366 22.4097 3.46859C21.0094 2.39352 19.2397 1.91812 17.4892 2.1468C15.7387 2.37547 14.1505 3.28952 13.0734 4.68821ZM23.7712 14.0718L24.9177 14.8961L25.655 13.9414L24.576 13.0985C24.5108 13.1919 24.4433 13.2842 24.3735 13.3755C24.1864 13.6191 23.9853 13.8516 23.7712 14.0718ZM25.6654 17.6562L29.1531 20.3501C29.4091 20.547 29.7155 20.6677 30.037 20.6985C30.3585 20.7292 30.6822 20.6686 30.9709 20.5238L34.1633 24.5005C34.2254 24.5792 34.254 24.6791 34.243 24.7787C34.2321 24.8783 34.1823 24.9696 34.1046 25.0328L32.5508 26.28C32.4721 26.3421 32.3722 26.3708 32.2726 26.3598C32.173 26.3488 32.0818 26.299 32.0186 26.2213L25.5842 18.2063C25.4503 18.0394 25.4775 17.8069 25.6653 17.6561L25.6654 17.6562ZM16.1368 31.8392L15.3506 33.2006L15.3498 33.2002C15.2786 33.3257 15.26 33.4743 15.2982 33.6135C15.3598 33.8435 15.4928 33.9113 15.6603 34.008L15.6598 34.0088C15.7854 34.0793 15.9337 34.098 16.0729 34.0607C16.2121 34.0235 16.3312 33.9333 16.4048 33.8094L17.4523 31.9952C17.5235 31.8694 17.5424 31.7207 17.5049 31.5811C17.4675 31.4415 17.3766 31.3223 17.252 31.2491L17.2525 31.2483C17.0817 31.1497 16.9529 31.0737 16.7298 31.1335C16.5906 31.1702 16.4717 31.2607 16.3992 31.385C16.3133 31.5348 16.2181 31.6878 16.1371 31.8392H16.1368ZM11.5863 29.1669C11.7933 28.8139 11.8948 28.276 11.5625 28.0843C11.3912 27.9854 11.2623 27.9088 11.0385 27.9688C10.9693 27.987 10.9045 28.0187 10.8476 28.0621C10.7907 28.1055 10.7429 28.1596 10.7071 28.2215L9.65956 30.0358L9.65883 30.0354C9.58756 30.1609 9.569 30.3095 9.60721 30.4487C9.66881 30.6787 9.8018 30.7465 9.96928 30.8433C10.0955 30.9161 10.2451 30.9372 10.3866 30.9019C10.528 30.8666 10.6503 30.7778 10.7275 30.6542L11.5862 29.1669L11.5863 29.1669ZM14.2824 30.7249C14.3554 30.6005 14.4744 30.5098 14.6136 30.4722C14.7529 30.4346 14.9013 30.4531 15.0271 30.5238L15.0266 30.5245L15.136 30.5877L15.1364 30.5869C15.3905 30.7222 15.4911 31.0999 15.3619 31.3225L14.5465 32.7368C14.4168 32.9615 14.2065 33.2544 13.9567 33.3736C13.7526 33.4709 13.6162 33.389 13.4348 33.2843L13.4352 33.2835C13.3108 33.2104 13.2201 33.0915 13.1825 32.9522C13.1449 32.8129 13.1634 32.6645 13.234 32.5387L13.2349 32.5392L14.2824 30.7249ZM13.4616 30.2881L12.4308 32.0753C12.3943 32.1352 12.3461 32.1871 12.2891 32.2279C12.232 32.2687 12.1674 32.2976 12.0989 32.3129C11.8598 32.372 11.7235 32.2962 11.5428 32.192L11.5433 32.1912C11.4814 32.1553 11.4272 32.1076 11.3838 32.0507C11.3404 31.9938 11.3087 31.9289 11.2905 31.8598C11.2143 31.5754 11.3799 31.3827 11.5317 31.1199H11.5311L12.3901 29.6325C12.426 29.5707 12.4738 29.5165 12.5306 29.4731C12.5875 29.4297 12.6524 29.398 12.7216 29.3798C12.9458 29.3197 13.0769 29.3979 13.2456 29.4952C13.3776 29.5738 13.4747 29.6997 13.5172 29.8473C13.575 30.0428 13.5317 30.143 13.4614 30.288L13.4616 30.2881ZM11.7605 19.6095C12.8177 20.021 14.256 20.6769 15.1119 20.8839C14.9501 21.0593 14.7983 21.2577 14.6323 21.4752C14.2903 21.9226 13.8426 22.4997 13.4787 22.8998C13.1605 23.2498 12.9125 23.4244 12.8096 23.8841C12.7028 24.3621 12.8032 24.9782 13.1496 25.3776C13.6692 25.9767 14.6789 26.0869 15.3895 25.837C16.1906 25.5548 17.0227 24.7889 17.9936 24.5216C19.9549 23.9816 22.7411 26.238 24.784 27.8925C25.2852 28.2982 25.7431 28.6691 26.1601 28.9736C26.8705 29.5046 26.5902 30.6141 25.7285 30.7486C25.6001 30.7691 25.4689 30.764 25.3424 30.7336C25.216 30.7032 25.0968 30.6482 24.9916 30.5717L22.5428 28.783C22.4434 28.7106 22.3193 28.6807 22.1979 28.6998C22.0764 28.7189 21.9675 28.7855 21.8952 28.8849C21.8228 28.9843 21.7929 29.1083 21.812 29.2298C21.8311 29.3512 21.8977 29.4601 21.997 29.5325L24.4579 31.3296C24.6198 32.5564 23.3059 32.7491 22.7967 32.3769L20.7022 30.8468C20.653 30.8104 20.5971 30.784 20.5377 30.7692C20.4782 30.7544 20.4165 30.7516 20.3559 30.7608C20.2954 30.77 20.2373 30.7912 20.185 30.823C20.1327 30.8548 20.0872 30.8967 20.0511 30.9462C20.0151 30.9957 19.9892 31.0518 19.975 31.1114C19.9608 31.171 19.9585 31.2327 19.9683 31.2932C19.9781 31.3536 19.9997 31.4115 20.032 31.4636C20.0643 31.5156 20.1066 31.5607 20.1564 31.5963L22.2509 33.1261C22.2893 33.1541 22.3289 33.1805 22.3699 33.2052C22.3238 33.6829 22.0393 34.1093 21.5387 34.1121C21.269 34.1134 21.0609 34.0133 20.7818 33.8224L19.3732 32.7935C19.324 32.7577 19.2682 32.7319 19.209 32.7177C19.1499 32.7034 19.0885 32.7009 19.0283 32.7104C18.9682 32.7198 18.9105 32.741 18.8586 32.7728C18.8066 32.8046 18.7614 32.8462 18.7256 32.8954C18.6898 32.9447 18.664 33.0004 18.6497 33.0596C18.6354 33.1188 18.633 33.1802 18.6424 33.2404C18.6519 33.3005 18.6731 33.3582 18.7049 33.4101C18.7366 33.4621 18.7783 33.5072 18.8275 33.5431L20.0431 34.431C20.0023 34.6862 19.8886 35.0601 19.6458 35.1833C19.304 35.3566 18.7011 35.0495 18.162 34.6499L17.3414 34.0418L18.2561 32.4574C18.4512 32.1191 18.504 31.7171 18.403 31.3398C18.302 30.9625 18.0554 30.6408 17.7174 30.4451C17.6434 30.3956 17.5649 30.3531 17.483 30.3183C17.1716 30.1754 16.8201 30.146 16.4893 30.235C16.3757 30.2654 16.2661 30.3092 16.1628 30.3655C16.0378 30.1323 15.8525 29.9368 15.6264 29.7994L15.6271 29.7982L15.4905 29.7205C15.1616 29.5302 14.7717 29.4749 14.4028 29.5661C14.2966 29.2232 14.0741 28.9281 13.7737 28.7317L13.5999 28.629L13.6003 28.6283C13.3299 28.4717 13.0164 28.4055 12.7057 28.4394C12.6793 27.9394 12.4369 27.5183 12.0245 27.2801L11.9152 27.2169C11.5768 27.0219 11.1749 26.9691 10.7976 27.0701C10.4203 27.1711 10.0985 27.4177 9.90286 27.7557L9.71431 28.0822C9.32956 27.6929 9.2331 27.6516 8.58756 27.2299C8.42482 27.1235 8.31626 27.0258 8.13989 27.0112C7.67647 26.9699 7.22116 26.8637 6.78733 26.6956L6.78799 26.6941C6.61287 26.6229 6.44758 26.5297 6.29614 26.4165L11.7605 19.6095ZM11.6868 17.6118L10.133 16.3643C10.0543 16.3023 9.95439 16.2736 9.85479 16.2846C9.7552 16.2956 9.66393 16.3454 9.60072 16.4231L3.16676 24.4383C3.10467 24.517 3.07603 24.6169 3.08703 24.7165C3.09803 24.8161 3.14778 24.9074 3.22553 24.9706L4.77931 26.2179C4.85797 26.28 4.95789 26.3086 5.05748 26.2976C5.15707 26.2866 5.24834 26.2369 5.31156 26.1592L11.7459 18.1441C11.808 18.0655 11.8367 17.9656 11.8258 17.866C11.8149 17.7664 11.7652 17.6751 11.6876 17.6118L11.6868 17.6118ZM31.4111 26.9305C31.6407 27.1489 31.9416 27.2767 32.2582 27.2902C32.5748 27.3037 32.8855 27.2021 33.1329 27.004L34.6868 25.7567C34.9566 25.5392 35.1293 25.2235 35.1669 24.879C35.2045 24.5344 35.104 24.1889 34.8873 23.9183L31.6641 19.9031L32.3221 19.0511C32.5988 18.6909 32.7217 18.2358 32.6638 17.7853C32.606 17.3348 32.3721 16.9255 32.0134 16.6469L28.0785 13.6075C27.8463 13.4286 27.5722 13.3122 27.2823 13.2695C26.9923 13.2267 26.6962 13.259 26.4223 13.3632L25.0628 12.3009C25.737 11.022 26.0319 9.57713 25.913 8.13628C25.7941 6.69543 25.2662 5.31849 24.3915 4.16739C23.5168 3.0163 22.3315 2.1389 20.9752 1.63839C19.6188 1.13789 18.1478 1.03508 16.735 1.34206C15.3222 1.64904 14.0265 2.35304 13.0001 3.37128C11.9738 4.38952 11.2595 5.67964 10.9413 7.08995C10.6232 8.50025 10.7143 9.97208 11.204 11.3324C11.6938 12.6926 12.5617 13.8848 13.7058 14.7686L13.7314 14.7887C15.0742 15.8165 16.7217 16.3667 18.4126 16.3522C20.1036 16.3376 21.7414 15.7592 23.0663 14.7085L24.561 15.7831C24.5391 16.0097 24.5621 16.2383 24.6286 16.456C24.6952 16.6737 24.804 16.8761 24.9488 17.0517C24.7398 17.2644 24.6095 17.542 24.5794 17.8386C24.5494 18.1353 24.6214 18.4334 24.7835 18.6836C24.0372 18.9483 23.4205 19.1426 22.77 19.2439C21.953 19.3713 21.0464 19.3593 19.7033 19.1687C19.1288 19.0871 18.3798 19.2682 17.6509 19.5332C17.1935 19.6994 16.7461 19.8957 16.3599 20.0772C15.4624 20.1256 14.7185 19.8173 13.4647 19.2976C13.1349 19.161 12.772 19.0105 12.3704 18.851L12.4697 18.7274C12.6863 18.4568 12.7868 18.1114 12.7492 17.7668C12.7116 17.4222 12.5389 17.1066 12.269 16.8891L10.7152 15.6417C10.4446 15.4251 10.0992 15.3246 9.75458 15.3622C9.40999 15.3998 9.09437 15.5725 8.87686 15.8424L2.44254 23.8563C2.22593 24.1269 2.12541 24.4723 2.16301 24.8169C2.2006 25.1614 2.37325 25.4771 2.64312 25.6946L4.19698 26.942C4.39703 27.1023 4.63974 27.2004 4.89501 27.224C5.15027 27.2476 5.40686 27.1958 5.63295 27.075C5.87158 27.2743 6.13967 27.4355 6.42767 27.5527L6.42825 27.5512C6.9159 27.745 7.42796 27.8707 7.94996 27.9247L8.07835 28.0087C8.9279 28.564 8.6873 28.3799 9.23412 28.9144L8.8555 29.5719C8.66037 29.9102 8.60759 30.3122 8.70877 30.6894C8.80994 31.0666 9.0568 31.3882 9.39504 31.5834L9.3946 31.5842C9.71635 31.77 9.96782 31.8685 10.3473 31.8447C10.3674 32.0811 10.4444 32.3092 10.5715 32.5095C10.6987 32.7098 10.8724 32.8765 11.0778 32.9953L11.19 33.0589C11.5241 33.2494 11.9175 33.3076 12.2924 33.222C12.3977 33.5873 12.6405 33.8976 12.9698 34.0876C13.0723 34.115 13.6858 34.6401 14.5058 34.1327C14.6348 34.3903 14.8365 34.6043 15.086 34.7482L15.0856 34.749L15.1966 34.8121C15.4349 34.9495 15.7069 35.0174 15.9818 35.0083C16.2567 34.9991 16.5235 34.9132 16.7521 34.7603C17.5803 35.3741 18.4509 36.1142 19.3415 36.1586C20.1588 36.1994 20.668 35.6516 20.8814 34.9233C22.021 35.3302 23.0667 34.6432 23.2696 33.4733C24.3469 33.535 25.3244 32.8223 25.3986 31.6802C25.7311 31.711 26.0658 31.6544 26.3696 31.516C26.6735 31.3776 26.936 31.1623 27.131 30.8914C27.3261 30.6204 27.447 30.3032 27.4818 29.9711C27.5166 29.639 27.4641 29.3037 27.3294 28.9981C27.5801 28.9175 27.8211 28.8095 28.0482 28.6763C28.5786 28.36 29.1233 27.7688 29.1592 27.746L31.4117 26.9305H31.4111ZM28.7536 26.9049C28.687 26.9276 28.6266 26.9653 28.5768 27.0149C27.8786 27.7086 27.628 27.9627 26.6994 28.2165C26.3677 27.9852 25.8245 27.5399 25.3702 27.1717C23.17 25.39 20.1696 22.9602 17.7502 23.6263C17.0705 23.8134 16.4513 24.1914 15.9489 24.4982C15.5191 24.7607 15.1048 25.0348 14.6522 25.0357C14.4063 25.0361 14.0213 24.9653 13.8521 24.7702C13.7081 24.6041 13.673 24.2759 13.7159 24.0842C13.7405 23.9741 13.8286 23.882 13.9749 23.7293C14.4498 23.2134 14.8976 22.6731 15.3164 22.1107C15.6232 21.7097 15.8862 21.3451 16.2258 21.1758C17.0798 20.75 18.7383 19.9696 19.5759 20.0886C21.0123 20.2927 21.9999 20.3024 22.9119 20.1603C23.7332 20.0322 24.4637 19.7868 25.3921 19.4516L30.7851 26.1694L28.7536 26.9049Z" fill="#0075FF"/>
</svg>
