<svg width="162" height="41" viewBox="0 0 162 41" fill="none" xmlns="http://www.w3.org/2000/svg">
<path d="M58.716 33.452H53.3046L50.4185 29.7889C44.7295 29.4559 41.2606 25.765 41.2606 20.2426C41.2606 14.4426 45.0903 10.6685 51.251 10.6685C57.5505 10.6685 61.3523 14.4426 61.3523 20.2426C61.3523 24.766 59.049 28.0683 55.0251 29.2894L58.716 33.452ZM51.251 25.8205C55.3304 25.8205 56.9122 24.3775 56.9122 20.2426C56.9122 16.1077 55.3304 14.6646 51.251 14.6646C47.1716 14.6646 45.673 16.1077 45.673 20.2426C45.673 24.3775 47.1716 25.8205 51.251 25.8205Z" fill="white"/>
<path d="M68.9121 29.8167C64.9992 29.8167 63.1399 27.4023 63.1399 24.2942V15.6359H67.3026V22.9067C67.3026 25.1545 68.2461 26.098 70.8824 26.098C73.602 26.098 74.5733 25.0435 74.5733 22.6846V15.6359H78.736V29.5391H74.8508V25.2932H74.6288C74.2681 27.6243 72.5752 29.8167 68.9121 29.8167Z" fill="white"/>
<path d="M85.027 14.2206H80.8643V10.946H85.027V14.2206ZM85.027 29.5391H80.8643V15.6359H85.027V29.5391Z" fill="white"/>
<path d="M93.4221 29.8167C89.0929 29.8167 86.7064 26.986 86.7064 22.6014C86.7064 18.1612 89.0652 15.3584 93.2001 15.3584C96.5025 15.3584 98.1953 16.9957 98.667 19.3268H98.9168V10.946H103.079V29.5391H99.1943V25.6818H98.9723C98.445 28.4291 96.6135 29.8167 93.4221 29.8167ZM90.9245 22.6014C90.9245 25.1267 92.1733 26.0148 94.8374 26.0148C97.4737 26.0148 98.9168 25.099 98.9168 22.6846V22.4626C98.9168 20.0483 97.5015 19.1603 94.8374 19.1603C92.1733 19.1603 90.9245 20.0483 90.9245 22.6014Z" fill="white"/>
<path d="M109.445 29.5391H105.282V10.946H109.445V19.8818H109.667C110.111 17.523 111.748 15.3584 115.3 15.3584C119.046 15.3584 120.878 17.8005 120.878 21.0196V29.5391H116.715V22.2684C116.715 19.9373 115.716 19.1048 113.108 19.1048C110.305 19.1048 109.445 20.2426 109.445 22.5736V29.5391Z" fill="white"/>
<path d="M127.141 14.2206H122.979V10.946H127.141V14.2206ZM127.141 29.5391H122.979V15.6359H127.141V29.5391Z" fill="white"/>
<path d="M139.671 29.5391H134.537L128.21 15.6359H132.845L137.007 25.4875H137.285L141.475 15.6359H146.026L139.671 29.5391Z" fill="white"/>
<path d="M154.507 29.8167C149.873 29.8167 146.709 27.5411 146.709 22.6014C146.709 18.1612 149.845 15.3584 154.424 15.3584C158.975 15.3584 162 17.745 162 22.1019C162 22.6014 161.944 22.9622 161.889 23.4339H150.566C150.677 25.5707 151.676 26.4865 154.368 26.4865C156.838 26.4865 157.698 25.8483 157.698 24.655V24.3775H161.861V24.6827C161.861 27.7076 158.919 29.8167 154.507 29.8167ZM154.341 18.6052C151.871 18.6052 150.816 19.4378 150.622 21.2416H158.004C157.893 19.41 156.783 18.6052 154.341 18.6052Z" fill="white"/>
<path d="M16.2498 7.84033C23.0977 0.731681 31.7638 -2.05337 35.6062 1.61963C39.4485 5.29299 37.012 14.0341 30.1638 21.1431C28.7816 22.578 27.3232 23.8339 25.8474 24.8989C30.8025 30.4463 32.4284 37.0376 29.4558 39.772C26.4193 42.5652 19.7357 40.2742 14.5281 34.6558C11.3614 31.2392 9.47161 27.3787 9.15796 24.2495C8.2609 19.8981 10.9185 13.3746 16.2498 7.84033Z" fill="#4D61F4"/>
<path d="M1.41066 4.72632L1.06228 4.97166C1.06114 4.97052 1.06 4.96937 1.06 4.96823L0 5.71344C13.3813 24.8723 1.9498 39.3431 1.91782 39.3855C2.23536 39.1264 2.55861 38.8008 2.88187 38.4156C7.00878 34.0464 11.3721 19.4024 1.41066 4.72632Z" fill="#D9FF78"/>
</svg>
