<svg width="35" height="35" viewBox="0 0 35 35" fill="none" xmlns="http://www.w3.org/2000/svg">
<g clip-path="url(#clip0_1290_26026)">
<rect width="35" height="35" rx="17.5" fill="#FD668A"/>
<path d="M12.0554 12.98C12.1469 13.2107 12.2966 13.4221 12.48 13.6142C12.9144 14.0686 13.5388 14.4126 14.0328 14.6366C14.0317 14.6615 14.0303 14.693 14.0286 14.7316C14.0146 15.0766 13.976 15.9534 13.9104 17.0364C13.7902 19.0267 13.5791 21.7127 13.2622 23.0705C13.2731 23.0674 13.2808 23.0649 13.2846 23.0635H13.285C13.285 23.0635 13.2864 23.0628 13.2871 23.0628C13.2874 23.0628 13.2874 23.0625 13.2874 23.0625L13.3015 23.487C13.3015 23.487 16.488 28.2923 16.4109 28.6264C16.387 28.7291 16.1406 29.0475 15.7973 29.4433C17.0178 29.8735 18.0752 29.6179 18.0752 29.6179C17.6541 29.1432 17.3354 28.7439 17.3084 28.6264C17.2313 28.2923 20.4178 23.487 20.4178 23.487L20.4319 23.0625L20.5227 20.2941C21.3462 20.5708 22.2034 20.71 22.9751 20.5452C23.2973 20.4765 23.6044 20.3545 23.888 20.1676C28.0258 17.4413 21.5864 8.42578 21.5864 8.42578C21.5864 8.42578 21.5801 8.90505 21.0962 9.21252C20.9083 9.33172 20.6485 9.42498 20.2892 9.45408C19.0035 9.55821 17.1622 8.70696 16.1027 8.60283C15.0432 8.4987 14.991 8.72449 14.991 8.72449C14.991 8.72449 15.7381 11.1738 15.6336 11.6425C15.5295 12.1116 15.3212 12.5979 15.3212 12.5979C15.3212 12.5979 14.9563 10.7047 14.0703 10.6871C13.1844 10.6699 11.5516 11.7123 12.0554 12.98Z" fill="#F3BBB0" stroke="black" stroke-width="0.280477" stroke-linecap="round" stroke-linejoin="round"/>
<path d="M12.4771 37.6768H20.7273V29.848H12.4771L12.4771 37.6768Z" fill="#BF9EF9" stroke="black" stroke-width="0.280477" stroke-linecap="round" stroke-linejoin="round"/>
<path d="M5.28569 35.9419C5.9136 36.3416 8.62616 35.9212 10.0433 35.6653C9.476 35.0587 9.05809 34.5711 8.91751 34.319C8.28188 33.1795 7.23044 31.1198 7.23044 31.1198L9.39957 29.7178L7.51512 28.0963C7.51512 28.0963 9.67304 25.1534 10.5134 24.2881C10.4798 24.2972 9.65866 24.5198 8.53956 24.8424C6.22318 25.5096 2.63027 26.6027 2.10684 27.1086C1.89858 27.3099 1.7033 27.55 1.5273 27.7965C1.04278 28.4749 0.705154 29.2017 0.647656 29.2974C0.569474 29.4278 4.42567 35.3946 5.28569 35.9419Z" fill="#4C70F5" stroke="black" stroke-width="0.280477" stroke-linecap="round" stroke-linejoin="round"/>
<path d="M7.3002 28.1314C7.3002 28.1314 8.15916 29.8259 8.69171 30.4086C9.22427 30.9909 7.1526 31.2546 7.07687 31.5743C7.00149 31.894 8.11288 37.2427 9.29369 38.0298C10.4745 38.8169 12.8081 36.9647 13.0216 36.6404C13.2351 36.3161 13.2298 31.0372 13.0216 30.8054C12.8133 30.574 10.9145 27.7027 10.7525 27.6795C10.5905 27.6564 7.3002 28.1311 7.3002 28.1311V28.1314Z" fill="#2253DD"/>
<path d="M1.52734 27.7969C1.88986 28.003 2.33021 28.0893 2.75057 28.0644C3.40023 28.0262 4.01377 27.7604 4.5919 27.4624C5.17003 27.1641 5.73379 26.8271 6.35259 26.6266C6.69547 26.5151 7.05133 26.4471 7.39246 26.3311C7.73359 26.215 8.06771 26.0439 8.2998 25.7683C8.51331 25.5145 8.62515 25.159 8.53961 24.8428C6.22322 25.51 2.63032 26.6031 2.10688 27.109C1.89862 27.3103 1.70334 27.5504 1.52734 27.7969Z" fill="#80A1FF"/>
<path d="M8.91751 34.319C9.05809 34.5711 9.476 35.0587 10.0433 35.6653C8.62616 35.9212 5.9136 36.3416 5.28569 35.9419C4.42567 35.3946 0.569474 29.4278 0.647656 29.2974C0.725839 29.167 1.32501 27.8642 2.10684 27.1086C2.88305 26.3584 10.41 24.3161 10.5134 24.2881C9.67304 25.1534 7.51512 28.0963 7.51512 28.0963L9.39957 29.7178L7.23044 31.1198C7.23044 31.1198 8.28188 33.1795 8.91751 34.319Z" stroke="black" stroke-width="0.280477" stroke-linecap="round" stroke-linejoin="round"/>
<path d="M12.4798 13.6143C12.2964 13.4222 12.1467 13.2107 12.0552 12.98C11.5514 11.7123 13.1841 10.67 14.0701 10.6872C14.9561 10.7047 15.321 12.5979 15.321 12.5979C15.321 12.5979 15.5293 12.1116 15.6334 11.6425C15.7379 11.1738 14.9908 8.72452 14.9908 8.72452C14.9908 8.72452 15.043 8.49873 16.1025 8.60286C17.162 8.70699 19.0033 9.55823 20.289 9.45411C21.5742 9.34963 21.5862 8.42581 21.5862 8.42581C21.5862 8.42581 22.1485 7.95356 22.5489 7.25868C22.9959 6.48316 23.2413 5.43067 22.2782 4.449C21.3429 3.49503 20.473 3.67629 19.6204 4.1815C18.8466 4.64008 18.0869 5.36616 17.3047 5.75287C17.19 5.80967 17.067 5.8584 16.9369 5.90082C15.199 6.47229 12.1797 5.94394 10.9137 7.96618C10.7934 8.15866 10.6953 8.35008 10.6171 8.54081C9.81281 10.5041 11.1521 12.3504 12.4798 13.6143Z" fill="#6D1249" stroke="black" stroke-width="0.280477" stroke-linecap="round" stroke-linejoin="round"/>
<path d="M13.1797 23.3841C13.2077 23.2905 13.2351 23.186 13.2614 23.0724C13.2614 23.0717 13.2614 23.071 13.2621 23.0703" stroke="black" stroke-width="0.280477" stroke-linecap="round" stroke-linejoin="round"/>
<path d="M24.8015 34.319C24.6609 34.5711 24.243 35.0587 23.6757 35.6653C25.0928 35.9212 27.8054 36.3416 28.4333 35.9419C29.2933 35.3946 33.1495 29.4278 33.0713 29.2974C32.9931 29.167 32.394 27.8642 31.6121 27.1086C30.8359 26.3584 23.309 24.3161 23.2056 24.2881C24.0459 25.1534 26.2039 28.0963 26.2039 28.0963L24.3194 29.7178L26.4885 31.1198C26.4885 31.1198 25.4371 33.1795 24.8015 34.319Z" fill="#4C70F5" stroke="black" stroke-width="0.280477" stroke-linecap="round" stroke-linejoin="round"/>
<path d="M24.8015 34.319C24.6609 34.5711 24.243 35.0587 23.6757 35.6653C25.0928 35.9212 27.8054 36.3416 28.4333 35.9419C29.2919 35.3953 33.1386 29.445 33.0717 29.2981C33.0717 29.2977 33.0713 29.2977 33.0713 29.2974C32.9931 29.167 32.394 27.8642 31.6121 27.1086C31.1515 26.6634 28.313 25.763 26.0598 25.099C24.5164 24.6436 23.2476 24.2997 23.2056 24.2881C24.0459 25.1534 26.2039 28.0963 26.2039 28.0963L24.3194 29.7178L26.4885 31.1198C26.4885 31.1198 25.4371 33.1795 24.8015 34.319Z" fill="#4C70F5" stroke="black" stroke-width="0.280477" stroke-linecap="round" stroke-linejoin="round"/>
<path d="M7.23047 31.1204C7.23047 31.1204 8.28191 33.1801 8.91754 34.3196C9.05812 34.5716 9.47603 35.0593 10.0433 35.6658C12.0389 37.8006 15.8779 41.404 15.9291 41.3529C15.968 41.3139 14.7006 36.1342 13.6467 31.5993C13.4868 30.9107 13.3315 30.2369 13.1867 29.5984C12.6794 27.362 12.2976 25.5564 12.2699 25.0512C12.1903 23.5987 13.0942 23.1443 13.2614 23.0728C13.2691 23.0696 13.2754 23.0672 13.2796 23.0654C13.2754 23.0668 13.2695 23.0686 13.2621 23.0707C13.1348 23.1117 12.5536 23.3007 11.9649 23.5237C11.4741 23.7098 10.978 23.9195 10.7361 24.0871C10.6803 24.1256 10.6046 24.195 10.5134 24.2887C9.67307 25.1539 7.51515 28.0968 7.51515 28.0968L9.3996 29.7183L7.23047 31.1204Z" fill="#4C70F5" stroke="black" stroke-width="0.280477" stroke-linecap="round" stroke-linejoin="round"/>
<path d="M23.2046 24.2881C23.2046 24.2881 23.2049 24.2881 23.2056 24.2884" stroke="black" stroke-width="0.280477" stroke-linecap="round" stroke-linejoin="round"/>
<path d="M15.2261 30.0772C15.2261 30.0772 15.8876 32.09 16.2382 32.2846C16.5888 32.4795 17.6273 32.5184 17.7314 32.4276C17.8352 32.3365 18.8807 30.486 18.8807 30.486C18.6027 30.1985 18.3211 29.8956 18.075 29.618C18.075 29.618 17.0176 29.8735 15.7972 29.4434C15.6254 29.6414 15.4301 29.8585 15.2261 30.0772Z" fill="#E86F3A" stroke="black" stroke-width="0.280477" stroke-linecap="round" stroke-linejoin="round"/>
<path d="M14.9787 37.2416C14.998 37.3222 16.8828 40.2907 17.0535 40.3118C17.2243 40.3332 18.5951 37.8513 18.5951 37.8513L17.7316 32.4272C17.6275 32.518 16.589 32.4791 16.2384 32.2842C16.2384 32.2842 14.9598 37.1613 14.9787 37.2416Z" fill="#E86F3A" stroke="black" stroke-width="0.280477" stroke-linecap="round" stroke-linejoin="round"/>
<path d="M26.0598 25.0996C26.3473 25.3138 26.6572 25.5049 26.9181 25.6988C27.5495 26.1686 28.1813 26.6387 28.8127 27.1089C29.4999 27.62 30.1867 28.1312 30.8738 28.6424C31.3426 28.9912 31.8432 29.353 32.4249 29.4084C32.6415 29.4291 32.8694 29.3881 33.0717 29.2987C33.0717 29.2983 33.0714 29.2983 33.0714 29.298C32.9932 29.1676 32.394 27.8648 31.6122 27.1092C31.1515 26.664 28.3131 25.7636 26.0598 25.0996Z" fill="#80A1FF"/>
<path d="M11.6036 26.1216C11.7218 27.4139 12.2904 28.6602 13.1866 29.5984C12.6793 27.362 12.2975 25.5564 12.2698 25.0512C12.1902 23.5987 13.094 23.1443 13.2612 23.0728C13.269 23.0696 13.2753 23.0672 13.2795 23.0654C13.2753 23.0668 13.2693 23.0686 13.2619 23.0707C13.1347 23.1117 12.5534 23.3007 11.9647 23.5237C11.651 24.3479 11.523 25.2433 11.6036 26.1216Z" fill="#80A1FF"/>
<path d="M19.6204 4.1815C19.6354 4.19622 19.6516 4.20955 19.6684 4.22182C19.8377 4.34698 20.0558 4.38099 20.25 4.46303C20.6921 4.64989 20.9866 5.07587 21.1861 5.51201C21.386 5.9485 21.5171 6.4176 21.7625 6.8299C21.8999 7.06024 22.1096 7.28988 22.3778 7.28988C22.4377 7.28988 22.4945 7.27866 22.5489 7.25868C22.9959 6.48316 23.2413 5.43067 22.2782 4.449C21.3428 3.49503 20.473 3.67629 19.6204 4.1815Z" fill="#932A6E"/>
<path d="M10.6172 8.54038C10.6596 8.58876 10.708 8.63188 10.7623 8.66799C11.0723 8.87344 11.4975 8.80402 11.8215 8.62101C12.1454 8.438 12.4028 8.15928 12.6941 7.92789C13.1874 7.53627 13.7866 7.27928 14.4103 7.19163C14.7847 7.13905 15.1658 7.14641 15.5406 7.09522C15.9154 7.04438 16.2968 6.92658 16.5707 6.66574C16.78 6.46625 16.909 6.18788 16.937 5.90039C15.1991 6.47186 12.1798 5.94351 10.9138 7.96575C10.7935 8.15823 10.6954 8.34965 10.6172 8.54038Z" fill="#932A6E"/>
<path d="M7.23047 31.1202C7.23047 31.1202 8.28191 33.1799 8.91754 34.3194C9.05812 34.5714 9.47603 35.0591 10.0433 35.6656C12.0389 37.8004 15.8779 41.4038 15.9291 41.3527C15.968 41.3137 14.7006 36.134 13.6467 31.5991C12.9262 28.4991 12.3057 25.7003 12.2699 25.051C12.1903 23.5985 13.0942 23.1441 13.2614 23.0726C13.2726 23.068 13.2803 23.0649 13.2846 23.0635C13.2807 23.0649 13.273 23.0673 13.2621 23.0705C13.0286 23.1459 11.2676 23.7187 10.7361 24.0869C10.6803 24.1254 10.6046 24.1948 10.5134 24.2885C9.67307 25.1537 7.51515 28.0966 7.51515 28.0966L9.3996 29.7181L7.23047 31.1202Z" stroke="black" stroke-width="0.280477" stroke-linecap="round" stroke-linejoin="round"/>
<path d="M24.8015 34.319C24.6609 34.5711 24.243 35.0587 23.6757 35.6653C25.0928 35.9212 27.8054 36.3416 28.4333 35.9419C29.2933 35.3946 33.1495 29.4278 33.0713 29.2974C32.9931 29.167 32.394 27.8642 31.6121 27.1086C30.8359 26.3584 23.309 24.3161 23.2056 24.2881C24.0459 25.1534 26.2039 28.0963 26.2039 28.0963L24.3194 29.7178L26.4885 31.1198C26.4885 31.1198 25.4371 33.1795 24.8015 34.319Z" stroke="black" stroke-width="0.280477" stroke-linecap="round" stroke-linejoin="round"/>
<path d="M23.089 15.8917C23.1938 17.0711 23.1847 18.261 23.0567 19.4387C23.0171 19.8061 22.9659 20.1778 22.975 20.5452C23.2972 20.4765 23.6044 20.3545 23.888 20.1676C28.0257 17.4413 21.5863 8.42578 21.5863 8.42578C21.5863 8.42578 21.58 8.90505 21.0962 9.21252C21.2399 9.42147 21.3816 9.62377 21.4713 9.818C22.3548 11.7294 22.9021 13.7945 23.089 15.8917Z" fill="#F9DFDC"/>
<path d="M13.9102 17.0361C14.0167 16.9309 14.0865 16.7942 14.1542 16.6603C14.3288 16.3142 14.5041 15.9689 14.6783 15.6228C14.7905 15.4002 14.9044 15.159 14.7186 14.9402C14.5528 14.745 14.2913 14.6934 14.0283 14.7313C14.0143 15.0763 13.9757 15.9531 13.9102 17.0361Z" fill="#F09E8B"/>
<path d="M16.7528 18.2178C16.7528 18.2178 16.9467 22.2352 20.4456 22.6374L20.5224 20.2937C20.5224 20.2937 17.5507 18.8793 16.7524 18.2178H16.7528Z" fill="#ED7D66"/>
<path d="M14.7307 12.8876C14.6669 12.6201 14.492 12.4104 14.2322 12.2169C13.9724 12.0234 13.5464 11.9298 13.2162 12.0549C13.0307 12.1254 12.8876 12.2793 12.9364 12.4276C12.9784 12.5566 13.1443 12.6408 13.3035 12.7039C13.7764 12.8914 14.1396 12.9244 14.6771 12.95" fill="#ED7D66"/>
<path d="M26.2616 28.1314C26.2616 28.1314 25.4027 29.8259 24.8701 30.4086C24.3376 30.9909 26.4092 31.2546 26.4849 31.5743C26.5603 31.894 25.4489 37.2427 24.2681 38.0298C23.0873 38.8169 20.7538 36.9647 20.5402 36.6404C20.3267 36.3161 20.332 31.0372 20.5402 30.8054C20.7485 30.574 22.6473 27.7027 22.8093 27.6795C22.9713 27.6564 26.2616 28.1311 26.2616 28.1311V28.1314Z" fill="#2253DD"/>
<path d="M17.7899 41.3527C17.8411 41.4038 21.6801 37.8004 23.6757 35.6656C24.243 35.0591 24.6609 34.5714 24.8015 34.3194C25.4371 33.1799 26.4886 31.1202 26.4886 31.1202L24.3194 29.7181L26.2039 28.0966C26.2039 28.0966 24.046 25.1537 23.2056 24.2885C23.1144 24.1948 23.0387 24.1254 22.983 24.0869C22.9528 24.0658 22.9188 24.0444 22.8813 24.0224C22.2986 23.6802 20.8846 23.2097 20.519 23.0908C20.473 23.0757 20.4439 23.0666 20.4345 23.0635C20.4436 23.067 20.4716 23.0779 20.513 23.0985C20.7668 23.2258 21.522 23.718 21.4491 25.051C21.4158 25.6537 20.879 28.1071 20.2262 30.9351C20.1754 31.1545 20.1242 31.3761 20.0723 31.5991C19.0184 36.134 17.751 41.3137 17.7899 41.3527Z" fill="#4C70F5" stroke="black" stroke-width="0.280477" stroke-linecap="round" stroke-linejoin="round"/>
<path d="M20.2263 30.935C20.2281 30.9428 20.2295 30.9508 20.2312 30.9585C21.0429 29.877 21.7272 28.733 22.2749 27.5437C22.5785 26.8839 22.8414 26.2062 22.9424 25.4984C23.0118 25.0138 23.003 24.5142 22.8814 24.0224C22.2987 23.6802 20.8847 23.2097 20.5191 23.0908C20.517 23.0933 20.5149 23.0957 20.5131 23.0985C20.7669 23.2258 21.5221 23.718 21.4492 25.051C21.4159 25.6537 20.8791 28.1071 20.2263 30.935Z" fill="#80A1FF"/>
<path d="M17.7899 41.3527C17.8411 41.4038 21.6801 37.8004 23.6757 35.6656C24.243 35.0591 24.6609 34.5714 24.8015 34.3194C25.4371 33.1799 26.4886 31.1202 26.4886 31.1202L24.3194 29.7181L26.2039 28.0966C26.2039 28.0966 24.046 25.1537 23.2056 24.2885C23.1144 24.1948 23.0387 24.1254 22.983 24.0869C22.4266 23.7016 20.5235 23.0919 20.4345 23.0635C20.4997 23.088 21.5339 23.5017 21.4491 25.051C21.4133 25.7003 20.7928 28.4991 20.0723 31.5991C19.0184 36.134 17.751 41.3137 17.7899 41.3527Z" stroke="black" stroke-width="0.280477" stroke-linecap="round" stroke-linejoin="round"/>
<path d="M20.5224 20.2937C18.577 19.6398 16.8191 18.2178 16.8191 18.2178" stroke="black" stroke-width="0.280477" stroke-linecap="round" stroke-linejoin="round"/>
<path d="M14.0327 14.6367C14.4776 14.8387 14.8173 14.9431 14.8173 14.9431" stroke="black" stroke-width="0.280477" stroke-linecap="round" stroke-linejoin="round"/>
<path d="M12.0554 12.98C12.1469 13.2107 12.2966 13.4221 12.48 13.6142C12.9144 14.0686 13.5388 14.4126 14.0328 14.6366C14.0065 15.2929 13.7709 20.8916 13.2622 23.0705C13.2731 23.0674 13.2808 23.0649 13.2846 23.0635H13.285C13.285 23.0635 13.2864 23.0628 13.2871 23.0628C13.2874 23.0628 13.2874 23.0625 13.2874 23.0625L13.3015 23.487C13.3015 23.487 16.488 28.2923 16.4109 28.6264C16.387 28.7291 16.1406 29.0475 15.7973 29.4433C17.0178 29.8735 18.0752 29.6179 18.0752 29.6179C17.6541 29.1432 17.3354 28.7439 17.3084 28.6264C17.2313 28.2923 20.4178 23.487 20.4178 23.487L20.4319 23.0625L20.5227 20.2941C21.6902 20.6865 22.925 20.8022 23.888 20.1676C28.0258 17.4413 21.5864 8.42578 21.5864 8.42578C21.5864 8.42578 21.5745 9.3496 20.2892 9.45408C19.0035 9.55821 17.1622 8.70696 16.1027 8.60283C15.0432 8.4987 14.991 8.72449 14.991 8.72449C14.991 8.72449 15.7381 11.1738 15.6336 11.6425C15.5295 12.1116 15.3212 12.5979 15.3212 12.5979C15.3212 12.5979 14.9563 10.7047 14.0703 10.6871C13.1844 10.6699 11.5516 11.7123 12.0554 12.98Z" stroke="black" stroke-width="0.280477" stroke-linecap="round" stroke-linejoin="round"/>
<path d="M17.3082 28.56C17.3352 28.6775 17.6538 29.0768 18.0749 29.5515C18.321 29.8292 18.6026 30.1321 18.8806 30.4196C19.3437 30.8978 19.7991 31.3326 20.0723 31.5327C20.1823 31.0584 20.2903 30.591 20.3941 30.1374C20.9691 27.6264 21.4189 25.5348 21.449 24.9847C21.5339 23.4354 20.4996 23.0217 20.4344 22.9971C20.4344 22.9971 20.433 22.9964 20.4323 22.9964C20.432 22.9964 20.432 22.9961 20.432 22.9961L20.4295 23.0746L20.4179 23.4207C20.4179 23.4207 17.2314 28.2259 17.3085 28.56H17.3082Z" fill="#F5D256" stroke="black" stroke-width="0.280477" stroke-linecap="round" stroke-linejoin="round"/>
<path d="M12.2696 24.9847C12.3001 25.5362 12.752 27.638 13.3291 30.1581C13.4315 30.6054 13.5377 31.0658 13.6464 31.5327C13.9963 31.2761 14.6449 30.6352 15.2258 30.0108C15.4299 29.792 15.6251 29.575 15.7969 29.3769C16.1402 28.9811 16.3866 28.6628 16.4105 28.56C16.4876 28.2259 13.3011 23.4207 13.3011 23.4207L13.2884 23.0396L13.287 22.9961C13.287 22.9961 13.287 22.9964 13.2867 22.9964C13.286 22.9964 13.2853 22.9968 13.2846 22.9971H13.2842C13.28 22.9985 13.2723 23.0017 13.2611 23.0063C13.0938 23.0778 12.19 23.5322 12.2696 24.9847Z" fill="#F5D256" stroke="black" stroke-width="0.280477" stroke-linecap="round" stroke-linejoin="round"/>
<path d="M23.6012 4.53223C24.0149 4.93857 24.1422 5.58086 24.0117 6.14602C23.8813 6.71118 23.5227 7.20306 23.0911 7.59012C22.6595 7.97718 22.1539 8.27168 21.6526 8.56338C22.1259 8.69871 22.7559 8.74604 23.2124 8.56232C23.6689 8.37861 24.0612 8.03924 24.3087 7.61396" stroke="black" stroke-width="0.280477" stroke-linecap="round" stroke-linejoin="round"/>
<path d="M12.4798 13.6143C12.2965 13.4221 12.1468 13.2107 12.0553 12.98C11.5515 11.7123 13.1842 10.6699 14.0701 10.6871C14.9561 10.7047 15.3211 12.5979 15.3211 12.5979C15.3211 12.5979 15.5293 12.1116 15.6334 11.6425C15.7379 11.1738 14.9908 8.72449 14.9908 8.72449C14.9908 8.72449 15.043 8.49871 16.1025 8.60284C17.162 8.70696 19.0034 9.55821 20.289 9.45408C21.5743 9.3496 21.5862 8.42578 21.5862 8.42578C21.5862 8.42578 24.1042 6.31064 22.2783 4.44898C20.4937 2.62939 18.9483 4.93981 17.3047 5.75284C15.6611 6.56587 12.2747 5.79246 10.9137 7.96615C9.55271 10.1402 11.0235 12.2276 12.4798 13.6143Z" stroke="black" stroke-width="0.280477" stroke-linecap="round" stroke-linejoin="round"/>
<path d="M12.2696 24.9847C12.3001 25.5362 12.752 27.638 13.3291 30.1581C13.4427 30.0936 13.5338 29.987 13.5931 29.8692C13.6755 29.7047 13.7042 29.5186 13.7246 29.3352C13.8234 28.4331 13.7375 27.5114 13.4739 26.643C13.2811 26.0088 12.9939 25.3994 12.8923 24.7445C12.7997 24.1489 12.8933 23.481 13.2884 23.0396L13.287 22.9961C13.287 22.9961 13.287 22.9964 13.2867 22.9964C13.286 22.9964 13.2853 22.9968 13.2846 22.9971H13.2842C13.28 22.9985 13.2723 23.0017 13.2611 23.0063C13.0938 23.0778 12.19 23.5322 12.2696 24.9847Z" fill="#CEA625"/>
<path d="M20.3943 30.1374C20.9692 27.6264 21.4191 25.5348 21.4492 24.9847C21.534 23.4354 20.4998 23.0217 20.4346 22.9971C20.4346 22.9971 20.4332 22.9964 20.4325 22.9964C20.4321 22.9964 20.4321 22.9961 20.4321 22.9961L20.4297 23.0746C20.7094 23.1574 20.9223 23.4228 21.0004 23.7096C21.0881 24.0328 21.0359 24.3767 20.9573 24.7021C20.8031 25.3391 20.5506 25.9467 20.3329 26.5648C20.1155 27.1829 19.9308 27.8224 19.9199 28.4777C19.9101 29.0628 20.0528 29.6669 20.3946 30.1374H20.3943Z" fill="#CEA625"/>
<path d="M17.3082 28.6265C17.3352 28.7439 17.6538 29.1432 18.0749 29.6179C18.321 29.8956 18.6026 30.1985 18.8806 30.486C19.3437 30.9642 19.7991 31.399 20.0723 31.5992C20.7927 28.4992 21.4133 25.7004 21.449 25.0511C21.5339 23.5018 20.4996 23.0881 20.4344 23.0636C20.4344 23.0636 20.433 23.0629 20.4323 23.0629C20.432 23.0629 20.432 23.0625 20.432 23.0625L20.4179 23.4871C20.4179 23.4871 17.2314 28.2923 17.3085 28.6265H17.3082Z" stroke="black" stroke-width="0.280477" stroke-linecap="round" stroke-linejoin="round"/>
<path d="M12.2696 25.0511C12.3054 25.7004 12.9259 28.4992 13.6464 31.5992C13.9963 31.3425 14.6449 30.7016 15.2258 30.0772C15.4299 29.8584 15.6251 29.6414 15.7969 29.4433C16.1402 29.0475 16.3866 28.7292 16.4105 28.6265C16.4876 28.2923 13.3011 23.4871 13.3011 23.4871L13.287 23.0625C13.287 23.0625 13.287 23.0629 13.2867 23.0629C13.286 23.0629 13.2853 23.0629 13.2846 23.0636H13.2842C13.28 23.065 13.2723 23.0681 13.2611 23.0727C13.0938 23.1442 12.19 23.5986 12.2696 25.0511Z" stroke="black" stroke-width="0.280477" stroke-linecap="round" stroke-linejoin="round"/>
<path d="M14.6696 12.848C14.3923 12.3109 13.7829 11.9638 13.1792 11.9996" stroke="black" stroke-width="0.280477" stroke-linecap="round" stroke-linejoin="round"/>
<path d="M14.0349 12.3311C13.826 12.4113 13.6444 12.5614 13.5259 12.7514" stroke="black" stroke-width="0.280477" stroke-linecap="round" stroke-linejoin="round"/>
<path d="M21.1214 16.9014C21.0443 16.8951 20.3992 17.1752 19.6749 16.527C18.9505 15.8787 19.2549 15.1484 19.2549 15.1484" stroke="black" stroke-width="0.280477" stroke-linecap="round" stroke-linejoin="round"/>
<path d="M19.7289 15.1084C19.7289 15.1084 19.2307 14.9054 18.8103 15.4372" stroke="black" stroke-width="0.280477" stroke-linecap="round" stroke-linejoin="round"/>
<path d="M21.6388 13.3037C21.6388 13.3037 22.6685 14.8761 22.3743 15.1489C22.0802 15.4217 21.3594 14.9427 21.3594 14.9427" stroke="black" stroke-width="0.280477" stroke-linecap="round" stroke-linejoin="round"/>
</g>
<defs>
<clipPath id="clip0_1290_26026">
<rect width="35" height="35" rx="17.5" fill="white"/>
</clipPath>
</defs>
</svg>
