<svg width="35" height="35" viewBox="0 0 35 35" fill="none" xmlns="http://www.w3.org/2000/svg">
<g clip-path="url(#clip0_1290_26029)">
<rect width="35" height="35" rx="17.5" fill="#C2EFFF"/>
<path d="M14.1184 7.54399C14.0199 7.76031 13.9968 7.90756 13.9968 7.90756C13.9968 7.90756 12.8006 9.39338 11.6811 11.3644C11.6811 11.3644 11.5752 8.19925 13.1974 7.00653C13.2668 6.95534 13.3314 6.91747 13.391 6.89083H13.3913C14.0038 6.61561 14.1156 7.52225 14.1184 7.54399Z" fill="#3D0027" stroke="black" stroke-width="0.280477" stroke-linecap="round" stroke-linejoin="round"/>
<path d="M15.2951 6.35449C14.5985 6.72157 14.2696 7.21345 14.1185 7.54476C14.1157 7.52303 14.0038 6.61639 13.3914 6.89125C13.4033 6.87513 13.8037 6.36396 15.2951 6.35449Z" fill="#3D0027" stroke="black" stroke-width="0.280477" stroke-linecap="round" stroke-linejoin="round"/>
<path d="M34.0382 27.6055C33.4748 29.0398 31.055 31.7418 27.5161 33.9464C24.9848 35.5233 21.8806 36.8458 18.4739 37.2669C17.7944 37.3514 17.1031 37.3994 16.4019 37.4067C13.4734 37.4372 10.9 36.5909 8.75504 35.4266C4.20992 32.9594 1.58887 29.0647 1.58887 29.0647C1.58887 29.0647 2.62733 27.6171 4.10895 26.5085C4.11456 26.5039 4.12052 26.4994 4.12648 26.4952C5.61721 25.3852 14.1816 24.3383 14.5939 24.0845C14.5939 24.0845 14.59 24.1472 14.5872 24.2591C14.5658 25.1801 14.6384 29.4405 17.8134 29.5243C18.6166 29.5457 19.2662 29.2547 19.7911 28.7912C21.5932 27.2006 21.9213 23.5771 21.9213 23.5771C22.0135 23.8212 24.1777 24.3506 26.4927 24.8596C28.9956 25.4097 31.6749 25.936 32.1033 26.0513C32.6145 26.1887 33.2354 26.7532 33.6333 27.162C33.8777 27.413 34.0382 27.6055 34.0382 27.6055Z" fill="#E86F3A" stroke="black" stroke-width="0.280477" stroke-linecap="round" stroke-linejoin="round"/>
<path d="M8.75504 35.4269C4.20992 32.9597 1.58887 29.065 1.58887 29.065C1.58887 29.065 2.62733 27.6174 4.10895 26.5088C4.20151 26.5428 4.29231 26.5859 4.38066 26.6382C4.9325 26.9649 5.23646 27.5872 5.42964 28.1987C5.62282 28.8105 5.74027 29.4552 6.05826 30.0123C6.61255 30.9838 7.69624 31.5528 8.29401 32.4984C8.64986 33.0618 8.81219 33.7325 8.83673 34.3982C8.84935 34.7418 8.82095 35.0875 8.75504 35.4269Z" fill="#49A2A6" stroke="black" stroke-width="0.280477" stroke-linecap="round" stroke-linejoin="round"/>
<path d="M15.3733 23.916C13.9969 24.4244 12.7764 25.3468 11.9115 26.5322C11.7594 26.7408 11.6125 26.976 11.6212 27.2341C11.6402 27.774 12.2653 28.0327 12.7368 28.2964C13.6158 28.7875 14.2037 29.664 14.7079 30.5356C14.9992 31.0394 15.368 31.6158 15.9486 31.6565C16.1748 31.6722 16.397 31.5993 16.6116 31.526C17.0092 31.3904 17.4061 31.2515 17.8012 31.1088C18.3327 30.9174 18.8859 30.7028 19.2516 30.2723C19.6898 29.7566 19.7729 29.0368 19.8371 28.3633C19.9097 27.6008 19.964 26.7643 19.5219 26.1391C18.949 25.3293 17.764 25.188 17.1077 24.444" fill="#49A2A6"/>
<path d="M15.3733 23.916C13.9969 24.4244 12.7764 25.3468 11.9115 26.5322C11.7594 26.7408 11.6125 26.976 11.6212 27.2341C11.6402 27.774 12.2653 28.0327 12.7368 28.2964C13.6158 28.7875 14.2037 29.664 14.7079 30.5356C14.9992 31.0394 15.368 31.6158 15.9486 31.6565C16.1748 31.6722 16.397 31.5993 16.6116 31.526C17.0092 31.3904 17.4061 31.2515 17.8012 31.1088C18.3327 30.9174 18.8859 30.7028 19.2516 30.2723C19.6898 29.7566 19.7729 29.0368 19.8371 28.3633C19.9097 27.6008 19.964 26.7643 19.5219 26.1391C18.949 25.3293 17.764 25.188 17.1077 24.444" stroke="black" stroke-width="0.280477" stroke-linecap="round" stroke-linejoin="round"/>
<path d="M27.5161 33.9471C24.9848 35.5241 21.8806 36.8465 18.4739 37.2676C18.4231 36.639 18.3947 36.0086 18.3894 35.3782C18.3835 34.6669 18.4241 33.9026 18.8564 33.3374C19.2414 32.8339 19.8731 32.5815 20.4947 32.4581C21.1164 32.3347 21.7569 32.3168 22.3725 32.1661C23.2494 31.9508 24.0792 31.4663 24.982 31.4933C26.0156 31.5241 26.9555 32.2776 27.3331 33.2403C27.4229 33.4685 27.4832 33.7059 27.5161 33.9471Z" fill="#49A2A6" stroke="black" stroke-width="0.280477" stroke-linecap="round" stroke-linejoin="round"/>
<path d="M33.6333 27.1627C33.459 27.4853 33.2112 27.7559 32.8802 27.9291C32.321 28.2219 31.6538 28.1752 31.0276 28.2562C29.9135 28.4 28.7341 28.9557 27.7282 28.455C26.9071 28.0462 26.54 27.0593 26.479 26.1439C26.4506 25.7172 26.472 25.2884 26.4927 24.8604C28.9956 25.4104 31.6748 25.9367 32.1033 26.052C32.6144 26.1895 33.2353 26.7539 33.6333 27.1627Z" fill="#49A2A6" stroke="black" stroke-width="0.280477" stroke-linecap="round" stroke-linejoin="round"/>
<path d="M21.9214 23.5778C21.9214 23.5778 21.9119 23.6841 21.887 23.8678C21.8414 24.2047 21.744 24.8025 21.5599 25.4868C21.0862 27.2482 20.038 29.5839 17.8134 29.525C14.2531 29.431 14.5939 24.0851 14.5939 24.0851C15.0066 23.8317 14.7503 20.1763 14.7503 20.1763C13.6666 20.529 12.5219 20.6444 11.5574 20.1714C11.3853 20.0869 11.2187 19.9839 11.0596 19.8598C8.6422 17.9795 10.0831 14.1784 11.6812 11.3652C12.8006 9.39413 13.9968 7.9083 13.9968 7.9083C13.9968 7.9083 14.7569 7.48548 15.5854 7.73511C16.3185 7.95528 17.1056 8.70135 17.4677 10.7306C17.5203 11.0254 17.5638 11.3476 17.5971 11.6993C18.1174 17.2029 18.3477 18.8143 20.5239 20.1118C20.5228 20.1157 20.5218 20.1206 20.5207 20.1262C20.5193 20.135 20.5183 20.1455 20.5176 20.1574C20.5165 20.1746 20.5162 20.1946 20.5169 20.2181C20.5169 20.2244 20.5169 20.231 20.5172 20.2381C20.5179 20.258 20.519 20.2798 20.5207 20.3033C20.5207 20.3085 20.5214 20.3138 20.5218 20.3194C20.5232 20.3359 20.5246 20.353 20.5263 20.3713C20.527 20.3772 20.5277 20.3832 20.5284 20.3892C20.5288 20.3927 20.5291 20.3962 20.5295 20.4C20.5316 20.4197 20.534 20.44 20.5369 20.4614C20.5435 20.5112 20.5519 20.5655 20.5624 20.6227C20.5642 20.6321 20.566 20.6416 20.5677 20.6514C20.5737 20.6837 20.5807 20.717 20.5877 20.751C20.5915 20.7678 20.5954 20.7853 20.5996 20.8029C20.6045 20.8239 20.6094 20.8449 20.6147 20.8663C20.6199 20.8877 20.6256 20.9091 20.6315 20.9308C20.6347 20.9424 20.6378 20.954 20.641 20.9659C20.6438 20.9761 20.6466 20.9862 20.6497 20.9967C20.6876 21.1293 20.7353 21.2677 20.7938 21.4055C20.7977 21.4154 20.8019 21.4252 20.8065 21.435C20.8124 21.4487 20.8184 21.4623 20.8247 21.476C20.83 21.4876 20.8352 21.4988 20.8405 21.5104C20.8517 21.5339 20.8629 21.5573 20.8745 21.5805C20.8913 21.6141 20.9088 21.6474 20.9274 21.6808C20.9334 21.692 20.9397 21.7032 20.9463 21.7144C20.9656 21.7477 20.9853 21.781 21.0063 21.8136C21.0266 21.8462 21.048 21.8785 21.0708 21.91C21.0778 21.9206 21.0855 21.9311 21.0936 21.9416C21.101 21.9521 21.109 21.9623 21.1167 21.9728C21.1322 21.9935 21.1479 22.0135 21.1648 22.0335C21.1728 22.0436 21.1809 22.0534 21.1897 22.0633C21.1981 22.0731 21.2065 22.0829 21.2153 22.0927C21.2174 22.0955 21.2198 22.098 21.2219 22.1004C21.2352 22.1155 21.2493 22.1306 21.2633 22.1449C21.2784 22.1607 21.2934 22.1765 21.3092 22.1916C21.3131 22.1954 21.3169 22.1993 21.3211 22.2031C21.3338 22.2154 21.3467 22.2273 21.3601 22.2389C21.3632 22.2421 21.3664 22.2449 21.3695 22.2477C21.3846 22.2613 21.4004 22.2747 21.4161 22.2876C21.4168 22.2883 21.4179 22.289 21.419 22.2897C21.4358 22.3038 21.453 22.3174 21.4705 22.3304C21.474 22.3332 21.4775 22.336 21.4814 22.3385C21.4978 22.3507 21.5147 22.363 21.5315 22.3746C21.5473 22.3851 21.5634 22.396 21.5799 22.4061C21.5886 22.4117 21.5974 22.4174 21.6065 22.4223C21.6226 22.4324 21.6391 22.4422 21.656 22.4514C21.656 22.4514 21.6759 22.9278 21.9214 23.5778Z" fill="#94624B" stroke="black" stroke-width="0.280477" stroke-linecap="round" stroke-linejoin="round"/>
<path d="M34.0382 27.6055C32.9914 30.27 25.5374 37.3117 16.4019 37.4067C7.26676 37.5021 1.58887 29.0647 1.58887 29.0647C1.58887 29.0647 2.63575 27.6055 4.12648 26.4952C5.61721 25.3852 14.1816 24.3383 14.5939 24.0845C14.5939 24.0845 14.2531 29.4303 17.8134 29.5243C21.374 29.6186 21.9213 23.5771 21.9213 23.5771C22.1131 24.0852 31.2787 25.829 32.1033 26.0513C32.9279 26.2732 34.0382 27.6055 34.0382 27.6055Z" stroke="black" stroke-width="0.280477" stroke-linecap="round" stroke-linejoin="round"/>
<path d="M17.5971 18.7461C16.8742 19.2243 15.8431 19.821 14.7502 20.1765" stroke="black" stroke-width="0.280477" stroke-linecap="round" stroke-linejoin="round"/>
<path d="M25.3664 17.2045C24.45 20.735 23.4234 19.9773 23.3964 21.9179C23.1033 20.9972 22.7033 21.2381 20.5268 19.9405C20.1962 19.7431 19.9104 19.5387 19.6619 19.3147C18.3254 18.1097 18.06 16.3329 17.6484 12.0346V12.0342C17.6323 11.8691 17.6165 11.7008 17.6 11.528C17.0801 6.02397 13.9998 7.73698 13.9998 7.73698C13.9998 7.73698 14.0229 7.58973 14.1214 7.37376C14.2725 7.0421 14.6014 6.55021 15.298 6.18314C15.684 5.97944 16.1836 5.81431 16.8284 5.73648C17.4163 5.66496 18.1249 5.66636 18.9789 5.7768C21.2406 6.06954 23.0493 7.99782 24.1905 10.3002C25.3615 12.6614 25.8306 15.4168 25.3664 17.2045Z" fill="#3D0027" stroke="black" stroke-width="0.280477" stroke-linecap="round" stroke-linejoin="round"/>
<path d="M23.6437 23.1513C23.401 22.583 22.5572 22.9498 21.6558 22.4509C21.5204 22.3758 21.4005 22.2826 21.294 22.176C21.2666 22.149 21.2407 22.1213 21.2151 22.0925C20.8329 21.6613 20.6443 21.0656 20.5651 20.6379C20.5149 20.3669 20.5083 20.1632 20.5237 20.1113C22.7002 21.4089 23.1002 21.168 23.3933 22.0887L23.6437 23.1513Z" fill="#3D0027" stroke="black" stroke-width="0.280477" stroke-linecap="round" stroke-linejoin="round"/>
<path d="M23.7066 23.4189L23.6638 23.2373" stroke="black" stroke-width="0.280477" stroke-linecap="round" stroke-linejoin="round"/>
<path d="M25.4275 20.6551C25.4173 20.7007 25.4068 20.7456 25.3959 20.789C25.0555 22.1399 24.2702 22.5413 23.9679 22.6742C23.6966 22.7937 23.6496 23.0192 23.6594 23.191C23.6545 23.1776 23.6492 23.1647 23.6436 23.152L23.3933 22.0894C23.4203 20.1488 24.4469 20.9065 25.3633 17.376C25.4191 17.6856 25.4615 17.9772 25.4923 18.2518C25.6066 19.2667 25.5607 20.05 25.4275 20.6551Z" fill="#3D0027" stroke="black" stroke-width="0.280477" stroke-linecap="round" stroke-linejoin="round"/>
<path d="M25.3622 23.1521C25.3258 23.2366 25.2851 23.3109 25.2406 23.3772C24.9832 23.7649 24.6169 23.8757 24.4012 24.1018C23.9595 24.5653 23.9164 24.9752 23.9164 24.9752L23.7067 23.4199C23.6983 23.3316 23.6822 23.2559 23.6594 23.1913C23.6496 23.0192 23.6965 22.7938 23.9679 22.6742C24.2701 22.5413 25.0555 22.1399 25.3959 20.7891C25.4481 21.0766 25.4842 21.3349 25.5067 21.5677C25.5803 22.3313 25.506 22.8197 25.3622 23.1521Z" fill="#3D0027" stroke="black" stroke-width="0.280477" stroke-linecap="round" stroke-linejoin="round"/>
<path d="M23.9167 24.9747C23.7985 24.244 22.9035 24.7422 22.075 24.0487C22.0154 23.9986 21.96 23.946 21.9085 23.8906C21.9064 23.8889 21.9043 23.8868 21.9025 23.8847C21.5589 23.5137 21.3857 23.0394 21.2995 22.6702C21.2574 22.4907 21.236 22.3361 21.2251 22.2299C21.2185 22.1625 21.216 22.1149 21.2153 22.0928C21.2409 22.1215 21.2669 22.1492 21.2942 22.1762C21.4008 22.2828 21.5207 22.3761 21.656 22.4511C22.5574 22.95 23.4013 22.5833 23.6439 23.1516L23.6639 23.2368C23.6758 23.3363 23.7032 23.4096 23.7067 23.4184C23.7067 23.4191 23.7067 23.4194 23.7067 23.4194L23.9163 24.9747H23.9167Z" fill="#3D0027" stroke="black" stroke-width="0.280477" stroke-linecap="round" stroke-linejoin="round"/>
<path d="M21.2153 22.0928C21.2153 22.084 21.2153 22.0791 21.2157 22.0791" stroke="black" stroke-width="0.280477" stroke-linecap="round" stroke-linejoin="round"/>
<path d="M23.6639 23.2364C23.6621 23.2216 23.6607 23.2062 23.6597 23.1904" stroke="black" stroke-width="0.280477" stroke-linecap="round" stroke-linejoin="round"/>
<path d="M25.2733 24.8945C25.2568 24.9306 25.2397 24.9656 25.2211 24.9993C25.0153 25.3842 24.7117 25.609 24.4754 25.772C24.0073 26.0949 24.0578 26.5153 24.0613 26.5412C24.0532 26.5096 24.0441 26.4798 24.034 26.4518L23.9165 24.9754C23.9165 24.9754 23.9596 24.5656 24.4014 24.1021C24.617 23.876 24.9834 23.7652 25.2407 23.3774C25.2852 23.3112 25.3259 23.2368 25.3624 23.1523C25.3732 23.2035 25.383 23.2537 25.3918 23.3028C25.4216 23.4661 25.4402 23.6186 25.449 23.761C25.4802 24.2413 25.4034 24.6084 25.2733 24.8945Z" fill="#3D0027" stroke="black" stroke-width="0.280477" stroke-linecap="round" stroke-linejoin="round"/>
<path d="M24.034 26.4511C23.7973 25.7885 23.0484 25.9589 22.566 25.4943C22.5418 25.4709 22.518 25.446 22.4952 25.4197C22.2445 25.1315 22.0889 24.6855 22.0005 24.3486C21.9413 24.1239 21.9122 23.9475 21.9044 23.8984C21.903 23.8897 21.9023 23.8848 21.9023 23.8848C21.9041 23.8869 21.9062 23.889 21.9083 23.8907C21.9598 23.9461 22.0152 23.9987 22.0748 24.0488C22.9033 24.7423 23.7984 24.2441 23.9165 24.9748L24.034 26.4511Z" fill="#3D0027" stroke="black" stroke-width="0.280477" stroke-linecap="round" stroke-linejoin="round"/>
<path d="M24.2885 27.8845C24.1942 27.3933 23.8201 27.5882 23.289 27.3853C23.1838 27.3449 23.093 27.2902 23.0152 27.224C23.0152 27.224 23.0149 27.2237 23.0145 27.2233C22.9794 27.1938 22.9472 27.1623 22.9177 27.1286C22.6428 26.8225 22.5633 26.3629 22.5478 26.0092C22.5349 25.715 22.5661 25.4941 22.5661 25.4941C23.0485 25.9587 23.7974 25.7883 24.034 26.4509C24.0442 26.479 24.0533 26.5088 24.0614 26.5403C24.0614 26.5407 24.0617 26.5414 24.0617 26.5417L24.2885 27.8845Z" fill="#3D0027" stroke="black" stroke-width="0.280477" stroke-linecap="round" stroke-linejoin="round"/>
<path d="M25.3768 26.5403C25.335 26.6427 25.2856 26.7373 25.2316 26.8229C25.0612 27.0963 24.8463 27.2797 24.6864 27.339C24.2629 27.496 24.2927 27.9083 24.2927 27.9083C24.2913 27.9003 24.2899 27.8922 24.2885 27.8845L24.0617 26.5417C24.0617 26.5417 24.0613 26.5407 24.0613 26.5403C24.0578 26.5144 24.0073 26.094 24.4754 25.7711C24.7117 25.6081 25.0153 25.3833 25.2211 24.9984C25.2397 24.9647 25.2569 24.9297 25.2733 24.8936C25.2814 24.909 25.2888 24.9244 25.2961 24.9395C25.362 25.0741 25.4115 25.2063 25.4458 25.3346C25.5706 25.7939 25.5124 26.2079 25.3768 26.5403Z" fill="#3D0027" stroke="black" stroke-width="0.280477" stroke-linecap="round" stroke-linejoin="round"/>
<path d="M24.494 29.4583C24.4281 29.2213 24.4874 29.0256 23.6585 28.5835C23.6193 28.5625 23.5821 28.5407 23.5474 28.5176C23.4857 28.4773 23.4307 28.4342 23.3819 28.3889C23.0439 28.0762 23.0047 27.6723 23.0085 27.4315C23.0103 27.3137 23.0226 27.2351 23.0152 27.2246C23.093 27.2909 23.1838 27.3456 23.289 27.3859C23.8202 27.5889 24.1943 27.3939 24.2886 27.8851C24.29 27.8928 24.2914 27.9009 24.2928 27.909L24.4835 29.3724C24.4856 29.4137 24.4912 29.4446 24.494 29.4583Z" fill="#3D0027" stroke="black" stroke-width="0.280477" stroke-linecap="round" stroke-linejoin="round"/>
<path d="M25.399 28.1447C25.399 28.1447 25.399 28.1447 25.399 28.1454C25.2587 28.5581 24.9982 28.7712 24.7868 28.869C24.5084 28.9977 24.4776 29.2386 24.4839 29.3715L24.2932 27.9081C24.2932 27.9081 24.2634 27.4958 24.6869 27.3387C24.8468 27.2794 25.0617 27.0961 25.2321 26.8226C25.2861 26.7371 25.3355 26.6424 25.3772 26.54C25.3905 26.5947 25.4025 26.648 25.4133 26.7003C25.4375 26.816 25.4561 26.9257 25.4698 27.0298C25.5329 27.5066 25.4926 27.8698 25.3993 28.1447H25.399Z" fill="#3D0027" stroke="black" stroke-width="0.280477" stroke-linecap="round" stroke-linejoin="round"/>
<path d="M24.4949 29.4629C24.4949 29.4629 24.4952 29.4646 24.4956 29.4657" stroke="black" stroke-width="0.280477" stroke-linecap="round" stroke-linejoin="round"/>
<path d="M23.016 27.2252L23.0144 27.2236" stroke="black" stroke-width="0.280477" stroke-linecap="round" stroke-linejoin="round"/>
<path d="M24.7863 30.7841L24.7576 30.6533" stroke="black" stroke-width="0.280477" stroke-linecap="round" stroke-linejoin="round"/>
<path d="M25.2462 29.8577C25.2055 29.9265 25.1599 29.9787 25.1091 30.0085C24.8233 30.1768 24.7897 30.6042 24.7865 30.7412C24.7834 30.7195 24.7757 30.6901 24.7578 30.6536L24.4959 29.4658L24.4836 29.3725C24.4773 29.2396 24.5082 28.9988 24.7865 28.8701C24.9979 28.7723 25.2584 28.5591 25.3987 28.1465C25.4421 28.258 25.4667 28.4221 25.4733 28.6068C25.4895 29.0363 25.4095 29.5811 25.2462 29.8577Z" fill="#3D0027" stroke="black" stroke-width="0.280477" stroke-linecap="round" stroke-linejoin="round"/>
<path d="M24.7864 30.7412C24.7903 30.7693 24.7864 30.784 24.7864 30.784C24.7864 30.784 24.7857 30.7682 24.7864 30.7412Z" fill="#3D0027" stroke="black" stroke-width="0.280477" stroke-linecap="round" stroke-linejoin="round"/>
<path d="M24.7576 30.6532C24.7011 30.5399 24.5448 30.3594 24.1209 30.1392C24.0273 30.0905 23.9456 30.0256 23.8741 29.9495C23.6388 29.7003 23.5161 29.3304 23.452 29.0134C23.4348 28.9282 23.4218 28.8469 23.412 28.7729C23.3829 28.5542 23.3818 28.3974 23.3818 28.3887C23.4306 28.4339 23.4856 28.477 23.5473 28.5173C23.582 28.5405 23.6192 28.5622 23.6585 28.5833C24.4873 29.0254 24.428 29.221 24.4939 29.458C24.4911 29.4443 24.4855 29.4135 24.4834 29.3721L24.4957 29.4654L24.7576 30.6532Z" fill="#3D0027" stroke="black" stroke-width="0.280477" stroke-linecap="round" stroke-linejoin="round"/>
<path d="M24.7863 30.7406C24.7863 30.7406 23.9782 31.426 24.0697 31.8755C24.1612 32.3249 25.8627 31.839 26.0085 31.5715C26.1544 31.304 24.7863 30.7402 24.7863 30.7402V30.7406Z" fill="#3D0027" stroke="black" stroke-width="0.280477" stroke-linecap="round" stroke-linejoin="round"/>
<path d="M21.9211 23.5777C21.9211 23.5777 21.9117 23.6839 21.8868 23.8676C21.8412 24.2046 21.7437 24.8023 21.5597 25.4867C21.3269 25.2448 21.1256 24.9724 20.9637 24.6782C20.2716 23.4217 20.2555 21.7507 19.157 20.8283C18.9246 20.633 18.6557 20.4851 18.4282 20.2846C17.9882 19.8978 17.7301 19.3372 17.6064 18.7647C17.4826 18.1922 17.4816 17.6011 17.4812 17.0152C17.4794 15.2763 17.478 13.5373 17.4766 11.7987C17.4766 11.4425 17.4759 11.0863 17.4675 10.7305C17.5201 11.0253 17.5636 11.3475 17.5969 11.6992C18.1172 17.2028 18.3475 18.8142 20.5237 20.1117C20.5226 20.1156 20.5216 20.1205 20.5205 20.1261C20.5191 20.1348 20.5181 20.1454 20.5174 20.1573C20.5163 20.1745 20.516 20.1944 20.5167 20.2179C20.5167 20.2243 20.5167 20.2309 20.517 20.2379C20.5177 20.2579 20.5188 20.2796 20.5205 20.3031C20.5205 20.3084 20.5212 20.3137 20.5216 20.3193C20.523 20.3357 20.5244 20.3529 20.5261 20.3711C20.5268 20.3771 20.5275 20.3831 20.5282 20.389C20.5286 20.3925 20.5289 20.396 20.5293 20.3999C20.5314 20.4195 20.5338 20.4399 20.5366 20.4613C20.5433 20.511 20.5517 20.5654 20.5622 20.6225C20.564 20.632 20.5657 20.6415 20.5675 20.6513C20.5735 20.6835 20.5805 20.7168 20.5875 20.7508C20.5913 20.7677 20.5952 20.7852 20.5994 20.8027C20.6043 20.8238 20.6092 20.8448 20.6145 20.8662C20.6197 20.8876 20.6253 20.909 20.6313 20.9307C20.6345 20.9423 20.6376 20.9538 20.6408 20.9658C20.6436 20.9759 20.6464 20.9861 20.6495 20.9966C20.6874 21.1291 20.7351 21.2676 20.7936 21.4054C20.7975 21.4152 20.8017 21.425 20.8063 21.4349C20.8122 21.4485 20.8182 21.4622 20.8245 21.4759C20.8297 21.4874 20.835 21.4987 20.8403 21.5102C20.8515 21.5337 20.8627 21.5572 20.8743 21.5804C20.8911 21.614 20.9086 21.6473 20.9272 21.6806C20.9332 21.6918 20.9395 21.7031 20.9461 21.7143C20.9654 21.7476 20.9851 21.7809 21.0061 21.8135C21.0264 21.8461 21.0478 21.8784 21.0706 21.9099C21.0776 21.9204 21.0853 21.931 21.0934 21.9415C21.1008 21.952 21.1088 21.9622 21.1165 21.9727C21.132 21.9934 21.1477 22.0133 21.1646 22.0333C21.1726 22.0435 21.1807 22.0533 21.1895 22.0631C21.1979 22.0729 21.2063 22.0828 21.215 22.0926C21.2171 22.0954 21.2196 22.0978 21.2217 22.1003C21.235 22.1154 21.2491 22.1304 21.2631 22.1448C21.2782 22.1606 21.2932 22.1764 21.309 22.1914C21.3129 22.1953 21.3167 22.1992 21.3209 22.203C21.3335 22.2153 21.3465 22.2272 21.3598 22.2388C21.363 22.2419 21.3662 22.2447 21.3693 22.2475C21.3844 22.2612 21.4002 22.2745 21.4159 22.2875C21.4166 22.2882 21.4177 22.2889 21.4187 22.2896C21.4356 22.3036 21.4528 22.3173 21.4703 22.3303C21.4738 22.3331 21.4773 22.3359 21.4811 22.3383C21.4976 22.3506 21.5145 22.3629 21.5313 22.3745C21.5471 22.385 21.5632 22.3958 21.5797 22.406C21.5884 22.4116 21.5972 22.4172 21.6063 22.4221C21.6224 22.4323 21.6389 22.4421 21.6557 22.4512C21.6557 22.4512 21.6757 22.9277 21.9211 23.5777Z" fill="#894B38"/>
<path d="M17.6065 18.7646C17.6065 18.7646 16.9292 21.3447 14.8263 22.0021L14.7502 20.1761" fill="#663421"/>
<path d="M15.4883 8.13479C14.8968 9.29911 14.3509 10.4147 13.9432 11.6628C13.7125 12.3686 13.5039 13.081 13.2876 13.7909C12.6442 15.8998 11.9175 18.0034 11.5574 20.1714C11.3853 20.0869 11.2187 19.9839 11.0596 19.8598C8.6422 17.9795 10.0831 14.1784 11.6812 11.3652C12.8006 9.39413 13.9968 7.9083 13.9968 7.9083C13.9968 7.9083 14.7569 7.48548 15.5854 7.73511C15.5952 7.8494 15.5658 7.98193 15.4883 8.13479Z" fill="#AD8679"/>
<path d="M21.9214 23.5779C21.9214 23.5779 21.9119 23.6842 21.887 23.8679C21.8414 24.2048 21.744 24.8026 21.5599 25.4869C21.0862 27.2483 20.038 29.584 17.8134 29.5251C14.2531 29.4311 14.5939 24.0852 14.5939 24.0852C15.0066 23.8318 14.7503 20.1765 14.7503 20.1765C13.4731 20.5923 12.1113 20.6782 11.0596 19.8599C8.6422 17.9796 10.0831 14.1785 11.6812 11.3653C12.8006 9.39424 13.9968 7.90841 13.9968 7.90841C13.9968 7.90841 16.6961 6.40716 17.4677 10.7307C17.5203 11.0256 17.5638 11.3478 17.5971 11.6994C18.1174 17.2031 18.3477 18.8144 20.5239 20.1119C20.5228 20.1158 20.5218 20.1207 20.5207 20.1263C20.5193 20.1351 20.5183 20.1456 20.5176 20.1575C20.5165 20.1747 20.5162 20.1947 20.5169 20.2182C20.5169 20.2245 20.5169 20.2311 20.5172 20.2382C20.5179 20.2581 20.519 20.2799 20.5207 20.3034C20.5207 20.3086 20.5214 20.3139 20.5218 20.3195C20.5232 20.336 20.5246 20.3532 20.5263 20.3714C20.527 20.3773 20.5277 20.3833 20.5284 20.3893C20.5288 20.3928 20.5291 20.3963 20.5295 20.4001C20.5316 20.4198 20.534 20.4401 20.5369 20.4615C20.5435 20.5113 20.5519 20.5656 20.5624 20.6228C20.5642 20.6322 20.566 20.6417 20.5677 20.6515C20.5737 20.6838 20.5807 20.7171 20.5877 20.7511C20.5915 20.7679 20.5954 20.7854 20.5996 20.803C20.6045 20.824 20.6094 20.845 20.6147 20.8664C20.6199 20.8878 20.6256 20.9092 20.6315 20.9309C20.6347 20.9425 20.6378 20.9541 20.641 20.966C20.6438 20.9762 20.6466 20.9863 20.6497 20.9969C20.6876 21.1294 20.7353 21.2679 20.7938 21.4056C20.7977 21.4155 20.8019 21.4253 20.8065 21.4351C20.8124 21.4488 20.8184 21.4624 20.8247 21.4761C20.83 21.4877 20.8352 21.4989 20.8405 21.5105C20.8517 21.534 20.8629 21.5575 20.8745 21.5806C20.8913 21.6143 20.9088 21.6476 20.9274 21.6809C20.9334 21.6921 20.9397 21.7033 20.9463 21.7145C20.9656 21.7478 20.9853 21.7811 21.0063 21.8137C21.0266 21.8463 21.048 21.8786 21.0708 21.9102C21.0778 21.9207 21.0855 21.9312 21.0936 21.9417C21.101 21.9522 21.109 21.9624 21.1167 21.9729C21.1322 21.9936 21.1479 22.0136 21.1648 22.0336C21.1728 22.0437 21.1809 22.0535 21.1897 22.0634C21.1981 22.0732 21.2065 22.083 21.2153 22.0928C21.2174 22.0956 21.2198 22.0981 21.2219 22.1005C21.2352 22.1156 21.2493 22.1307 21.2633 22.1451C21.2784 22.1608 21.2934 22.1766 21.3092 22.1917C21.3131 22.1955 21.3169 22.1994 21.3211 22.2033C21.3338 22.2155 21.3467 22.2274 21.3601 22.239C21.3632 22.2422 21.3664 22.245 21.3695 22.2478C21.3846 22.2614 21.4004 22.2748 21.4161 22.2877C21.4168 22.2884 21.4179 22.2891 21.419 22.2898C21.4358 22.3039 21.453 22.3175 21.4705 22.3305C21.474 22.3333 21.4775 22.3361 21.4814 22.3386C21.4978 22.3509 21.5147 22.3631 21.5315 22.3747C21.5473 22.3852 21.5634 22.3961 21.5799 22.4062C21.5886 22.4119 21.5974 22.4175 21.6065 22.4224C21.6226 22.4325 21.6391 22.4424 21.656 22.4515C21.656 22.4515 21.6759 22.9279 21.9214 23.5779Z" stroke="black" stroke-width="0.280477" stroke-linecap="round" stroke-linejoin="round"/>
<path d="M25.3623 23.1517C25.3732 23.2029 25.383 23.253 25.3918 23.3021C25.3455 23.3354 25.2954 23.3621 25.2407 23.3768C25.2389 23.3772 25.2372 23.3779 25.2354 23.3782C25.1239 23.4066 24.9879 23.3691 24.9374 23.266C24.9097 23.2099 24.9108 23.1447 24.9153 23.0823C24.9476 22.6511 25.1243 22.2595 25.3332 21.8871C25.3644 21.8317 25.4272 21.7073 25.5068 21.5674C25.5804 22.331 25.5061 22.8194 25.3623 23.1517Z" fill="#6D1151"/>
<path d="M24.1874 10.4711C24.1264 10.6334 24.05 10.7905 23.9581 10.9391C23.7131 10.2225 23.4319 9.47609 22.8552 8.98526C22.4348 8.6273 21.8991 8.44254 21.3977 8.21149C20.2127 7.66526 19.1357 6.81787 17.8494 6.5977C17.4893 6.53635 17.0602 6.48796 16.887 6.16647C16.8428 6.08443 16.8239 5.99608 16.8253 5.90738C17.4132 5.83586 18.1218 5.83726 18.9758 5.9477C21.2375 6.24044 23.0462 8.16872 24.1874 10.4711Z" fill="#6D1151"/>
<path d="M25.4276 20.6553C25.3725 20.6956 25.3119 20.7254 25.2442 20.7338C25.1106 20.7506 24.9771 20.676 24.8971 20.568C24.8172 20.46 24.7842 20.3236 24.7744 20.1893C24.745 19.7834 24.9104 19.3903 25.0924 19.0264C25.2179 18.775 25.3445 18.5009 25.4924 18.252C25.6067 19.2669 25.5608 20.0502 25.4276 20.6553Z" fill="#6D1151"/>
<path d="M25.2734 24.8942C25.2814 24.9096 25.2888 24.9251 25.2962 24.9401C25.2713 24.9598 25.246 24.9794 25.2211 24.999C25.2194 25.0004 25.218 25.0015 25.2162 25.0029C25.1773 25.0334 25.1303 25.066 25.082 25.0537C25.0543 25.0471 25.0318 25.0257 25.015 25.0022C24.941 24.8988 24.9606 24.7564 24.9989 24.6351C25.0602 24.4391 25.1615 24.2586 25.2618 24.0794C25.3221 23.9722 25.3824 23.8642 25.449 23.7607C25.4802 24.2411 25.4034 24.6081 25.2734 24.8942Z" fill="#6D1151"/>
<path d="M25.3766 26.5407C25.39 26.5954 25.4019 26.6486 25.4128 26.7009C25.3679 26.7458 25.3205 26.7899 25.2616 26.8138C25.2518 26.8176 25.2417 26.8211 25.2315 26.8232C25.1775 26.8369 25.1172 26.8296 25.0762 26.7927C25.0166 26.7391 25.0173 26.6465 25.026 26.567C25.052 26.3321 25.1084 26.1003 25.1922 25.8791C25.2466 25.7357 25.3318 25.5239 25.4457 25.335C25.5705 25.7942 25.5123 26.2083 25.3766 26.5407Z" fill="#6D1151"/>
<path d="M25.3988 28.1452C25.3589 28.1788 25.3157 28.2079 25.2677 28.2293C25.2344 28.244 25.1962 28.2549 25.1611 28.2444C25.0812 28.2198 25.0717 28.1112 25.0815 28.0281C25.1233 27.6726 25.2361 27.3083 25.4693 27.0303C25.5324 27.5071 25.4921 27.8703 25.3988 28.1452Z" fill="#6D1151"/>
<path d="M25.246 29.8574C25.1986 29.8984 25.1432 29.924 25.0896 29.8991C25.0195 29.8661 25.0107 29.7708 25.0167 29.6936C25.0384 29.4251 25.1205 29.1625 25.2533 28.9283C25.3122 28.8238 25.3859 28.706 25.4732 28.6064C25.4893 29.0359 25.4093 29.5808 25.246 29.8574Z" fill="#6D1151"/>
<path d="M19.7797 19.1952C19.7506 19.2927 19.711 19.394 19.6587 19.4855C18.3223 18.2805 18.0569 16.5037 17.6453 12.2054V12.2051C17.6838 12.1469 17.7245 12.0901 17.7673 12.034C17.8342 11.946 17.9275 11.8531 18.0365 11.8702C18.1599 11.8895 18.2157 12.0329 18.2416 12.1549C18.4302 13.0426 18.2777 14.0078 18.6574 14.8317C18.8327 15.2125 19.1108 15.5354 19.3327 15.8909C19.9392 16.8624 20.1064 18.0972 19.7797 19.1952Z" fill="#6D1151"/>
<path d="M21.3519 22.0772C21.3368 22.1123 21.3183 22.147 21.2941 22.1758C21.2797 22.1926 21.2632 22.2077 21.2443 22.2192C21.238 22.2231 21.2317 22.2266 21.225 22.2294C21.2183 22.1621 21.2159 22.1144 21.2152 22.0923C20.833 21.6611 20.6444 21.0654 20.5652 20.6377C20.7145 20.6475 20.8562 20.7232 20.9747 20.8169C21.1598 20.9634 21.3067 21.1608 21.3789 21.3855C21.4515 21.6099 21.4466 21.8613 21.3519 22.0772Z" fill="#6D1151"/>
<path d="M22.003 23.5942C21.9819 23.6958 21.9549 23.7986 21.9083 23.8904C21.9069 23.8932 21.9055 23.8957 21.9044 23.8981C21.903 23.8894 21.9023 23.8845 21.9023 23.8845C21.5588 23.5135 21.3856 23.0392 21.2993 22.67C21.5812 22.6465 21.8771 22.8288 21.9945 23.116C22.0555 23.266 22.0359 23.4357 22.003 23.5942Z" fill="#6D1151"/>
<path d="M22.5348 25.263C22.5239 25.3152 22.5113 25.3682 22.4952 25.4197C22.2445 25.1315 22.0888 24.6856 22.0005 24.3486C22.2245 24.3928 22.4324 24.5551 22.526 24.7851C22.5874 24.9348 22.5678 25.1045 22.5348 25.263Z" fill="#6D1151"/>
<path d="M23.5895 28.3527C23.5779 28.4078 23.5649 28.4632 23.5474 28.5168C23.5229 28.5946 23.4899 28.6693 23.4422 28.7352C23.4328 28.7479 23.4229 28.7605 23.4121 28.7724C23.383 28.5536 23.3819 28.3969 23.3819 28.3881C23.0439 28.0754 23.0047 27.6715 23.0085 27.4307C23.2498 27.4598 23.4804 27.6291 23.5811 27.8745C23.6421 28.0242 23.6224 28.1943 23.5895 28.3527Z" fill="#6D1151"/>
<path d="M22.984 26.8971C22.9675 26.9757 22.9475 27.0549 22.9177 27.1292C22.6429 26.8231 22.5633 26.3635 22.5479 26.0098C22.7326 26.076 22.8956 26.2233 22.9756 26.4189C23.0366 26.5686 23.0169 26.7387 22.984 26.8971Z" fill="#6D1151"/>
<path d="M23.8852 29.8996C23.8817 29.9165 23.8782 29.9329 23.874 29.9498C23.6388 29.7005 23.5161 29.3306 23.4519 29.0137C23.6356 29.0803 23.7972 29.2268 23.8768 29.4218C23.9378 29.5715 23.9182 29.7412 23.8852 29.8996Z" fill="#6D1151"/>
<path d="M12.9376 13.1572C12.9376 13.1572 12.2557 14.7878 12.4927 15.0252C12.7297 15.2626 13.2636 14.4025 13.2636 14.4025" stroke="black" stroke-width="0.280477" stroke-linecap="round" stroke-linejoin="round"/>
<path d="M14.4775 17.6657C13.784 18.099 13.0569 17.354 13.0569 17.354C13.0569 17.354 13.6603 17.3572 14.2177 16.9925C14.7752 16.6279 14.9571 16.2275 14.9571 16.2275C14.9571 16.2275 15.1706 17.2327 14.4775 17.6657Z" fill="#E938B5" stroke="black" stroke-width="0.280477" stroke-linecap="round" stroke-linejoin="round"/>
<path d="M14.9571 16.2275C14.9571 16.2275 14.7752 16.6279 14.2177 16.9925C13.6603 17.3572 13.0569 17.354 13.0569 17.354C13.0569 17.354 13.3787 16.5865 13.5642 16.6237C13.75 16.6609 13.8489 16.7696 13.9232 16.6223C13.9975 16.4754 13.9109 16.3268 14.0964 16.2275C14.2822 16.1287 14.9571 16.2275 14.9571 16.2275Z" fill="#E938B5" stroke="black" stroke-width="0.280477" stroke-linecap="round" stroke-linejoin="round"/>
<path d="M15.1404 15.6953L14.957 16.2272" stroke="black" stroke-width="0.280477" stroke-linecap="round" stroke-linejoin="round"/>
<path d="M14.7856 15.6021C14.8824 15.5709 14.99 15.5906 15.0819 15.6348C15.1738 15.6789 15.2523 15.7459 15.3291 15.8125C15.3739 15.8514 15.4216 15.8959 15.4307 15.9545" stroke="black" stroke-width="0.280477" stroke-linecap="round" stroke-linejoin="round"/>
<path d="M17.5971 18.7461C16.8742 19.2243 15.8431 19.821 14.7502 20.1765" stroke="black" stroke-width="0.280477" stroke-linecap="round" stroke-linejoin="round"/>
<path d="M25.3635 17.3754C24.447 20.9059 23.4205 20.1482 23.3935 22.0888C23.1004 21.1681 22.7004 21.409 20.5239 20.1114C18.3477 18.8139 18.1174 17.2025 17.5971 11.6989C17.0772 6.19488 13.9968 7.90789 13.9968 7.90789C13.9968 7.90789 14.02 7.76064 14.1185 7.54467C14.2696 7.21301 14.5984 6.72112 15.2951 6.35405C16.0334 5.96489 17.1848 5.71596 18.976 5.94771C23.5576 6.54056 26.2799 13.8445 25.3635 17.3754Z" stroke="black" stroke-width="0.280477" stroke-linecap="round" stroke-linejoin="round"/>
<path d="M23.6437 23.1513C23.4011 22.583 22.5572 22.9498 21.6558 22.4509C21.4861 22.3569 21.3403 22.2335 21.2151 22.0925C20.5907 21.3889 20.4838 20.2453 20.5238 20.1113C22.7003 21.4089 23.1003 21.168 23.3934 22.0887L23.6437 23.1513Z" stroke="black" stroke-width="0.280477" stroke-linecap="round" stroke-linejoin="round"/>
<path d="M23.7066 23.4189L23.6638 23.2373" stroke="black" stroke-width="0.280477" stroke-linecap="round" stroke-linejoin="round"/>
<path d="M25.3959 20.789C25.0555 22.1399 24.2702 22.5413 23.9679 22.6742C23.6966 22.7937 23.6496 23.0192 23.6594 23.191C23.6545 23.1776 23.6492 23.1647 23.6436 23.152L23.3933 22.0894C23.4203 20.1488 24.4469 20.9065 25.3633 17.376C25.6406 18.9161 25.5922 20.0104 25.3959 20.789Z" stroke="black" stroke-width="0.280477" stroke-linecap="round" stroke-linejoin="round"/>
<path d="M25.3622 23.1521C25.1126 23.7306 24.6537 23.8371 24.4012 24.1018C23.9595 24.5653 23.9164 24.9752 23.9164 24.9752L23.7067 23.4199C23.6983 23.3316 23.6822 23.2559 23.6594 23.1913C23.6496 23.0192 23.6965 22.7938 23.9679 22.6742C24.2701 22.5413 25.0555 22.1399 25.3959 20.7891C25.6192 22.019 25.5498 22.7184 25.3622 23.1521Z" stroke="black" stroke-width="0.280477" stroke-linecap="round" stroke-linejoin="round"/>
<path d="M23.9167 24.9747C23.7985 24.244 22.9035 24.7422 22.075 24.0487C22.0133 23.9969 21.9558 23.9422 21.9025 23.8847C21.2858 23.2192 21.2185 22.2204 21.2153 22.0928C21.3405 22.2337 21.4863 22.3571 21.656 22.4511C22.5574 22.95 23.4013 22.5833 23.6439 23.1516L23.6639 23.2368C23.6758 23.3363 23.7032 23.4096 23.7067 23.4184C23.7067 23.4191 23.7067 23.4194 23.7067 23.4194L23.9163 24.9747H23.9167Z" stroke="black" stroke-width="0.280477" stroke-linecap="round" stroke-linejoin="round"/>
<path d="M21.2157 22.0791C21.2157 22.0791 21.2153 22.084 21.2153 22.0924" stroke="black" stroke-width="0.280477" stroke-linecap="round" stroke-linejoin="round"/>
<path d="M23.6639 23.2364C23.6621 23.2216 23.6607 23.2062 23.6597 23.1904" stroke="black" stroke-width="0.280477" stroke-linecap="round" stroke-linejoin="round"/>
<path d="M25.2733 24.8945C25.0689 25.3446 24.7323 25.5946 24.4754 25.772C24.0073 26.0949 24.0578 26.5153 24.0613 26.5412C24.0532 26.5096 24.0441 26.4798 24.034 26.4518L23.9165 24.9754C23.9165 24.9754 23.9596 24.5656 24.4014 24.1021C24.6538 23.8374 25.1127 23.7308 25.3624 23.1523C25.5313 23.9461 25.4535 24.4979 25.2733 24.8945Z" stroke="black" stroke-width="0.280477" stroke-linecap="round" stroke-linejoin="round"/>
<path d="M24.034 26.4511C23.7973 25.7885 23.0484 25.9589 22.566 25.4943C22.0622 25.0102 21.9023 23.8848 21.9023 23.8848C21.9556 23.9423 22.0131 23.997 22.0748 24.0488C22.9033 24.7423 23.7984 24.2441 23.9165 24.9748L24.034 26.4511Z" stroke="black" stroke-width="0.280477" stroke-linecap="round" stroke-linejoin="round"/>
<path d="M24.2887 27.8845C24.1944 27.3933 23.8203 27.5882 23.2891 27.3853C23.184 27.3449 23.0932 27.2902 23.0153 27.224C22.3965 26.7023 22.5662 25.4941 22.5662 25.4941C23.0486 25.9587 23.7975 25.7883 24.0342 26.4509C24.0443 26.479 24.0534 26.5088 24.0615 26.5403C24.0615 26.5407 24.0618 26.5414 24.0618 26.5417L24.2887 27.8845Z" stroke="black" stroke-width="0.280477" stroke-linecap="round" stroke-linejoin="round"/>
<path d="M25.3768 26.5403C25.2015 26.9687 24.8964 27.2611 24.6864 27.339C24.2629 27.496 24.2927 27.9083 24.2927 27.9083C24.2913 27.9003 24.2899 27.8922 24.2885 27.8845L24.0617 26.5417C24.0617 26.5417 24.0613 26.5407 24.0613 26.5403C24.0578 26.5144 24.0073 26.094 24.4754 25.7711C24.7324 25.5937 25.0689 25.3437 25.2733 24.8936C25.5994 25.5281 25.5549 26.1045 25.3768 26.5403Z" stroke="black" stroke-width="0.280477" stroke-linecap="round" stroke-linejoin="round"/>
<path d="M24.4938 29.4583C24.4279 29.2213 24.4872 29.0256 23.6584 28.5835C23.549 28.5253 23.4578 28.4594 23.3818 28.3889C22.879 27.9237 23.0371 27.2562 23.015 27.2246C23.0929 27.2909 23.1837 27.3456 23.2889 27.3859C23.82 27.5889 24.1941 27.3939 24.2884 27.8851C24.2898 27.8928 24.2912 27.9009 24.2926 27.909L24.4833 29.3724C24.4854 29.4137 24.491 29.4446 24.4938 29.4583Z" stroke="black" stroke-width="0.280477" stroke-linecap="round" stroke-linejoin="round"/>
<path d="M25.3985 28.1454C25.2582 28.5581 24.9977 28.7712 24.7863 28.869C24.508 28.9977 24.4771 29.2386 24.4834 29.3715L24.2927 27.9081C24.2927 27.9081 24.2629 27.4958 24.6864 27.3387C24.8964 27.2609 25.2014 26.9685 25.3767 26.54C25.5527 27.2668 25.5219 27.7833 25.3985 28.1454Z" stroke="black" stroke-width="0.280477" stroke-linecap="round" stroke-linejoin="round"/>
<path d="M24.4949 29.4629C24.4949 29.4629 24.4952 29.4646 24.4956 29.4657" stroke="black" stroke-width="0.280477" stroke-linecap="round" stroke-linejoin="round"/>
<path d="M23.016 27.2252L23.0144 27.2236" stroke="black" stroke-width="0.280477" stroke-linecap="round" stroke-linejoin="round"/>
<path d="M24.7863 30.7841L24.7576 30.6533" stroke="black" stroke-width="0.280477" stroke-linecap="round" stroke-linejoin="round"/>
<path d="M25.1091 30.0085C24.8233 30.1768 24.7897 30.6042 24.7865 30.7412C24.7834 30.7195 24.7757 30.6901 24.7578 30.6536L24.4959 29.4658L24.4836 29.3725C24.4773 29.2396 24.5082 28.9988 24.7865 28.8701C24.9979 28.7723 25.2584 28.5591 25.3987 28.1465C25.5677 28.5823 25.4516 29.8069 25.1091 30.0085Z" stroke="black" stroke-width="0.280477" stroke-linecap="round" stroke-linejoin="round"/>
<path d="M24.7864 30.7412C24.7903 30.7693 24.7864 30.784 24.7864 30.784C24.7864 30.784 24.7857 30.7682 24.7864 30.7412Z" stroke="black" stroke-width="0.280477" stroke-linecap="round" stroke-linejoin="round"/>
<path d="M24.7576 30.6532C24.7011 30.5399 24.5448 30.3594 24.1209 30.1392C23.3924 29.7595 23.3818 28.4146 23.3818 28.3887C23.4579 28.4591 23.5491 28.5251 23.6585 28.5833C24.4873 29.0254 24.428 29.221 24.4939 29.458C24.4911 29.4443 24.4855 29.4135 24.4834 29.3721L24.4957 29.4654L24.7576 30.6532Z" stroke="black" stroke-width="0.280477" stroke-linecap="round" stroke-linejoin="round"/>
<path d="M24.7863 30.7406C24.7863 30.7406 23.9782 31.426 24.0697 31.8755C24.1612 32.3249 25.8627 31.839 26.0085 31.5715C26.1544 31.304 24.7863 30.7402 24.7863 30.7402V30.7406Z" stroke="black" stroke-width="0.280477" stroke-linecap="round" stroke-linejoin="round"/>
<path d="M13.9968 7.90825C13.9968 7.90825 14.9876 7.35781 15.5871 8.47131C16.1866 9.58445 14.8071 13.2776 16.5232 15.8131C16.5232 15.8131 16.0366 13.6615 16.5232 12.33C17.0098 10.9984 17.2665 9.10238 16.3122 8.15261C16.3122 8.15261 15.5941 7.17095 13.9968 7.90825Z" fill="#3D0027" stroke="black" stroke-width="0.280477" stroke-linecap="round" stroke-linejoin="round"/>
<path d="M7.54479 34.3282C7.54479 34.3282 9.68167 35.2166 12.0236 34.6901C12.0864 34.676 12.1499 34.661 12.213 34.6445C12.1944 34.5649 12.1758 34.4853 12.1569 34.4064C12.153 34.3899 12.1492 34.3735 12.145 34.3573C12.0328 33.8809 11.922 33.4114 11.8196 32.9753C11.5265 31.7265 11.3035 30.7515 11.3007 30.6708C11.299 30.6193 11.3442 30.5236 11.4168 30.4009C11.6762 29.9633 12.2848 29.1843 12.3522 28.8663C12.4388 28.4589 12.3367 26.4917 11.4897 25.8817C11.4588 25.8596 11.3782 25.8477 11.2622 25.8463C11.2011 25.8456 11.1303 25.847 11.0521 25.8519C11.0308 25.8533 11.009 25.8547 10.9866 25.8564C10.9645 25.8582 10.9417 25.8603 10.9186 25.8621C10.9182 25.8621 10.9182 25.8613 10.9179 25.8621C10.9179 25.8621 10.9175 25.8621 10.9172 25.8621C10.9161 25.8621 10.9154 25.8621 10.9147 25.8621C10.9133 25.8621 10.9112 25.8621 10.9088 25.8621C10.907 25.8621 10.9049 25.8621 10.9031 25.8621C10.8989 25.8621 10.8947 25.8628 10.8902 25.8635C10.8751 25.8652 10.859 25.8666 10.8428 25.8684C10.8348 25.8691 10.8267 25.8698 10.8186 25.8708C10.7857 25.874 10.7527 25.8778 10.7187 25.8817C10.7072 25.8834 10.6949 25.8848 10.6826 25.8866C10.6767 25.8869 10.6707 25.8876 10.6644 25.8887C10.6518 25.8901 10.6391 25.8919 10.6269 25.8936C10.6083 25.8961 10.5897 25.8985 10.5708 25.9013C10.5645 25.902 10.5582 25.9027 10.5518 25.9041C10.5333 25.9069 10.514 25.9097 10.4947 25.9125C10.488 25.9132 10.4814 25.9146 10.4754 25.9153C10.4561 25.9185 10.4365 25.9217 10.4169 25.9248C10.3906 25.929 10.3646 25.9332 10.3383 25.9381C10.325 25.9402 10.3117 25.9427 10.2984 25.9451C10.2258 25.9581 10.1518 25.9725 10.0771 25.9879C10.0498 25.9939 10.0231 25.9995 9.99615 26.0054C9.90605 26.0251 9.81559 26.0468 9.72689 26.0703C9.68868 26.0805 9.65116 26.0906 9.61365 26.1012C9.58736 26.1089 9.56141 26.1166 9.53512 26.1243C9.52039 26.1289 9.50602 26.1334 9.49129 26.138C9.47517 26.1429 9.45869 26.1481 9.44221 26.153C9.40925 26.1636 9.37665 26.1744 9.34474 26.186C9.34054 26.1874 9.33633 26.1892 9.33212 26.1906C9.33002 26.1913 9.32827 26.1916 9.32616 26.1927C9.32371 26.1934 9.32125 26.1941 9.31845 26.1951C9.3167 26.1955 9.31459 26.1965 9.31319 26.1972C9.30478 26.2 9.29671 26.2028 9.28865 26.206C9.26656 26.2137 9.24482 26.2218 9.22379 26.2302C9.21432 26.2337 9.20451 26.2375 9.19504 26.2414C9.18382 26.2456 9.1726 26.2502 9.16138 26.2547H9.16033C9.15437 26.2575 9.14841 26.26 9.14245 26.2624C9.13123 26.267 9.12001 26.2719 9.10914 26.2765C9.09582 26.2821 9.08285 26.2877 9.06988 26.2936C9.06602 26.295 9.06287 26.2964 9.05936 26.2982C9.04989 26.3024 9.04078 26.3066 9.03131 26.3108C9.02851 26.3119 9.0257 26.3133 9.02325 26.3143C9.01378 26.3189 9.00432 26.3234 8.9952 26.3276C8.98644 26.3322 8.97732 26.3364 8.96855 26.341C8.96435 26.3431 8.96049 26.3448 8.95663 26.3466C8.95278 26.3483 8.94892 26.3504 8.94542 26.3525C8.88406 26.3841 8.82727 26.4167 8.77608 26.4511C8.76626 26.4577 8.7568 26.464 8.74698 26.4707C8.72419 26.4868 8.70245 26.5029 8.68247 26.5194C8.68072 26.5212 8.67896 26.5222 8.67721 26.5236C8.6709 26.5289 8.66494 26.5341 8.65898 26.5394C8.64986 26.5471 8.64145 26.5552 8.63304 26.5632L8.63198 26.5639C8.62743 26.5685 8.62287 26.5724 8.61901 26.5769C8.60709 26.5888 8.59587 26.6004 8.5857 26.6127C8.57869 26.6204 8.57238 26.6281 8.56642 26.6362C8.56502 26.6376 8.56397 26.6386 8.56292 26.6404C8.55976 26.6446 8.55696 26.6488 8.5538 26.653C8.551 26.6569 8.54784 26.6604 8.54539 26.6642C8.54433 26.6663 8.54293 26.6681 8.54153 26.6698C8.54153 26.6698 8.54083 26.6709 8.54083 26.6712C8.53732 26.6761 8.53452 26.681 8.53171 26.6863C8.52856 26.6912 8.52575 26.6968 8.52295 26.7017C8.52225 26.7031 8.52119 26.7045 8.52049 26.7063C8.51804 26.7098 8.51629 26.7136 8.51488 26.7175C8.51453 26.7182 8.51453 26.7186 8.51418 26.7193C8.51173 26.7238 8.50927 26.7287 8.50752 26.7333C8.50472 26.7385 8.50296 26.7441 8.50086 26.7494C8.49981 26.7522 8.49841 26.7554 8.49771 26.7578C8.497 26.7599 8.4963 26.762 8.4956 26.7641C8.49525 26.7648 8.4949 26.7655 8.49455 26.7666C8.49245 26.7747 8.48999 26.782 8.48824 26.7904C8.48719 26.795 8.48614 26.7992 8.48508 26.8038C8.48438 26.8087 8.48333 26.8132 8.48298 26.8181C8.48298 26.8192 8.48298 26.8199 8.48263 26.8209C8.48193 26.829 8.48088 26.8371 8.48018 26.8458C8.47947 26.8549 8.47947 26.8637 8.47947 26.8728C8.47947 26.8728 8.47947 26.8732 8.47947 26.8735L8.49806 26.9047L8.71367 27.2718C8.73997 27.3205 8.76451 27.3679 8.78625 27.4124C8.83217 27.506 8.86758 27.5891 8.89037 27.6585C8.89318 27.6673 8.89598 27.6764 8.89844 27.6855C8.90405 27.7027 8.90825 27.7188 8.91106 27.7339C8.91316 27.7416 8.91456 27.749 8.91491 27.756C8.91947 27.784 8.92017 27.8075 8.91632 27.8257C8.91526 27.8303 8.91421 27.8349 8.91246 27.8387C8.9093 27.8464 8.90545 27.8531 8.90019 27.858C8.89388 27.8636 8.88792 27.8696 8.88126 27.8752C8.86899 27.886 8.85636 27.8959 8.84304 27.9046C8.83603 27.9099 8.82867 27.9144 8.82095 27.919C8.81289 27.9243 8.80413 27.9288 8.79571 27.933C8.78169 27.9407 8.76801 27.9467 8.75329 27.952C8.75013 27.9534 8.74733 27.9544 8.74382 27.9555C8.73751 27.9576 8.7312 27.96 8.72454 27.9618C8.68037 27.9758 8.63409 27.9828 8.58606 27.9842C8.57168 27.9842 8.55661 27.9842 8.54153 27.9839C8.4921 27.9821 8.44161 27.9747 8.39112 27.9632C8.38271 27.9618 8.37394 27.9597 8.36588 27.9572C8.2302 27.9232 8.09347 27.8604 7.97181 27.7928C7.95989 27.7861 7.94832 27.7795 7.9371 27.7731C7.92623 27.7668 7.91572 27.7602 7.9052 27.7539C7.89258 27.7462 7.88031 27.7384 7.86768 27.7311C7.74708 27.6564 7.64996 27.5831 7.59457 27.54C7.58826 27.5347 7.58195 27.5298 7.57704 27.5256C7.57389 27.5232 7.57108 27.5214 7.56828 27.519C7.55565 27.5081 7.54759 27.5014 7.54549 27.5C7.53427 27.4779 7.5227 27.4562 7.51078 27.4345C7.50307 27.4201 7.49535 27.4057 7.48694 27.3913C7.47958 27.378 7.47186 27.3647 7.46415 27.351C7.42068 27.275 7.37335 27.1985 7.32356 27.1228C7.3169 27.1119 7.31024 27.1021 7.30323 27.0919C7.28079 27.0583 7.258 27.0243 7.23451 26.991C7.22294 26.9752 7.21172 26.9594 7.20015 26.9433L7.19524 26.9363C7.19068 26.93 7.18578 26.9237 7.18122 26.9173C7.17 26.9012 7.15843 26.8854 7.14616 26.87C7.13634 26.856 7.12547 26.842 7.11461 26.8283C7.09147 26.7974 7.06798 26.7673 7.04379 26.7375C7.02906 26.7189 7.01398 26.6996 6.99856 26.6814C6.99295 26.6737 6.98699 26.6667 6.98138 26.66C6.967 26.6425 6.95263 26.6253 6.93791 26.6085C6.92073 26.5878 6.9032 26.5678 6.88567 26.5478C6.87199 26.5317 6.85832 26.5163 6.84395 26.5005C6.82747 26.4812 6.81029 26.463 6.79311 26.4444C6.7556 26.4037 6.71808 26.3645 6.68057 26.3269C6.6683 26.3147 6.65603 26.3024 6.64305 26.2901C6.63078 26.2779 6.61851 26.2656 6.60589 26.254C6.59678 26.2453 6.58731 26.2361 6.57819 26.2277C6.56803 26.2172 6.55751 26.2081 6.54734 26.199C6.53121 26.1846 6.51579 26.1702 6.50001 26.1569C6.49861 26.1555 6.49721 26.1541 6.4958 26.153C6.44707 26.1099 6.39939 26.0714 6.35276 26.0359C6.34084 26.0272 6.32927 26.0184 6.3177 26.0104C6.30192 25.9984 6.2858 25.9876 6.27037 25.977C6.26196 25.9711 6.25249 25.9651 6.24373 25.9592C6.22479 25.9469 6.20586 25.935 6.18728 25.9245C6.18062 25.9202 6.17326 25.9167 6.16624 25.9125C6.15783 25.908 6.14977 25.9038 6.1417 25.8996C6.11716 25.8866 6.09262 25.8757 6.06983 25.8663C5.42684 25.6114 5.12603 26.0969 5.05205 26.4198C4.97843 26.742 5.95484 29.775 6.11821 30.0695C6.44812 30.6659 7.77618 31.1631 7.77618 31.1631L7.68678 32.3821L7.61841 33.3108L7.54373 34.3289L7.54479 34.3282Z" fill="#94624B" stroke="black" stroke-width="0.280477" stroke-linecap="round" stroke-linejoin="round"/>
<path d="M7.54682 27.4981C7.76208 27.9167 7.85359 28.3076 7.68495 28.5219C7.23584 29.0919 5.78052 27.0967 5.78052 27.0967" fill="#FFD9D4"/>
<path d="M7.54682 27.4981C7.76208 27.9167 7.85359 28.3076 7.68495 28.5219C7.23584 29.0919 5.78052 27.0967 5.78052 27.0967" stroke="black" stroke-width="0.280477" stroke-linecap="round" stroke-linejoin="round"/>
<path d="M8.71411 27.2715C9.31153 27.7697 10.6536 27.4103 10.6536 27.4103" stroke="black" stroke-width="0.280477" stroke-linecap="round" stroke-linejoin="round"/>
<path d="M7.2813 25.3632C7.31811 25.3979 7.35633 25.4344 7.39419 25.473C7.39524 25.4744 7.39665 25.4758 7.397 25.4761C7.77248 25.8534 8.18058 26.3978 8.47964 26.8729V26.8736C8.47964 26.8641 8.47964 26.855 8.48034 26.8459C8.48104 26.8364 8.48174 26.8273 8.48314 26.8182C8.48454 26.8091 8.4863 26.8 8.4884 26.7909C8.4905 26.7818 8.49296 26.773 8.49576 26.7642C8.49646 26.7625 8.49717 26.7604 8.49787 26.7579C8.50172 26.7474 8.50593 26.7369 8.51084 26.7264C8.51364 26.7197 8.51715 26.7123 8.52136 26.7057C8.52451 26.699 8.52802 26.6927 8.53222 26.686C8.53643 26.6787 8.54099 26.671 8.5459 26.664C8.54835 26.6601 8.55116 26.6562 8.55431 26.6527C8.55817 26.6471 8.56238 26.6415 8.56693 26.6359C8.57289 26.6278 8.57885 26.6201 8.58622 26.6124C8.58902 26.6086 8.59218 26.605 8.59568 26.6015C8.60304 26.5931 8.61111 26.5847 8.61952 26.5767C8.62373 26.5717 8.62864 26.5672 8.6339 26.5626C8.64196 26.5549 8.65038 26.5465 8.65984 26.5388C8.66755 26.5321 8.67492 26.5255 8.68333 26.5188C8.70752 26.4988 8.73417 26.4792 8.76257 26.4603C8.76712 26.4571 8.77203 26.4536 8.77694 26.4504C8.78711 26.4431 8.79833 26.4364 8.80955 26.4291C8.82322 26.4203 8.83724 26.4119 8.85197 26.4035C8.85723 26.4 8.86284 26.3971 8.8681 26.3943C8.87896 26.388 8.88983 26.3821 8.90105 26.3761C8.91578 26.368 8.93085 26.36 8.94628 26.3519C8.95399 26.3481 8.96135 26.3442 8.96942 26.3403C8.98975 26.3302 9.01079 26.32 9.03217 26.3102C9.0448 26.3042 9.05777 26.2983 9.07074 26.293C9.08371 26.2871 9.09668 26.2811 9.11001 26.2758C9.12087 26.2713 9.13209 26.2664 9.14331 26.2618C9.14962 26.259 9.15593 26.2569 9.16224 26.2541C9.17346 26.2499 9.18433 26.245 9.1959 26.2408C9.20537 26.2373 9.21518 26.2334 9.22465 26.2296C9.24569 26.2211 9.26742 26.2131 9.28951 26.2054C9.29933 26.2019 9.3095 26.198 9.31966 26.1945C9.32247 26.1935 9.32492 26.1927 9.32738 26.192C9.33334 26.1896 9.33965 26.1875 9.34596 26.1854C9.35823 26.1808 9.3705 26.1766 9.38312 26.1724C9.39609 26.1682 9.40836 26.164 9.42098 26.1598C9.43361 26.1556 9.44623 26.1514 9.45885 26.1472C9.48444 26.1391 9.51004 26.1314 9.53598 26.1233C9.68533 26.0785 9.84135 26.0388 9.99701 26.0048C10.024 25.9989 10.0514 25.9929 10.078 25.9873C10.125 25.9775 10.1723 25.968 10.2189 25.9593C10.2456 25.954 10.2726 25.9491 10.2989 25.9445C10.3655 25.9326 10.4311 25.9217 10.4952 25.9119C10.5141 25.9088 10.5334 25.906 10.5524 25.9035C10.559 25.9025 10.565 25.9014 10.5713 25.9007C10.5902 25.8975 10.6092 25.8951 10.6274 25.893C10.6404 25.8912 10.653 25.8895 10.6656 25.8881C10.6775 25.886 10.6894 25.8849 10.7014 25.8835C10.7413 25.8786 10.7809 25.8741 10.8192 25.8702C10.8325 25.8684 10.8462 25.867 10.8595 25.866C10.8749 25.8646 10.89 25.8632 10.9044 25.8618C10.9324 25.8593 10.9597 25.8572 10.9864 25.8551C11.0088 25.8534 11.0306 25.852 11.052 25.8506C11.052 25.8506 10.9433 25.2763 10.7662 24.5201C10.4111 23.0044 9.78105 20.7603 9.20151 20.9608C9.02446 21.0222 8.92805 21.2784 8.88457 21.6364C8.74083 22.8162 9.1675 25.1031 9.15488 25.196C9.13911 25.3177 6.88337 21.358 6.04229 22.0105C5.46942 22.4547 6.8406 24.6926 7.28095 25.3618L7.2813 25.3632Z" fill="#94624B" stroke="black" stroke-width="0.280477" stroke-linecap="round" stroke-linejoin="round"/>
<path d="M7.46464 29.6191C7.56386 29.706 7.66834 29.7905 7.79069 29.841C7.9127 29.8911 8.05644 29.903 8.17495 29.8448C8.34078 29.7631 8.41791 29.5672 8.43824 29.3831C8.45858 29.1994 8.43719 29.0111 8.47471 28.8302C8.51222 28.649 8.63142 28.4652 8.81338 28.433C8.95011 28.4088 9.08474 28.4744 9.22007 28.5056C9.618 28.5974 10.0205 28.3895 10.3578 28.1595C10.4885 28.0705 10.62 27.9727 10.6971 27.8345C10.8065 27.6385 10.7234 27.6238 10.6544 27.4103C10.5418 27.0629 10.3714 26.5303 10.0787 26.3119C9.78593 26.0935 8.84038 26.9359 8.48032 26.8735C7.90955 26.7747 7.90814 25.8817 7.37734 26.1134C7.04778 26.2575 6.74522 26.4574 6.47666 26.6961C6.31293 26.8416 6.09872 27.0001 6.00371 27.2034C5.89923 27.4271 6.00651 27.655 6.10818 27.8584C6.2635 28.1697 6.44721 28.467 6.65617 28.7454C6.89457 29.0634 7.16628 29.3572 7.46534 29.6187L7.46464 29.6191Z" fill="#663421"/>
<path d="M8.9007 27.8566C8.46631 28.2762 7.56914 27.5169 7.54705 27.4979H7.5467C7.18909 26.8023 6.48931 26.031 6.07104 25.8652C6.07104 25.8652 6.12889 25.3319 6.55592 25.0417C6.71369 24.9344 6.98154 25.0844 7.2813 25.3628C7.31846 25.3972 7.35633 25.4336 7.39419 25.4722C7.39559 25.4739 7.3963 25.475 7.39735 25.4757C7.77284 25.8533 8.18093 26.3981 8.47999 26.8728C8.48139 26.918 8.49261 26.9647 8.5154 27.0131C8.56378 27.1175 8.63215 27.2024 8.71454 27.2707C8.87791 27.5737 8.9589 27.8005 8.90105 27.8566H8.9007Z" fill="#94624B" stroke="black" stroke-width="0.280477" stroke-linecap="round" stroke-linejoin="round"/>
<path d="M5.78027 27.0972C5.78027 27.0972 7.09641 29.0111 7.63913 28.6377C8.18185 28.264 7.3236 26.9138 6.49654 26.1523" fill="#94624B"/>
<path d="M5.78027 27.0972C5.78027 27.0972 7.09641 29.0111 7.63913 28.6377C8.18185 28.264 7.3236 26.9138 6.49654 26.1523" stroke="black" stroke-width="0.280477" stroke-linecap="round" stroke-linejoin="round"/>
<path d="M10.9185 25.8613C10.9185 25.8613 8.22351 26.1341 8.52012 27.0607C8.81672 27.9873 10.6535 27.4099 10.6535 27.4099" fill="#94624B"/>
<path d="M10.9185 25.8613C10.9185 25.8613 8.22351 26.1341 8.52012 27.0607C8.81672 27.9873 10.6535 27.4099 10.6535 27.4099" stroke="black" stroke-width="0.280477" stroke-linecap="round" stroke-linejoin="round"/>
<path d="M10.2339 28.0342C9.34896 28.1884 8.60149 28.9426 8.45459 29.8285" stroke="black" stroke-width="0.280477" stroke-linecap="round" stroke-linejoin="round"/>
<path d="M7.77688 31.1617L7.61911 33.3098L7.54443 34.3276C7.54443 34.3276 9.79806 35.2648 12.2126 34.6442C12.0766 34.0699 11.942 33.4985 11.8192 32.975C11.5261 31.7262 11.3032 30.7512 11.3004 30.6709" stroke="black" stroke-width="0.280477" stroke-linecap="round" stroke-linejoin="round"/>
<path d="M11.4164 30.4013C11.6759 29.9637 12.2845 29.1847 12.3518 28.8667C12.4384 28.4593 12.3364 26.4921 11.4894 25.8821C11.4585 25.86 11.3779 25.8481 11.2618 25.8467C11.2534 25.9803 11.2576 26.1096 11.2709 26.2215C11.3491 26.882 11.4122 27.4745 11.3404 28.1441C11.2713 28.7896 11.1801 29.448 11.3204 30.0819C11.3442 30.1895 11.3765 30.2964 11.4164 30.4013Z" fill="#AD8679"/>
<path d="M10.3615 24.8148C10.5161 24.8685 10.684 24.7416 10.7443 24.5897C10.7534 24.5673 10.7605 24.5445 10.7664 24.521C10.4113 23.0054 9.78124 20.7612 9.2017 20.9618C9.02465 21.0231 8.92824 21.2794 8.88477 21.6374C8.97031 21.6742 9.0534 21.7145 9.12983 21.7618C9.55405 22.0251 9.77598 22.5226 9.88116 23.011C9.98634 23.4994 9.99966 24.0057 10.1322 24.4874C10.1693 24.6213 10.2307 24.7693 10.3615 24.8148Z" fill="#AD8679"/>
<path d="M6.1189 30.0688C6.44881 30.6652 7.77686 31.1623 7.77686 31.1623L7.68746 32.3814L7.6191 33.3101L7.54442 34.3279C7.54442 34.3279 9.68165 35.2166 12.0233 34.6897C12.086 34.6757 12.1495 34.6609 12.2126 34.6445C12.1937 34.5649 12.1751 34.4853 12.1562 34.406C12.1523 34.3896 12.1484 34.3734 12.1446 34.357C12.032 33.8805 11.9216 33.4111 11.8192 32.9749C11.5261 31.7261 11.3032 30.7511 11.3003 30.6708C11.2923 30.4355 12.2655 29.2733 12.3518 28.8659C12.4387 28.4585 12.3364 26.4917 11.4897 25.8813C11.4423 25.8477 11.2793 25.8382 11.0521 25.8515" stroke="black" stroke-width="0.280477" stroke-linecap="round" stroke-linejoin="round"/>
<path d="M10.9187 25.861C10.0345 25.9378 8.46169 26.2968 8.47992 26.8725C8.18086 26.3978 7.77277 25.8529 7.39693 25.4753C7.39623 25.4746 7.39518 25.4736 7.39413 25.4718C7.35591 25.4336 7.31805 25.3968 7.28124 25.3625C6.84089 24.6932 5.46971 22.4553 6.04293 22.0111C6.88401 21.3587 9.13974 25.3179 9.15552 25.197C9.17165 25.0757 8.44136 21.2247 9.2018 20.9618C10.0702 20.6613 11.0522 25.8515 11.0522 25.8515C11.0098 25.854 10.9653 25.8571 10.919 25.8614" stroke="black" stroke-width="0.280477" stroke-linecap="round" stroke-linejoin="round"/>
</g>
<defs>
<clipPath id="clip0_1290_26029">
<rect width="35" height="35" rx="17.5" fill="white"/>
</clipPath>
</defs>
</svg>
