<svg width="35" height="35" viewBox="0 0 35 35" fill="none" xmlns="http://www.w3.org/2000/svg">
<g clip-path="url(#clip0_1290_26035)">
<rect width="35" height="35" rx="17.5" fill="#CAC2FF"/>
<path d="M22.2079 11.8417C22.1942 11.895 22.1795 11.9476 22.1648 11.9991C21.9534 12.7189 21.6038 13.2539 20.8939 13.5873C20.6895 13.6834 20.4549 13.7626 20.1853 13.825C20.1853 13.825 20.2165 14.6657 20.2902 15.8175C20.4385 18.1391 20.76 21.7239 21.3486 22.2316C21.3486 22.2316 20.3859 28.1079 17.4973 27.9666C14.6088 27.8257 14.2028 22.6611 14.2028 22.6611C14.3016 22.2316 14.3044 18.9041 14.3044 18.9041C13.4174 19.1968 12.4691 19.3388 11.6364 19.0966C11.473 19.0492 11.3146 18.9872 11.1614 18.9083C7.26483 16.9033 12.1598 9.33564 12.1598 9.33564C12.1598 9.33564 12.5953 9.27078 13.2961 9.2522C14.4766 9.2203 16.4101 9.31881 18.2844 10.0772C18.5435 10.182 18.8012 10.2991 19.0557 10.4306C19.3807 10.053 19.8716 9.64206 20.3694 9.82332C20.6495 9.92534 20.9658 10.0838 21.2571 10.2812C21.4058 10.3818 21.5481 10.4926 21.6757 10.6108C22.0659 10.9722 22.3205 11.4052 22.2079 11.8417Z" fill="#94624B" stroke="black" stroke-width="0.280477" stroke-linecap="round" stroke-linejoin="round"/>
<path d="M17.4974 17.2969C17.4974 17.2969 17.4932 20.1048 14.3045 21.0777L14.2947 19.0134C14.2947 19.0134 16.6041 18.0857 17.4974 17.2972V17.2969Z" fill="#663421"/>
<path d="M21.6758 10.6109C21.5625 10.5808 21.4486 10.5366 21.341 10.5012C21.0174 10.3946 20.6661 10.375 20.3327 10.4447C20.0511 10.5033 19.7864 10.6235 19.5095 10.6996C19.2847 10.7613 19.0411 10.7922 18.8174 10.7375C18.8801 10.6484 18.9608 10.5411 19.0558 10.4307C19.3808 10.0531 19.8716 9.64222 20.3695 9.82348C20.6496 9.9255 20.9658 10.084 21.2572 10.2814C21.4058 10.382 21.5482 10.4928 21.6758 10.6109Z" fill="#AD8679"/>
<path d="M13.2961 9.25195C12.4561 10.58 12.0669 12.1563 11.8966 13.722C11.7181 15.3614 11.763 17.0166 11.6771 18.6633C11.6697 18.8043 11.6578 18.9512 11.6364 19.0963C11.473 19.049 11.3146 18.9869 11.1614 18.9081C7.26483 16.903 12.1598 9.3354 12.1598 9.3354C12.1598 9.3354 12.5953 9.27053 13.2961 9.25195Z" fill="#AD8679"/>
<path d="M20.1853 13.8249C20.1853 13.8249 20.2165 14.6656 20.2901 15.8173C20.2579 15.7384 20.213 15.6564 20.1909 15.5968C20.1429 15.4688 20.0952 15.3408 20.0472 15.2125C19.9515 14.9566 19.8557 14.7003 19.76 14.444C19.6966 14.2743 19.5153 14.0156 19.7043 13.8834C19.8827 13.7586 20.1853 13.7211 20.3915 13.6559C20.5541 13.6043 20.7301 13.5531 20.8939 13.5872C20.6895 13.6832 20.4549 13.7625 20.1853 13.8249Z" fill="#663421"/>
<path d="M22.2079 11.8419C22.1942 11.8952 22.1795 11.9478 22.1648 11.9993C21.8924 12.9263 21.3914 13.5468 20.1853 13.8252C20.1853 13.8252 20.4679 21.4724 21.3486 22.2318C21.3486 22.2318 20.3859 28.1081 17.4973 27.9668C14.6088 27.8259 14.2028 22.6613 14.2028 22.6613C14.3016 22.2318 14.3044 18.9043 14.3044 18.9043C13.2435 19.2542 12.0953 19.3892 11.1614 18.9085C7.26483 16.9034 12.1598 9.33583 12.1598 9.33583C12.1598 9.33583 15.8649 8.78434 19.0557 10.4307C19.3807 10.0531 19.8716 9.64225 20.3694 9.82351C20.6495 9.92553 20.9658 10.084 21.2571 10.2814C21.8601 10.6895 22.3573 11.2627 22.2079 11.8419Z" stroke="black" stroke-width="0.280477" stroke-linecap="round" stroke-linejoin="round"/>
<mask id="mask0_1290_26035" style="mask-type:luminance" maskUnits="userSpaceOnUse" x="2" y="22" width="32" height="17">
<path d="M33.2293 26.8233C33.2293 26.8233 21.9654 38.3183 21.8991 38.0872C21.8332 37.8558 9.38005 37.129 9.18196 36.9969C8.98352 36.865 2.13429 30.0274 2.27207 29.8289C2.41021 29.6308 2.37725 26.3275 3.7316 25.4027C4.80758 24.6678 10.7211 23.6413 13.1556 23.0347C13.1556 23.0347 13.3775 28.8606 17.4974 29.2978C21.6172 29.7353 22.7742 22.7812 22.7742 22.7812C25.2512 23.4625 29.9807 24.2394 30.7517 24.6762C31.7428 25.2375 33.2293 26.8233 33.2293 26.8233Z" fill="white"/>
</mask>
<g mask="url(#mask0_1290_26035)">
<path d="M33.2293 26.8233C33.2293 26.8233 21.9654 38.3183 21.8991 38.0872C21.8332 37.8558 9.38005 37.129 9.18196 36.9969C8.98352 36.865 2.13429 30.0274 2.27207 29.8289C2.41021 29.6308 2.37725 26.3275 3.7316 25.4027C4.80758 24.6678 10.7211 23.6413 13.1556 23.0347C13.1556 23.0347 13.3775 28.8606 17.4974 29.2978C21.6172 29.7353 22.7742 22.7812 22.7742 22.7812C25.2512 23.4625 29.9807 24.2394 30.7517 24.6762C31.7428 25.2375 33.2293 26.8233 33.2293 26.8233Z" fill="#49A2A6" stroke="black" stroke-width="0.280477" stroke-linecap="round" stroke-linejoin="round"/>
<path d="M6.19945 25.7671C6.92769 25.7671 7.51804 25.1767 7.51804 24.4485C7.51804 23.7202 6.92769 23.1299 6.19945 23.1299C5.47121 23.1299 4.88086 23.7202 4.88086 24.4485C4.88086 25.1767 5.47121 25.7671 6.19945 25.7671Z" fill="#F5D256" stroke="black" stroke-width="0.280477" stroke-linecap="round" stroke-linejoin="round"/>
<path d="M12.426 25.7671C13.1542 25.7671 13.7446 25.1767 13.7446 24.4485C13.7446 23.7202 13.1542 23.1299 12.426 23.1299C11.6978 23.1299 11.1074 23.7202 11.1074 24.4485C11.1074 25.1767 11.6978 25.7671 12.426 25.7671Z" fill="#F5D256" stroke="black" stroke-width="0.280477" stroke-linecap="round" stroke-linejoin="round"/>
<path d="M18.6528 25.7671C19.3811 25.7671 19.9714 25.1767 19.9714 24.4485C19.9714 23.7202 19.3811 23.1299 18.6528 23.1299C17.9246 23.1299 17.3342 23.7202 17.3342 24.4485C17.3342 25.1767 17.9246 25.7671 18.6528 25.7671Z" fill="#F5D256" stroke="black" stroke-width="0.280477" stroke-linecap="round" stroke-linejoin="round"/>
<path d="M24.8794 25.7671C25.6076 25.7671 26.198 25.1767 26.198 24.4485C26.198 23.7202 25.6076 23.1299 24.8794 23.1299C24.1511 23.1299 23.5608 23.7202 23.5608 24.4485C23.5608 25.1767 24.1511 25.7671 24.8794 25.7671Z" fill="#F5D256" stroke="black" stroke-width="0.280477" stroke-linecap="round" stroke-linejoin="round"/>
<path d="M31.1062 25.7671C31.8344 25.7671 32.4248 25.1767 32.4248 24.4485C32.4248 23.7202 31.8344 23.1299 31.1062 23.1299C30.378 23.1299 29.7876 23.7202 29.7876 24.4485C29.7876 25.1767 30.378 25.7671 31.1062 25.7671Z" fill="#F5D256" stroke="black" stroke-width="0.280477" stroke-linecap="round" stroke-linejoin="round"/>
<path d="M3.02269 30.8774C3.75093 30.8774 4.34128 30.2871 4.34128 29.5588C4.34128 28.8306 3.75093 28.2402 3.02269 28.2402C2.29445 28.2402 1.7041 28.8306 1.7041 29.5588C1.7041 30.2871 2.29445 30.8774 3.02269 30.8774Z" fill="#F5D256" stroke="black" stroke-width="0.280477" stroke-linecap="round" stroke-linejoin="round"/>
<path d="M9.24925 30.8774C9.97749 30.8774 10.5678 30.2871 10.5678 29.5588C10.5678 28.8306 9.97749 28.2402 9.24925 28.2402C8.52102 28.2402 7.93066 28.8306 7.93066 29.5588C7.93066 30.2871 8.52102 30.8774 9.24925 30.8774Z" fill="#F5D256" stroke="black" stroke-width="0.280477" stroke-linecap="round" stroke-linejoin="round"/>
<path d="M15.4761 30.8774C16.2043 30.8774 16.7947 30.2871 16.7947 29.5588C16.7947 28.8306 16.2043 28.2402 15.4761 28.2402C14.7478 28.2402 14.1575 28.8306 14.1575 29.5588C14.1575 30.2871 14.7478 30.8774 15.4761 30.8774Z" fill="#F5D256" stroke="black" stroke-width="0.280477" stroke-linecap="round" stroke-linejoin="round"/>
<path d="M21.7026 30.8774C22.4309 30.8774 23.0212 30.2871 23.0212 29.5588C23.0212 28.8306 22.4309 28.2402 21.7026 28.2402C20.9744 28.2402 20.384 28.8306 20.384 29.5588C20.384 30.2871 20.9744 30.8774 21.7026 30.8774Z" fill="#F5D256" stroke="black" stroke-width="0.280477" stroke-linecap="round" stroke-linejoin="round"/>
<path d="M27.9292 30.8774C28.6574 30.8774 29.2478 30.2871 29.2478 29.5588C29.2478 28.8306 28.6574 28.2402 27.9292 28.2402C27.2009 28.2402 26.6106 28.8306 26.6106 29.5588C26.6106 30.2871 27.2009 30.8774 27.9292 30.8774Z" fill="#F5D256" stroke="black" stroke-width="0.280477" stroke-linecap="round" stroke-linejoin="round"/>
<path d="M6.19945 35.9878C6.92769 35.9878 7.51804 35.3974 7.51804 34.6692C7.51804 33.9409 6.92769 33.3506 6.19945 33.3506C5.47121 33.3506 4.88086 33.9409 4.88086 34.6692C4.88086 35.3974 5.47121 35.9878 6.19945 35.9878Z" fill="#F5D256" stroke="black" stroke-width="0.280477" stroke-linecap="round" stroke-linejoin="round"/>
<path d="M12.426 35.9878C13.1542 35.9878 13.7446 35.3974 13.7446 34.6692C13.7446 33.9409 13.1542 33.3506 12.426 33.3506C11.6978 33.3506 11.1074 33.9409 11.1074 34.6692C11.1074 35.3974 11.6978 35.9878 12.426 35.9878Z" fill="#F5D256" stroke="black" stroke-width="0.280477" stroke-linecap="round" stroke-linejoin="round"/>
<path d="M18.6528 35.9878C19.3811 35.9878 19.9714 35.3974 19.9714 34.6692C19.9714 33.9409 19.3811 33.3506 18.6528 33.3506C17.9246 33.3506 17.3342 33.9409 17.3342 34.6692C17.3342 35.3974 17.9246 35.9878 18.6528 35.9878Z" fill="#F5D256" stroke="black" stroke-width="0.280477" stroke-linecap="round" stroke-linejoin="round"/>
<path d="M24.8794 35.9878C25.6076 35.9878 26.198 35.3974 26.198 34.6692C26.198 33.9409 25.6076 33.3506 24.8794 33.3506C24.1511 33.3506 23.5608 33.9409 23.5608 34.6692C23.5608 35.3974 24.1511 35.9878 24.8794 35.9878Z" fill="#F5D256" stroke="black" stroke-width="0.280477" stroke-linecap="round" stroke-linejoin="round"/>
<path d="M31.1062 35.9878C31.8344 35.9878 32.4248 35.3974 32.4248 34.6692C32.4248 33.9409 31.8344 33.3506 31.1062 33.3506C30.378 33.3506 29.7876 33.9409 29.7876 34.6692C29.7876 35.3974 30.378 35.9878 31.1062 35.9878Z" fill="#F5D256" stroke="black" stroke-width="0.280477" stroke-linecap="round" stroke-linejoin="round"/>
</g>
<path d="M33.2293 26.8233C33.2293 26.8233 21.9654 38.3183 21.8991 38.0872C21.8332 37.8558 9.38005 37.129 9.18196 36.9969C8.98352 36.865 2.13429 30.0274 2.27207 29.8289C2.41021 29.6308 2.37725 26.3275 3.7316 25.4027C4.80758 24.6678 10.7211 23.6413 13.1556 23.0347C13.1556 23.0347 13.3775 28.8606 17.4974 29.2978C21.6172 29.7353 22.7742 22.7812 22.7742 22.7812C25.2512 23.4625 29.9807 24.2394 30.7517 24.6762C31.7428 25.2375 33.2293 26.8233 33.2293 26.8233Z" stroke="black" stroke-width="0.280477" stroke-linecap="round" stroke-linejoin="round"/>
<path d="M21.2572 10.2813C20.9658 10.084 20.6496 9.92549 20.3695 9.82347C19.8716 9.64221 19.3808 10.0531 19.0558 10.4307C16.5315 9.12824 13.6854 9.20116 12.6066 9.28881C12.5028 9.29722 12.4155 9.30564 12.3464 9.313C12.2255 9.32597 12.1599 9.33579 12.1599 9.33579C12.1599 9.33579 12.1683 9.313 12.1855 9.27128C12.3787 8.80534 13.7008 5.97287 17.2274 6.11977C18.0492 6.15413 18.708 6.39464 19.2356 6.75155C20.3225 7.4864 20.8547 8.71453 21.1127 9.65308C21.1758 9.88412 21.2228 10.0973 21.2572 10.2813Z" fill="#F5D256" stroke="black" stroke-width="0.280477" stroke-linecap="round" stroke-linejoin="round"/>
<path d="M19.2357 6.75155C19.2174 6.79362 19.1961 6.83464 19.1715 6.8739C18.9941 7.15578 18.6726 7.32056 18.3469 7.38893C18.0209 7.45694 17.6839 7.44117 17.3509 7.43801C16.6399 7.431 15.9232 7.48429 15.2378 7.67326C14.5524 7.86258 13.8968 8.1932 13.3881 8.68999C13.2065 8.86669 13.0414 9.06653 12.824 9.19625C12.757 9.23622 12.683 9.26812 12.6066 9.28881C12.5207 9.3123 12.432 9.32176 12.3465 9.313C12.2907 9.30704 12.2364 9.29372 12.1855 9.27128C12.3787 8.80534 13.7008 5.97287 17.2275 6.11977C18.0493 6.15413 18.708 6.39464 19.2357 6.75155Z" fill="#FFE8A9"/>
<path d="M21.2572 10.2814C20.9658 10.084 20.6496 9.9255 20.3695 9.82348C19.8716 9.64222 19.3808 10.0531 19.0558 10.4307C15.865 8.78431 12.1599 9.3358 12.1599 9.3358C12.1599 9.3358 13.3852 5.95956 17.2274 6.11979C19.7405 6.22461 20.7295 8.25877 21.1127 9.65309C21.1758 9.88413 21.2228 10.0973 21.2572 10.2814Z" stroke="black" stroke-width="0.280477" stroke-linecap="round" stroke-linejoin="round"/>
<path d="M14.3044 18.9045C16.0136 18.3415 17.4973 17.2217 17.4973 17.2217" stroke="black" stroke-width="0.280477" stroke-linecap="round" stroke-linejoin="round"/>
<path d="M20.1853 13.8252C20.0205 13.8634 19.8424 13.895 19.6499 13.9202" stroke="black" stroke-width="0.280477" stroke-linecap="round" stroke-linejoin="round"/>
<path d="M18.6707 10.9625C18.6707 10.9625 18.7239 10.8703 18.8172 10.7374C18.88 10.6484 18.9606 10.5411 19.0556 10.4307" stroke="black" stroke-width="0.280477" stroke-linecap="round" stroke-linejoin="round"/>
<path d="M22.7741 22.7812C22.7741 22.7812 21.6171 29.7352 17.4973 29.2977C13.3774 28.8605 13.1555 23.0347 13.1555 23.0347C13.7855 22.8779 14.1824 22.7493 14.2027 22.6609C14.2027 22.6609 14.6087 27.8255 17.4973 27.9665C20.3859 28.1078 21.3486 22.2314 21.3486 22.2314C21.5442 22.4001 22.0673 22.5866 22.7741 22.7812Z" fill="#E938B5" stroke="black" stroke-width="0.280477" stroke-linecap="round" stroke-linejoin="round"/>
<path d="M19.0565 10.4307H19.0557" stroke="black" stroke-width="0.280477" stroke-linecap="round" stroke-linejoin="round"/>
<path d="M26.4913 12.9335C26.1705 13.6189 22.2161 12.0198 22.1649 11.9995C22.1797 11.948 22.1944 11.8954 22.2081 11.8421C22.3574 11.2629 21.8603 10.6897 21.2572 10.2816C21.2229 10.0975 21.1759 9.88436 21.1128 9.65332C21.1731 9.68067 26.8128 12.247 26.4913 12.9335Z" fill="#E86F3A" stroke="black" stroke-width="0.280477" stroke-linecap="round" stroke-linejoin="round"/>
<path d="M22.1654 11.999H22.1646" stroke="black" stroke-width="0.280477" stroke-linecap="round" stroke-linejoin="round"/>
<path d="M13.7141 8.19926C13.8491 8.12283 14.0006 8.08006 14.1555 8.06778C14.5727 8.03483 15.6305 8.00538 15.9762 8.24694C16.2248 8.42083 16.0298 8.72655 15.6901 8.78721C15.35 8.84786 14.0437 8.70692 13.8014 8.70201C13.5876 8.69781 13.2924 8.43872 13.7141 8.19961V8.19926Z" fill="black" stroke="black" stroke-width="0.280477" stroke-linecap="round" stroke-linejoin="round"/>
<path d="M17.1726 11.3027H14.6199C14.4404 11.3027 14.2949 11.4482 14.2949 11.6277V13.0838C14.2949 13.2633 14.4404 13.4088 14.6199 13.4088H17.1726C17.3521 13.4088 17.4976 13.2633 17.4976 13.0838V11.6277C17.4976 11.4482 17.3521 11.3027 17.1726 11.3027Z" fill="#9153D5" stroke="black" stroke-width="0.280477" stroke-linecap="round" stroke-linejoin="round"/>
<path d="M12.5044 11.3027H9.95171C9.77222 11.3027 9.62671 11.4482 9.62671 11.6277V13.0838C9.62671 13.2633 9.77222 13.4088 9.95171 13.4088H12.5044C12.6839 13.4088 12.8294 13.2633 12.8294 13.0838V11.6277C12.8294 11.4482 12.6839 11.3027 12.5044 11.3027Z" fill="#9153D5" stroke="black" stroke-width="0.280477" stroke-linecap="round" stroke-linejoin="round"/>
<path d="M12.8293 11.9431C12.8293 11.9431 13.3665 11.4098 14.2948 11.9431" stroke="black" stroke-width="0.280477" stroke-linecap="round" stroke-linejoin="round"/>
<path d="M19.5093 11.6457C19.8858 11.3011 20.3931 11.103 20.9036 11.1016C21.1297 11.1009 21.3794 11.1507 21.515 11.3312" stroke="black" stroke-width="0.280477" stroke-linecap="round" stroke-linejoin="round"/>
<path d="M20.1682 11.2285C20.3596 11.2422 20.5556 11.2566 20.7323 11.3319C20.909 11.4073 21.0661 11.556 21.0987 11.7453" stroke="black" stroke-width="0.280477" stroke-linecap="round" stroke-linejoin="round"/>
<path d="M20.3171 13.3202C20.6523 13.3202 20.924 13.0485 20.924 12.7133C20.924 12.3782 20.6523 12.1064 20.3171 12.1064C19.9819 12.1064 19.7102 12.3782 19.7102 12.7133C19.7102 13.0485 19.9819 13.3202 20.3171 13.3202Z" fill="#E86F3A" stroke="black" stroke-width="0.280477" stroke-linecap="round" stroke-linejoin="round"/>
<path d="M13.4564 12.9678C13.4564 12.9678 12.8362 14.0171 13.2018 14.2874C13.5675 14.5577 14.0443 13.8898 14.0443 13.8898" stroke="black" stroke-width="0.280477" stroke-linecap="round" stroke-linejoin="round"/>
<path d="M15.5115 14.6191L13.728 16.2017C13.728 16.2017 14.561 17.5463 15.704 16.6098C16.8908 15.6373 15.5115 14.6191 15.5115 14.6191Z" fill="white" stroke="black" stroke-width="0.280477" stroke-linecap="round" stroke-linejoin="round"/>
<path d="M37.0197 21.5906C37.0197 21.5906 35.2047 25.268 33.7448 28.1772C32.8077 30.0445 32.0167 31.5948 31.9448 31.6544C31.7608 31.8073 27.2199 26.256 27.2199 26.256L26.6747 25.5979L26.4496 25.3262L25.6502 24.3603L25.2765 23.9087C24.7254 24.1454 22.1702 24.1899 21.1479 23.9564C21.1016 23.9596 17.3653 24.0886 17.2275 23.3849C17.1143 22.8068 20.6238 22.6234 20.6238 22.6234C20.1371 22.2564 20.5147 21.5233 20.5147 21.5233C20.1031 21.1187 20.5017 20.4266 20.5017 20.4266C20.0404 20.0322 20.2037 19.6932 20.4106 19.4474C20.6178 19.202 22.8974 18.9299 22.8974 18.9299C22.8146 18.7367 22.7473 18.5337 22.6944 18.3279C22.6793 18.2704 22.666 18.2126 22.653 18.1544C22.4097 17.0409 22.5689 15.9078 22.9535 15.8966C23.4292 15.8822 24.0088 17.8795 25.279 18.5877C26.2312 19.1185 26.5397 20.7313 26.5397 20.7313C26.5397 20.7313 26.9885 20.7839 27.7037 20.8666C28.0872 20.9108 28.5476 20.9641 29.0563 21.023C29.3143 21.0528 29.585 21.084 29.8644 21.1162L34.5557 21.4272L37.0197 21.5906Z" fill="#94624B" stroke="black" stroke-width="0.280477" stroke-linecap="round" stroke-linejoin="round"/>
<path d="M34.5552 21.4279C33.8035 21.4942 33.0126 21.3143 32.2487 21.376C31.3567 21.4482 30.5293 21.8469 29.6802 22.1288C28.8307 22.411 27.869 22.5702 27.0644 22.1792C26.4316 21.8718 26 21.2754 25.5035 20.7769C24.5741 19.8439 23.4333 19.2034 22.6521 18.1544C22.4088 17.0409 22.568 15.9078 22.9526 15.8966C23.4284 15.8822 24.0079 17.8795 25.2781 18.5877C26.2303 19.1185 26.5389 20.7313 26.5389 20.7313C26.5389 20.7313 26.9876 20.7839 27.7028 20.8666C28.0864 20.9108 28.5467 20.9641 29.0554 21.023C29.3135 21.0528 29.5841 21.084 29.8636 21.1162L34.5549 21.4272L34.5552 21.4279Z" fill="#AD8679"/>
<path d="M33.7444 28.1772C32.8073 30.0444 32.0163 31.5948 31.9445 31.6544C31.7604 31.8072 27.2195 26.2559 27.2195 26.2559L26.6743 25.5978L26.4492 25.3261C26.6329 25.297 26.8086 25.405 26.9632 25.5084C27.8691 26.1164 28.8431 26.7793 29.9331 26.7387C30.3159 26.7246 30.6963 26.6216 31.0774 26.6591C31.5353 26.7036 31.948 26.9455 32.3385 27.1888C32.8195 27.4893 33.3027 27.8136 33.7448 28.1779L33.7444 28.1772Z" fill="#663421"/>
<path d="M29.8639 21.1162C29.5845 21.0843 29.3138 21.0528 29.0558 21.023C28.5471 20.9641 28.0867 20.9108 27.7032 20.8666C26.9883 20.7835 26.5392 20.7313 26.5392 20.7313C26.5392 20.7313 26.2303 19.1182 25.2785 18.5877C24.0083 17.8795 23.4287 15.8825 22.953 15.8966C22.5487 15.9085 22.3934 17.1615 22.6939 18.3276C22.7468 18.5334 22.8138 18.7367 22.8969 18.9296C22.8969 18.9296 20.6173 19.2016 20.4101 19.447C20.2033 19.6928 20.0399 20.0315 20.5013 20.4263C20.5013 20.4263 20.1026 21.1187 20.5142 21.5229C20.5142 21.5229 20.1366 22.256 20.6233 22.6231C20.6233 22.6231 17.1138 22.8068 17.227 23.3846C17.3648 24.0882 21.1011 23.9592 21.1474 23.9561C22.1694 24.1895 24.7249 24.145 25.276 23.9084L25.6498 24.3599L26.6742 25.5975L27.2194 26.2556C27.2194 26.2556 31.7606 31.8073 31.9444 31.6544C32.1281 31.5016 37.0196 21.5902 37.0196 21.5902L29.8643 21.1162H29.8639Z" stroke="black" stroke-width="0.280477" stroke-linecap="round" stroke-linejoin="round"/>
<path d="M14.3022 23.6826C13.9947 23.7924 13.7205 23.9943 13.5249 24.2555" stroke="black" stroke-width="0.280477" stroke-linecap="round" stroke-linejoin="round"/>
<path d="M14.5967 24.9766C14.1995 25.0632 13.8451 25.3303 13.6526 25.6886" stroke="black" stroke-width="0.280477" stroke-linecap="round" stroke-linejoin="round"/>
<path d="M15.1039 26.2705C14.7081 26.4114 14.402 26.7789 14.3347 27.1936" stroke="black" stroke-width="0.280477" stroke-linecap="round" stroke-linejoin="round"/>
<path d="M15.8998 27.2402C15.5801 27.4453 15.3512 27.7861 15.2817 28.1595" stroke="black" stroke-width="0.280477" stroke-linecap="round" stroke-linejoin="round"/>
<path d="M16.8569 27.9609C16.7685 28.3746 16.6798 28.7936 16.6939 29.2164" stroke="black" stroke-width="0.280477" stroke-linecap="round" stroke-linejoin="round"/>
<path d="M18.0774 28.0322C18.185 28.3713 18.2204 28.7327 18.1808 29.0861" stroke="black" stroke-width="0.280477" stroke-linecap="round" stroke-linejoin="round"/>
<path d="M19.0032 27.4736C19.2139 27.5385 19.3962 27.6805 19.5294 27.8565C19.6623 28.0325 19.7482 28.2407 19.8004 28.4546" stroke="black" stroke-width="0.280477" stroke-linecap="round" stroke-linejoin="round"/>
<path d="M19.7959 26.5588C20.0957 26.5521 20.3593 26.7432 20.5963 26.9265C20.7313 27.0307 20.8733 27.1467 20.9199 27.3108" stroke="black" stroke-width="0.280477" stroke-linecap="round" stroke-linejoin="round"/>
<path d="M20.5615 25.4475C20.9272 25.3725 21.3213 25.4471 21.634 25.6508C21.6715 25.6754 21.7111 25.7059 21.7195 25.75" stroke="black" stroke-width="0.280477" stroke-linecap="round" stroke-linejoin="round"/>
<path d="M20.9648 24.3603C21.3498 24.2842 21.7502 24.2863 22.1344 24.3662C22.1989 24.3795 22.2719 24.4023 22.2978 24.463" stroke="black" stroke-width="0.280477" stroke-linecap="round" stroke-linejoin="round"/>
</g>
<defs>
<clipPath id="clip0_1290_26035">
<rect width="35" height="35" rx="17.5" fill="white"/>
</clipPath>
</defs>
</svg>
