<svg width="35" height="35" viewBox="0 0 35 35" fill="none" xmlns="http://www.w3.org/2000/svg">
<g clip-path="url(#clip0_1548_4746)">
<rect width="35" height="35" rx="17.5" fill="#EAECF0"/>
<path d="M22.7491 12.4987C22.238 13.1027 21.3576 13.6612 20.8026 13.9792C20.8026 13.9792 20.8051 14.0199 20.8093 14.0956C20.837 14.5623 20.9474 16.3605 21.1125 18.1632C21.189 19.0001 21.2773 19.8377 21.3744 20.5434C21.386 20.6272 21.3976 20.7093 21.4095 20.7892C21.4428 21.0139 21.4768 21.2218 21.5119 21.4084C21.5515 21.6208 21.5925 21.8059 21.6342 21.956C21.6917 22.1614 21.7219 22.4167 21.7271 22.7084C21.0382 23.8429 19.5506 25.545 17.8026 25.5184C16.9485 25.5058 16.2295 25.1355 15.6499 24.6433C15.1019 24.1784 14.6784 23.6045 14.3825 23.1207V19.7679C13.9075 19.9124 13.4191 19.9898 12.9402 19.9576C12.6183 19.9359 12.3003 19.8647 11.9939 19.7318C9.65578 18.7165 11.2875 12.2424 11.7261 10.8344H11.7264C11.7366 10.8319 12.1625 10.7296 12.8374 10.5907C14.4831 10.2524 17.6097 9.69741 19.7922 9.84746C20.1316 9.8706 20.4482 9.91092 20.7329 9.97192H20.7332C20.939 9.88918 21.142 9.85307 21.3176 9.90391C21.508 9.95895 21.7664 10.1139 22.0216 10.3292C22.0413 10.3457 22.0613 10.3628 22.0809 10.38C22.7151 10.9378 23.2985 11.8494 22.7491 12.4987Z" fill="#CC927A" stroke="black" stroke-width="0.280477" stroke-linecap="round" stroke-linejoin="round"/>
<mask id="mask0_1548_4746" style="mask-type:luminance" maskUnits="userSpaceOnUse" x="1" y="22" width="34" height="16">
<path d="M34.6938 28.5932C34.6938 28.5932 28.0893 38.6665 18.0019 37.918C7.9146 37.1694 1.03101 28.5932 1.03101 28.5932C1.03101 28.5932 3.35581 26.6912 4.45457 25.8883C5.07372 25.436 6.68436 25.1044 8.06816 24.8004C9.14169 24.5648 10.0781 24.346 10.3088 24.1003C10.8372 23.5386 12.0937 22.6846 12.0937 22.6846C12.5796 23.1971 13.2307 25.8221 15.4142 27.04C16.0765 27.4099 16.88 27.6497 17.8624 27.662C19.0972 27.6466 20.0491 27.2714 20.7937 26.7315C22.5944 25.4259 23.183 23.1572 23.6311 22.6846C23.6311 22.6846 24.8876 23.5386 25.416 24.1003C25.6467 24.346 26.5831 24.5648 27.6566 24.8004C29.0404 25.1044 30.6511 25.436 31.2702 25.8883C32.369 26.6912 34.6938 28.5932 34.6938 28.5932Z" fill="white"/>
</mask>
<g mask="url(#mask0_1548_4746)">
<path d="M34.6938 28.5932C34.6938 28.5932 28.0893 38.6665 18.0019 37.918C7.9146 37.1694 1.03101 28.5932 1.03101 28.5932C1.03101 28.5932 3.35581 26.6912 4.45457 25.8883C5.07372 25.436 6.68436 25.1044 8.06816 24.8004C9.14169 24.5648 10.0781 24.346 10.3088 24.1003C10.8372 23.5386 12.0937 22.6846 12.0937 22.6846C12.5796 23.1971 13.2307 25.8221 15.4142 27.04C16.0765 27.4099 16.88 27.6497 17.8624 27.662C19.0972 27.6466 20.0491 27.2714 20.7937 26.7315C22.5944 25.4259 23.183 23.1572 23.6311 22.6846C23.6311 22.6846 24.8876 23.5386 25.416 24.1003C25.6467 24.346 26.5831 24.5648 27.6566 24.8004C29.0404 25.1044 30.6511 25.436 31.2702 25.8883C32.369 26.6912 34.6938 28.5932 34.6938 28.5932Z" fill="#BF9EF9" stroke="black" stroke-width="0.280477" stroke-linecap="round" stroke-linejoin="round"/>
<path d="M23.9908 27.8753L22.3679 30.6348L26.1747 31.3381L27.5206 27.6944C27.5206 27.6944 25.7704 26.4151 25.6891 26.4368C25.6078 26.4585 23.9908 27.8749 23.9908 27.8749V27.8753Z" fill="#F5D256" stroke="black" stroke-width="0.280477" stroke-linecap="round" stroke-linejoin="round"/>
<path d="M10.6641 29.5251L13.7163 32.1623L15.686 28.5234L10.6641 29.5251Z" fill="#E938B5" stroke="black" stroke-width="0.280477" stroke-linecap="round" stroke-linejoin="round"/>
<path d="M29.4355 33.4664L33.4369 32.9527L32.0408 29.0576L29.4355 33.4664Z" fill="#4C70F5" stroke="black" stroke-width="0.280477" stroke-linecap="round" stroke-linejoin="round"/>
<path d="M17.0396 29.5982L21.0409 29.0846L19.6448 25.1895L17.0396 29.5982Z" fill="#4C70F5" stroke="black" stroke-width="0.280477" stroke-linecap="round" stroke-linejoin="round"/>
<path d="M2.86523 25.2396L7.56812 27.3933L8.69003 22.208L2.86523 25.2396Z" fill="#4C70F5" stroke="black" stroke-width="0.280477" stroke-linecap="round" stroke-linejoin="round"/>
<path d="M16.5215 33.4201L17.8257 36.8609C17.8257 36.8609 21.3439 34.7002 21.4396 34.6202C21.5354 34.5403 19.5436 31.8379 19.5436 31.8379L16.5218 33.4198L16.5215 33.4201Z" fill="#49A2A6" stroke="black" stroke-width="0.280477" stroke-linecap="round" stroke-linejoin="round"/>
<path d="M4.42749 30.1047L5.73171 33.5454C5.73171 33.5454 9.24993 31.3847 9.34565 31.3048C9.44136 31.2249 7.44962 28.5225 7.44962 28.5225L4.42784 30.1043L4.42749 30.1047Z" fill="#49A2A6" stroke="black" stroke-width="0.280477" stroke-linecap="round" stroke-linejoin="round"/>
<path d="M30.3623 25.001C30.2613 25.1107 29.1499 27.872 29.1499 27.872C29.1499 27.872 35.0767 27.1873 35.1272 27.2097C35.1777 27.2322 30.3623 25.001 30.3623 25.001Z" fill="#49A2A6" stroke="black" stroke-width="0.280477" stroke-linecap="round" stroke-linejoin="round"/>
<path d="M21.3484 37.958L23.6311 33.4658C23.6311 33.4658 27.0365 33.9707 27.0873 33.9633C27.1381 33.956 28.1373 36.1994 28.1373 36.1994L22.2901 39.1132L21.3484 37.958Z" fill="#E938B5" stroke="black" stroke-width="0.280477" stroke-linecap="round" stroke-linejoin="round"/>
<path d="M10.2212 26.9508L11.8024 23.8389C11.8024 23.8389 14.1612 24.1888 14.1966 24.1835C14.232 24.1782 14.9241 25.7324 14.9241 25.7324L10.8736 27.7508L10.2212 26.9504V26.9508Z" fill="#F5D256" stroke="black" stroke-width="0.280477" stroke-linecap="round" stroke-linejoin="round"/>
<path d="M7.75513 37.6631L10.0379 33.1709C10.0379 33.1709 13.4432 33.6758 13.494 33.6684C13.5449 33.661 14.5441 35.9045 14.5441 35.9045L8.69683 38.8183L7.75513 37.6631Z" fill="#4C70F5" stroke="black" stroke-width="0.280477" stroke-linecap="round" stroke-linejoin="round"/>
<path opacity="0.7" d="M2.60296 28.2167C2.86064 28.297 3.14498 28.2086 3.36971 28.0589C3.59444 27.9092 3.7743 27.7034 3.96853 27.5162C4.63711 26.8718 5.50519 26.4378 6.42199 26.2888C6.99732 26.1951 7.6291 26.1962 8.08838 25.8372C8.3976 25.5956 8.58342 25.1977 8.55081 24.8064C8.51785 24.4155 8.25876 24.047 7.89415 23.9015C7.49482 23.7424 7.0436 23.8514 6.63305 23.979C5.5136 24.3268 4.43482 24.8026 3.42195 25.3923C2.77545 25.7688 2.16296 26.091 2.07075 26.8956C2.01641 27.3724 2.04866 28.0438 2.60331 28.2167H2.60296Z" fill="#E7DCFF"/>
<path opacity="0.7" d="M29.8735 24.1974C29.4913 24.1596 29.099 24.1224 28.7284 24.223C28.3578 24.3233 28.0072 24.5925 27.9245 24.9677C27.8362 25.3688 28.0721 25.7783 28.3824 26.0475C29.2918 26.836 30.7047 26.7123 31.7099 27.3749C32.0556 27.6028 32.3886 27.9337 32.802 27.9102C33.2294 27.886 33.5495 27.4534 33.5705 27.0257C33.5915 26.598 33.3808 26.1916 33.1217 25.8508C32.2477 24.7016 30.7275 24.081 29.2992 24.2903" fill="#E7DCFF"/>
<path opacity="0.7" d="M9.84912 23.9407C10.3308 23.5964 10.9942 23.5242 11.5383 23.7573C12.1431 24.0161 12.5459 24.5882 12.9018 25.1415C13.2576 25.6947 13.624 26.2809 14.1993 26.6C14.4566 26.7427 14.816 26.8082 15.0176 26.594C15.1515 26.452 15.1656 26.235 15.1428 26.0411C15.0898 25.5899 14.8823 25.173 14.667 24.773C14.3473 24.1791 13.9893 23.5827 13.4511 23.176C12.9792 22.8195 12.3832 22.6309 11.7921 22.6509C11.201 22.6708 10.619 22.9001 10.1727 23.2879" fill="#835ED3"/>
<path opacity="0.7" d="M20.6307 26.3622C20.4838 26.521 20.4469 26.7717 20.5413 26.9662C20.6356 27.1608 20.8561 27.2863 21.0714 27.2692C21.2779 27.2527 21.4546 27.1215 21.619 26.9957C22.4744 26.3397 23.3299 25.6841 24.1857 25.0281C24.4991 24.7876 24.8157 24.5443 25.0653 24.2379C25.2305 24.0349 25.3644 23.8063 25.5425 23.6145C25.6301 23.5202 25.7339 23.4238 25.7479 23.2959C25.7714 23.0823 25.5404 22.9347 25.3364 22.8678C24.2979 22.527 23.123 22.8509 22.2466 23.5045C21.3704 24.1576 20.7544 25.1021 20.2671 26.0806" fill="#835ED3"/>
</g>
<path d="M34.6938 28.5932C34.6938 28.5932 28.0893 38.6665 18.0019 37.918C7.9146 37.1694 1.03101 28.5932 1.03101 28.5932C1.03101 28.5932 3.35581 26.6912 4.45457 25.8883C5.07372 25.436 6.68436 25.1044 8.06816 24.8004C9.14169 24.5648 10.0781 24.346 10.3088 24.1003C10.8372 23.5386 12.0937 22.6846 12.0937 22.6846C12.5796 23.1971 13.2307 25.8221 15.4142 27.04C16.0765 27.4099 16.88 27.6497 17.8624 27.662C19.0972 27.6466 20.0491 27.2714 20.7937 26.7315C22.5944 25.4259 23.183 23.1572 23.6311 22.6846C23.6311 22.6846 24.8876 23.5386 25.416 24.1003C25.6467 24.346 26.5831 24.5648 27.6566 24.8004C29.0404 25.1044 30.6511 25.436 31.2702 25.8883C32.369 26.6912 34.6938 28.5932 34.6938 28.5932Z" stroke="black" stroke-width="0.280477" stroke-linecap="round" stroke-linejoin="round"/>
<path d="M14.3823 19.7684V19.7676" stroke="black" stroke-width="0.280477" stroke-linecap="round" stroke-linejoin="round"/>
<path d="M21.5123 21.4082H21.5115" stroke="black" stroke-width="0.280477" stroke-linecap="round" stroke-linejoin="round"/>
<path d="M12.0938 22.6845C12.0938 22.6845 10.8372 23.5386 10.3089 24.1002C10.0782 24.346 9.14174 24.5648 8.06822 24.8004C8.03036 22.742 9.81699 21.7113 10.1378 21.543C10.129 21.5479 10.1206 21.5524 10.1122 21.5573C10.0992 21.5647 10.0866 21.5721 10.0747 21.5794C10.0677 21.5833 10.061 21.5875 10.0543 21.5917C10.0379 21.6022 10.0224 21.6124 10.0074 21.6226C9.98037 21.6415 9.95548 21.6604 9.93339 21.6797C9.92883 21.6836 9.92462 21.6874 9.92042 21.6913C9.88466 21.7235 9.85696 21.7565 9.83733 21.7894C9.83592 21.7919 9.83452 21.794 9.83347 21.7965C9.82926 21.8038 9.82541 21.8115 9.82225 21.8189C9.8205 21.8227 9.81909 21.8266 9.81769 21.8305C9.81348 21.8413 9.81033 21.8525 9.80823 21.8638C9.80753 21.8666 9.80717 21.869 9.80682 21.8718C9.80402 21.8904 9.80402 21.9093 9.80717 21.9283C9.93023 22.6845 11.4606 22.0163 12.0938 22.6845Z" fill="#835ED3" stroke="black" stroke-width="0.280477" stroke-linecap="round" stroke-linejoin="round"/>
<path d="M14.3824 21.8568V23.1211C14.0851 22.6348 13.9165 22.2393 13.88 22.1356C13.7685 21.8193 14.3824 21.8568 14.3824 21.8568Z" fill="black" stroke="black" stroke-width="0.280477" stroke-linecap="round" stroke-linejoin="round"/>
<path d="M21.727 22.7081C21.7217 22.4164 21.6916 22.1611 21.6341 21.9557C21.5924 21.8056 21.5513 21.6205 21.5117 21.4081C21.5296 21.407 22.0429 21.3793 22.134 21.753C22.1614 21.8645 22.0127 22.2376 21.727 22.7081Z" fill="black" stroke="black" stroke-width="0.280477" stroke-linecap="round" stroke-linejoin="round"/>
<path d="M25.9177 21.9285C25.8914 22.0887 25.8023 22.1851 25.6719 22.2433C25.6719 22.2433 25.6719 22.2437 25.6716 22.2433C25.186 22.4617 24.13 22.1581 23.6311 22.6847C23.183 23.1573 22.5944 25.426 20.7937 26.7316C20.049 27.2716 19.0972 27.6467 17.8624 27.6621C16.88 27.6498 16.0765 27.41 15.4142 27.0402C13.2307 25.8222 12.5796 23.1973 12.0937 22.6847C11.6172 22.182 10.6335 22.4358 10.1226 22.27C9.95435 22.216 9.8376 22.116 9.8071 21.9285C9.80394 21.9095 9.80394 21.8906 9.80675 21.872C9.8071 21.8692 9.80745 21.8668 9.80815 21.864C9.81026 21.8527 9.81341 21.8415 9.81762 21.8307C9.81902 21.8268 9.82042 21.8229 9.82218 21.8191C9.82533 21.8117 9.82919 21.804 9.83339 21.7966C9.83445 21.7942 9.83585 21.7921 9.83725 21.7896C9.85688 21.7567 9.88458 21.7237 9.92034 21.6915C9.92455 21.6876 9.92876 21.6838 9.93331 21.6799C9.9554 21.6606 9.98029 21.6417 10.0073 21.6228C10.0224 21.6126 10.0378 21.6024 10.0543 21.5919C10.0609 21.5877 10.0676 21.5835 10.0746 21.5796C10.0865 21.5723 10.0991 21.5649 10.1121 21.5575C10.1205 21.5526 10.1289 21.5481 10.1377 21.5432C10.1423 21.5411 10.1468 21.5383 10.1517 21.5358C10.1591 21.5323 10.1661 21.5284 10.1735 21.5246C10.1756 21.5235 10.1777 21.5225 10.1798 21.5214C10.1812 21.5207 10.1822 21.52 10.1833 21.5197C10.1857 21.5186 10.1868 21.5179 10.1868 21.5179C11.1366 21.0331 13.5746 20.6558 14.2222 20.5618C14.3245 20.5468 14.3824 20.5391 14.3824 20.5391V21.8566C14.3824 21.8566 13.7685 21.8191 13.88 22.1353C13.9164 22.2391 14.0851 22.6346 14.3824 23.1208C14.9914 24.1169 16.141 25.4937 17.8024 25.5186C19.5505 25.5452 21.0381 23.8431 21.727 22.7085C22.0127 22.238 22.1614 21.865 22.134 21.7535C22.0429 21.3798 21.5296 21.4075 21.5117 21.4085C21.4644 21.1554 21.4185 20.863 21.3743 20.5436C21.4784 20.558 21.8297 20.6078 22.2939 20.6863C23.298 20.8553 24.8305 21.1568 25.538 21.5179C25.538 21.5179 25.539 21.5186 25.5415 21.5197C25.5422 21.52 25.5432 21.5204 25.5439 21.5211C25.5443 21.5211 25.5446 21.5211 25.545 21.5214C25.5471 21.5225 25.5492 21.5235 25.5513 21.5246C25.5587 21.5284 25.5657 21.5323 25.573 21.5358C25.5779 21.5383 25.5825 21.5411 25.5871 21.5432C25.8121 21.6662 25.9394 21.7956 25.9177 21.9285Z" fill="#BF9EF9" stroke="black" stroke-width="0.280477" stroke-linecap="round" stroke-linejoin="round"/>
<path d="M27.6566 24.8004C26.5831 24.5648 25.6467 24.346 25.416 24.1002C24.8876 23.5386 23.6311 22.6845 23.6311 22.6845C24.2643 22.0163 25.7946 22.6845 25.9177 21.9283C25.9394 21.7954 25.8122 21.666 25.5871 21.543C25.9079 21.7113 27.6945 22.742 27.6566 24.8004Z" fill="#835ED3" stroke="black" stroke-width="0.280477" stroke-linecap="round" stroke-linejoin="round"/>
<path d="M14.2222 20.5625L14.0605 20.7431C13.366 21.06 12.6711 21.3769 11.9762 21.6939C11.3851 21.9635 10.7611 22.2387 10.1226 22.2706C9.95435 22.2166 9.8376 22.1167 9.8071 21.9291C9.80394 21.9102 9.80394 21.8913 9.80675 21.8727C9.8071 21.8699 9.80745 21.8674 9.80815 21.8646C9.81026 21.8534 9.81341 21.8422 9.81762 21.8313C9.81902 21.8274 9.82042 21.8236 9.82218 21.8197C9.82533 21.8124 9.82919 21.8047 9.83339 21.7973C9.83445 21.7948 9.83585 21.7927 9.83725 21.7903C9.85688 21.7573 9.88458 21.7244 9.92034 21.6921C9.92455 21.6883 9.92876 21.6844 9.93331 21.6806C9.9554 21.6613 9.98029 21.6423 10.0073 21.6234C10.0224 21.6132 10.0378 21.6031 10.0543 21.5926C10.0609 21.5883 10.0676 21.5841 10.0746 21.5803C10.0865 21.5729 10.0991 21.5656 10.1121 21.5582C10.1205 21.5533 10.1289 21.5487 10.1377 21.5438C10.1423 21.5417 10.1468 21.5389 10.1517 21.5365C10.1591 21.533 10.1661 21.5291 10.1735 21.5252C10.1756 21.5242 10.1777 21.5231 10.1798 21.5221C10.1812 21.5214 10.1822 21.5207 10.1833 21.5203C10.1857 21.5193 10.1868 21.5186 10.1868 21.5186C11.1366 21.0337 13.5746 20.6565 14.2222 20.5625Z" fill="#E7DCFF"/>
<path d="M25.9177 21.9287C25.8914 22.0889 25.8024 22.1853 25.6719 22.2435C25.6719 22.2435 25.6719 22.2439 25.6716 22.2435C25.6243 22.2341 25.578 22.2193 25.5338 22.2007C25.3732 22.1327 25.2368 22.0191 25.097 21.9154C24.5052 21.4761 23.8054 21.1837 23.0772 21.0715C22.8037 21.0294 22.4051 20.9649 22.2939 20.6865C23.2981 20.8555 24.8305 21.157 25.538 21.5181C25.538 21.5181 25.5391 21.5188 25.5415 21.5199C25.5422 21.5202 25.5433 21.5206 25.544 21.5213C25.5443 21.5213 25.5447 21.5213 25.545 21.5216C25.5471 21.5227 25.5492 21.5237 25.5513 21.5248C25.5587 21.5287 25.5657 21.5325 25.5731 21.536C25.578 21.5385 25.5825 21.5413 25.5871 21.5434C25.8122 21.6664 25.9394 21.7958 25.9177 21.9287Z" fill="#E7DCFF"/>
<path d="M25.9177 21.9285C25.7946 22.6847 24.2643 22.0165 23.6311 22.6847C23.183 23.1573 22.5944 25.426 20.7937 26.7316C20.049 27.2716 19.0972 27.6467 17.8624 27.6621C16.88 27.6498 16.0765 27.41 15.4142 27.0402C13.2307 25.8222 12.5796 23.1973 12.0937 22.6847C11.4605 22.0165 9.93016 22.6847 9.8071 21.9285C9.80394 21.9095 9.80394 21.8906 9.80675 21.872C9.8071 21.8692 9.80745 21.8668 9.80815 21.864C9.81026 21.8527 9.81341 21.8415 9.81762 21.8307C9.81902 21.8268 9.82042 21.8229 9.82218 21.8191C9.82533 21.8117 9.82919 21.804 9.83339 21.7966C9.83445 21.7942 9.83585 21.7921 9.83725 21.7896C9.85688 21.7567 9.88458 21.7237 9.92034 21.6915C9.92455 21.6876 9.92876 21.6838 9.93331 21.6799C9.9554 21.6606 9.98029 21.6417 10.0073 21.6228C10.0224 21.6126 10.0378 21.6024 10.0543 21.5919C10.0609 21.5877 10.0676 21.5835 10.0746 21.5796C10.0865 21.5723 10.0991 21.5649 10.1121 21.5575C10.1205 21.5526 10.1289 21.5481 10.1377 21.5432C10.1423 21.5411 10.1468 21.5383 10.1517 21.5358C10.1591 21.5323 10.1661 21.5284 10.1735 21.5246C10.1756 21.5235 10.1777 21.5225 10.1798 21.5214C10.1812 21.5207 10.1822 21.52 10.1833 21.5197C10.1857 21.5186 10.1868 21.5179 10.1868 21.5179C11.2866 20.9563 14.3824 20.5391 14.3824 20.5391V21.8566C14.3824 21.8566 13.7685 21.8191 13.88 22.1353C13.9164 22.2391 14.0851 22.6346 14.3824 23.1208C14.9914 24.1169 16.141 25.4937 17.8024 25.5186C19.5505 25.5452 21.0381 23.8431 21.727 22.7085C22.0127 22.238 22.1614 21.865 22.134 21.7535C22.0429 21.3798 21.5296 21.4075 21.5117 21.4085C21.4644 21.1554 21.4185 20.863 21.3743 20.5436C21.7035 20.5892 24.5034 20.9896 25.538 21.5179C25.538 21.5179 25.539 21.5186 25.5415 21.5197C25.5422 21.52 25.5432 21.5204 25.5439 21.5211C25.5443 21.5211 25.5446 21.5211 25.545 21.5214C25.5471 21.5225 25.5492 21.5235 25.5513 21.5246C25.5587 21.5284 25.5657 21.5323 25.573 21.5358C25.5779 21.5383 25.5825 21.5411 25.5871 21.5432C25.8121 21.6662 25.9394 21.7956 25.9177 21.9285Z" stroke="black" stroke-width="0.280477" stroke-linecap="round" stroke-linejoin="round"/>
<path d="M18.0906 17.5C18.0906 17.5 17.6695 20.6806 14.5348 21.4077L14.3823 21.4084C14.3823 21.4084 14.3823 20.0176 14.3823 19.9826C14.3823 19.9475 17.8564 18.129 18.0906 17.5Z" fill="#B27059"/>
<path d="M21.727 22.7082C21.038 23.8428 19.5505 25.5449 17.8024 25.5182C16.9483 25.5056 16.2293 25.1354 15.6497 24.6432C15.6417 24.6253 15.6343 24.6078 15.6266 24.5899L15.5474 24.4261C16.5683 24.5706 17.6341 24.3778 18.5397 23.8845C19.4453 23.3912 20.1854 22.6002 20.618 21.6642C20.7046 21.4762 20.7807 21.2806 20.9027 21.1134C21.0247 20.9465 21.2035 20.8076 21.4093 20.7891C21.4426 21.0138 21.4766 21.2217 21.5117 21.4082C21.5513 21.6207 21.5923 21.8058 21.6341 21.9558C21.6916 22.1613 21.7217 22.4165 21.727 22.7082Z" fill="#B27059"/>
<path d="M16.2162 26.7331C16.4752 26.7331 16.6853 26.5231 16.6853 26.264C16.6853 26.0049 16.4752 25.7949 16.2162 25.7949C15.9571 25.7949 15.7471 26.0049 15.7471 26.264C15.7471 26.5231 15.9571 26.7331 16.2162 26.7331Z" fill="black" stroke="black" stroke-width="0.280477" stroke-linecap="round" stroke-linejoin="round"/>
<path d="M16.3044 26.2754C16.0337 26.4826 15.8942 26.829 15.8784 27.1694C15.8626 27.5098 15.958 27.8464 16.0856 28.1626C16.2132 28.4789 16.3731 28.7811 16.4962 29.0991C16.954 30.2813 16.8604 31.6647 16.2469 32.7744" stroke="black" stroke-width="0.280477" stroke-linecap="round" stroke-linejoin="round"/>
<path d="M15.6938 33.1793C15.6774 33.2992 15.6837 33.4254 15.7363 33.5344C15.7889 33.6434 15.894 33.7314 16.0146 33.7413C16.1125 33.7493 16.2092 33.7062 16.2839 33.6427C16.3586 33.5793 16.415 33.4969 16.4676 33.4142C16.6036 33.1999 16.9967 32.4234 16.496 32.3771C16.0848 32.3392 15.7433 32.8238 15.6938 33.1796V33.1793Z" fill="#F5D256" stroke="black" stroke-width="0.280477" stroke-linecap="round" stroke-linejoin="round"/>
<path d="M19.5091 26.7331C19.7682 26.7331 19.9782 26.5231 19.9782 26.264C19.9782 26.0049 19.7682 25.7949 19.5091 25.7949C19.2501 25.7949 19.04 26.0049 19.04 26.264C19.04 26.5231 19.2501 26.7331 19.5091 26.7331Z" fill="black" stroke="black" stroke-width="0.280477" stroke-linecap="round" stroke-linejoin="round"/>
<path d="M19.4206 26.2754C19.6913 26.4826 19.8308 26.829 19.8466 27.1694C19.8623 27.5098 19.767 27.8464 19.6394 28.1626C19.5118 28.4789 19.3519 28.7811 19.2288 29.0991C18.7709 30.2813 18.8646 31.6647 19.4781 32.7744" stroke="black" stroke-width="0.280477" stroke-linecap="round" stroke-linejoin="round"/>
<path d="M20.0308 33.1793C20.0473 33.2992 20.041 33.4254 19.9884 33.5344C19.9358 33.6434 19.8307 33.7314 19.71 33.7413C19.6122 33.7493 19.5155 33.7062 19.4408 33.6427C19.3661 33.5793 19.3097 33.4969 19.2571 33.4142C19.121 33.1999 18.728 32.4234 19.2287 32.3771C19.6399 32.3392 19.9814 32.8238 20.0308 33.1796V33.1793Z" fill="#F5D256" stroke="black" stroke-width="0.280477" stroke-linecap="round" stroke-linejoin="round"/>
<path d="M20.4466 12.1796C20.4382 11.9304 20.523 11.679 20.6808 11.4862C20.8389 11.2933 21.0686 11.1605 21.3143 11.1198C21.4241 11.1016 21.5401 11.1019 21.6425 11.1454C21.7449 11.1889 21.8308 11.2814 21.8441 11.3919" stroke="black" stroke-width="0.280477" stroke-linecap="round" stroke-linejoin="round"/>
<path d="M20.8689 11.4189C21.0438 11.4996 21.2233 11.583 21.3566 11.7222C21.4898 11.8614 21.568 12.0711 21.4993 12.2509" stroke="black" stroke-width="0.280477" stroke-linecap="round" stroke-linejoin="round"/>
<path d="M13.6668 11.835C13.6541 11.965 13.0529 14.3175 13.3214 14.4455C13.59 14.5735 14.1141 13.7552 14.1141 13.7552" stroke="black" stroke-width="0.280477" stroke-linecap="round" stroke-linejoin="round"/>
<path d="M14.6296 15.2041C14.604 15.2423 13.6833 16.4571 13.6833 16.4571" stroke="black" stroke-width="0.280477" stroke-linecap="round" stroke-linejoin="round"/>
<path d="M15.6396 14.3555L17.123 13.6035" stroke="black" stroke-width="0.280477" stroke-linecap="round" stroke-linejoin="round"/>
<path d="M15.1667 16.4576C15.1667 16.4576 16.6883 16.4703 16.6242 14.7061" stroke="black" stroke-width="0.280477" stroke-linecap="round" stroke-linejoin="round"/>
<path d="M12.9402 19.9577C12.6183 19.936 12.3003 19.8648 11.9939 19.7319C9.65578 18.7166 11.2875 12.2425 11.7261 10.8345H11.7264C11.7366 10.832 12.1625 10.7297 12.8374 10.5908C12.3413 13.56 12.3575 16.6141 12.8848 19.578C12.9069 19.7011 12.9282 19.8297 12.9402 19.9577Z" fill="#FFC7B3"/>
<path d="M22.0808 10.3804C21.6906 10.3899 21.3032 10.5091 20.9772 10.7233C20.7549 10.8695 20.5494 11.0626 20.2886 11.1135C20.0526 11.1594 19.7953 11.0711 19.6372 10.8898C19.6084 10.8568 19.5835 10.8235 19.5625 10.7902C19.762 10.6069 20.2549 10.1644 20.7328 9.97229H20.7331C20.9389 9.88955 21.1419 9.85344 21.3176 9.90428C21.508 9.95932 21.7663 10.1143 22.0216 10.3296C22.0412 10.346 22.0612 10.3632 22.0808 10.3804Z" fill="#FFC7B3"/>
<path d="M21.2702 9.89246C21.1058 9.85986 20.9207 9.89667 20.7331 9.97205H20.7327C20.5389 10.0499 20.3422 10.1691 20.1637 10.2956C18.1997 10.2343 13.4302 10.6045 13.4302 10.6045L13.5872 10.4429L14.4497 9.55624C14.4497 9.55624 20.5122 8.82209 20.6097 8.80772C20.6714 8.79825 21.2888 9.4451 21.2702 9.89246Z" fill="#B27059"/>
<path d="M21.1124 18.1633C20.7289 17.0979 20.4155 16.0072 20.1749 14.9007C20.1266 14.6787 20.0526 14.4049 20.2903 14.2829C20.4414 14.2058 20.6269 14.123 20.8092 14.0957C20.8369 14.5623 20.9473 16.3606 21.1124 18.1633Z" fill="#B27059"/>
<path d="M20.7328 9.97266C20.5389 10.0505 20.3422 10.1697 20.1637 10.2963C19.9029 10.4814 19.681 10.6816 19.5625 10.7906C19.5151 10.8341 19.4843 10.8632 19.4741 10.8709" stroke="black" stroke-width="0.280477" stroke-linecap="round" stroke-linejoin="round"/>
<path d="M22.0215 10.3298C21.7663 10.1145 21.5079 9.95954 21.3175 9.90449C21.3021 9.89994 21.2863 9.89608 21.2702 9.89292C21.1058 9.86032 20.9206 9.89713 20.7331 9.97251H20.7327C20.128 9.84314 19.3794 9.80668 18.5738 9.82912C18.5398 9.83017 18.5054 9.83122 18.471 9.83227C18.1625 9.84279 17.8463 9.86172 17.5272 9.88732C17.4767 9.89117 17.4259 9.89538 17.3751 9.89994C17.3242 9.90414 17.2734 9.9087 17.2226 9.91326C17.1717 9.91817 17.1209 9.92273 17.0701 9.92798C16.9175 9.94271 16.7647 9.95884 16.6118 9.97637C16.561 9.98198 16.5102 9.98794 16.4597 9.9939C16.419 9.9988 16.3783 10.0037 16.338 10.0086C16.1256 10.0346 15.9141 10.0623 15.7059 10.0917C15.6561 10.0984 15.6067 10.1054 15.5576 10.1127C15.5082 10.1198 15.4591 10.1268 15.4103 10.1341C15.3676 10.1404 15.3248 10.1468 15.2824 10.1531C15.0338 10.1909 14.7905 10.2298 14.5559 10.2695C14.51 10.2772 14.4644 10.2849 14.4196 10.293C14.3291 10.3084 14.24 10.3238 14.1524 10.3396C14.111 10.3466 14.0704 10.354 14.0297 10.3613C13.8768 10.389 13.7292 10.4164 13.5872 10.4434C13.5869 10.4434 13.5862 10.4434 13.5858 10.4437C13.5459 10.4511 13.5063 10.4584 13.4673 10.4661C13.3499 10.4886 13.237 10.511 13.129 10.5324C13.0929 10.5398 13.0575 10.5468 13.0224 10.5538C12.9674 10.565 12.9137 10.5759 12.8615 10.5864C12.8142 10.5962 12.7682 10.6057 12.7234 10.6152C12.7206 10.6155 12.7174 10.6162 12.7143 10.6169C12.6985 10.6201 12.6827 10.6236 12.6673 10.6267C12.574 10.6464 12.4864 10.6649 12.405 10.6825C12.3822 10.6874 12.3598 10.6923 12.3377 10.6972C12.3209 10.7007 12.3044 10.7042 12.2879 10.7077C12.2757 10.7105 12.2634 10.7133 12.2511 10.7158C12.2431 10.7175 12.2353 10.7193 12.2276 10.721C12.1926 10.7287 12.1593 10.7361 12.1277 10.7431C12.0958 10.7501 12.0657 10.7568 12.0373 10.7635C12.0236 10.7663 12.0106 10.7694 11.9976 10.7722C11.971 10.7782 11.9458 10.7838 11.9226 10.7894C11.9033 10.7936 11.8854 10.7978 11.869 10.8017C11.8627 10.8031 11.8563 10.8045 11.85 10.8062C11.8378 10.8087 11.8265 10.8115 11.816 10.8139C11.8108 10.8153 11.8059 10.8164 11.801 10.8174C11.7624 10.8262 11.7382 10.8322 11.7298 10.8343C11.7277 10.8346 11.7266 10.835 11.7263 10.835H11.7259C11.7259 10.835 11.246 11.2063 11.0398 10.835C10.8901 10.5654 11.2256 9.31059 11.4206 8.64305C11.4987 8.3759 11.7014 8.16309 11.9647 8.07263C12.0159 8.0551 12.0716 8.03617 12.1309 8.01654C12.1719 8.00286 12.215 7.98884 12.2595 7.97411C12.2827 7.96675 12.3065 7.95904 12.3307 7.95133C12.3998 7.92924 12.4727 7.90645 12.5488 7.88296C12.5568 7.88051 12.5646 7.87805 12.5726 7.8756C12.5993 7.86753 12.6263 7.85912 12.654 7.85106C12.7434 7.82406 12.837 7.79636 12.9341 7.76867C12.952 7.76341 12.9698 7.7585 12.9881 7.75324C13.1606 7.70451 13.3443 7.65507 13.5368 7.60634C13.5557 7.60178 13.5746 7.59687 13.5936 7.59232C13.7454 7.55445 13.9024 7.51729 14.0633 7.48188C14.0833 7.47732 14.1037 7.47311 14.124 7.46856C14.1443 7.464 14.1647 7.45979 14.185 7.45558C14.2194 7.44822 14.2537 7.44086 14.2884 7.43385C14.3256 7.42613 14.3631 7.41842 14.4006 7.41106C14.4497 7.40124 14.4988 7.39178 14.5479 7.38231C14.5934 7.37354 14.639 7.36513 14.685 7.35672C14.6909 7.35566 14.6965 7.35461 14.7025 7.35356C14.7505 7.34515 14.7985 7.33673 14.8469 7.32867C14.8936 7.3206 14.9398 7.31324 14.9865 7.30588C14.9931 7.30448 14.9998 7.30342 15.0061 7.30272C15.105 7.28695 15.2045 7.27222 15.3045 7.2589C15.3556 7.25189 15.4072 7.24523 15.4587 7.23892C15.4605 7.23856 15.4622 7.23856 15.464 7.23821C15.5138 7.23225 15.5635 7.22629 15.6133 7.22103C15.6624 7.21543 15.7111 7.21052 15.7602 7.20561C15.7697 7.20491 15.7788 7.20386 15.7883 7.20315C15.8311 7.19895 15.8738 7.19509 15.9166 7.19194C15.9208 7.19123 15.9247 7.19088 15.9289 7.19088C15.9787 7.18668 16.0284 7.18282 16.0782 7.17966H16.0793C16.1161 7.17686 16.1529 7.17476 16.1897 7.173C16.2104 7.1716 16.2314 7.1702 16.2525 7.1695C16.298 7.16704 16.3436 7.16529 16.3888 7.16354C16.513 7.15898 16.6378 7.15723 16.7622 7.15723C16.8117 7.15723 16.8611 7.15758 16.9102 7.15828C16.9221 7.15828 16.9344 7.15828 16.9459 7.15863C17.0027 7.15968 17.0595 7.16108 17.1163 7.16284C17.1752 7.16459 17.2338 7.16669 17.2927 7.1695C17.3491 7.17195 17.4056 7.17476 17.4617 7.17826C17.4638 7.17826 17.4662 7.17826 17.4683 7.17861C17.5483 7.18317 17.6275 7.18878 17.7067 7.19474C17.7348 7.19684 17.7632 7.1993 17.7912 7.2014C17.8028 7.2021 17.814 7.20315 17.8252 7.20421C17.9038 7.21122 17.982 7.21858 18.0598 7.22629C18.1376 7.23436 18.2151 7.24277 18.2915 7.25189H18.2919C18.3301 7.25645 18.3683 7.261 18.4062 7.26591C18.4381 7.27012 18.47 7.27397 18.5015 7.27818C18.5075 7.27888 18.5138 7.27958 18.5198 7.28064C18.5573 7.28589 18.5948 7.2908 18.632 7.29606C18.6695 7.30097 18.7066 7.30658 18.7434 7.31219C18.7768 7.31745 18.8097 7.32236 18.8427 7.32727C18.8465 7.32762 18.85 7.32832 18.8535 7.32902C18.89 7.33498 18.9265 7.34059 18.9626 7.34655C18.9671 7.3469 18.9717 7.34795 18.9762 7.34865C19.0074 7.35391 19.039 7.35917 19.0699 7.36443C19.141 7.37635 19.2115 7.38897 19.2806 7.40194C19.3167 7.40825 19.3524 7.41491 19.3882 7.42193C19.4204 7.42859 19.4527 7.4349 19.485 7.44121C19.5291 7.44962 19.5726 7.45874 19.6157 7.46785C19.6536 7.47592 19.6911 7.48363 19.7283 7.49169C19.8089 7.50887 19.8874 7.52675 19.9642 7.54499C19.9944 7.552 20.0245 7.55901 20.054 7.56637C20.0585 7.56707 20.0631 7.56848 20.0673 7.56953C20.0925 7.57549 20.1171 7.5818 20.1416 7.58776C20.1704 7.59477 20.1988 7.60213 20.2265 7.60914C20.2436 7.61335 20.2608 7.61791 20.2777 7.62247C20.2945 7.62667 20.3113 7.63123 20.3281 7.63579C20.3495 7.6414 20.3706 7.64701 20.3912 7.65262C20.4179 7.65998 20.4442 7.66699 20.4698 7.67436C20.5052 7.68417 20.5403 7.69434 20.5739 7.70381C20.6016 7.71222 20.6286 7.72028 20.6549 7.728C20.6665 7.7315 20.678 7.73501 20.6896 7.73851C20.7205 7.74798 20.7506 7.75745 20.7801 7.76691C21.1286 7.8784 21.3571 7.97937 21.4174 8.04353C21.6373 8.27738 22.0576 10.2095 22.0215 10.3298Z" fill="#E86F3A" stroke="black" stroke-width="0.280477" stroke-linecap="round" stroke-linejoin="round"/>
<path d="M20.7803 7.76668C20.7508 7.75722 20.7207 7.74775 20.6898 7.73828C19.9508 7.51215 18.7451 7.25306 17.4686 7.17838C17.1113 7.157 16.7488 7.15069 16.3891 7.16331C14.7399 7.22151 13.0079 7.72496 12.1311 8.01631C12.1311 8.01631 12.2545 7.53108 12.6279 6.94559C13.1955 6.05578 14.342 4.93457 16.5132 4.93457C16.7222 4.93457 16.9213 4.94404 17.1106 4.96227C18.9919 5.14037 19.9441 6.14833 20.4003 6.90527C20.6383 7.29969 20.7414 7.62609 20.7708 7.73127C20.7768 7.75231 20.7796 7.76423 20.7803 7.76668Z" fill="#E86F3A" stroke="black" stroke-width="0.280477" stroke-linecap="round" stroke-linejoin="round"/>
<path d="M17.1104 4.96227C17.1048 4.97559 17.0985 4.98891 17.0911 5.00188C17.0003 5.16141 16.8022 5.2175 16.6248 5.26413C15.4328 5.57721 14.2962 6.1003 13.2833 6.80219C13.1091 6.92315 12.899 7.05532 12.6999 6.98275C12.6736 6.97328 12.6494 6.96066 12.6277 6.94559C13.1953 6.05578 14.3417 4.93457 16.513 4.93457C16.7219 4.93457 16.9211 4.94404 17.1104 4.96227Z" fill="#FF8E66"/>
<path d="M20.7708 7.7306C20.7438 7.73376 20.7168 7.73621 20.6898 7.73761C20.2936 7.7611 19.9013 7.63173 19.5163 7.5255C18.8477 7.34144 18.1606 7.22504 17.4685 7.17771C16.9079 7.1388 16.3445 7.14546 15.7849 7.1977C15.7993 7.19033 15.8137 7.18297 15.8281 7.17596L15.1167 7.27377C16.1352 6.9975 17.18 6.8173 18.2321 6.73596C18.9585 6.67987 19.7162 6.67671 20.4002 6.9046C20.6382 7.29902 20.7413 7.62542 20.7708 7.7306Z" fill="#C14216"/>
<path d="M12.5726 7.875C12.208 8.75885 11.9401 9.68267 11.7757 10.6244C11.7634 10.6945 11.7515 10.766 11.7298 10.8337C11.7277 10.834 11.7266 10.8344 11.7263 10.8344H11.7259C11.7259 10.8344 11.246 11.2057 11.0398 10.8344C10.8901 10.5648 11.2256 9.30999 11.4206 8.64245C11.4987 8.3753 11.7014 8.16249 11.9647 8.07204C12.0159 8.05451 12.0716 8.03557 12.1309 8.01594C12.2602 7.97282 12.4085 7.92514 12.5726 7.875Z" fill="#FF8E66"/>
<path d="M22.0215 10.3298C21.7663 10.1145 21.5079 9.95954 21.3175 9.90449C21.3021 9.89994 21.2863 9.89608 21.2702 9.89292C21.1058 9.86032 20.9206 9.89713 20.7331 9.97251H20.7327C20.128 9.84314 19.3794 9.80668 18.5738 9.82912C18.5394 9.83017 18.5054 9.83122 18.471 9.83227C18.1625 9.84279 17.8463 9.86172 17.5272 9.88732C17.4767 9.89117 17.4259 9.89538 17.3751 9.89994C17.3242 9.90414 17.2734 9.9087 17.2226 9.91326C17.1717 9.91782 17.1209 9.92273 17.0701 9.92798C16.9175 9.94271 16.7647 9.95884 16.6118 9.97637C16.561 9.98198 16.5105 9.98759 16.4597 9.9939C16.419 9.99845 16.3783 10.0034 16.338 10.0086C16.1256 10.0346 15.9141 10.0623 15.7059 10.0917C15.6561 10.0984 15.6067 10.1054 15.5576 10.1127C15.5082 10.1198 15.4591 10.1268 15.4103 10.1341C15.3676 10.1404 15.3248 10.1468 15.2824 10.1531C15.0338 10.1909 14.7905 10.2298 14.5559 10.2695C14.51 10.2772 14.4644 10.2849 14.4196 10.293C14.3291 10.3084 14.24 10.3238 14.1524 10.3396C14.111 10.3466 14.0704 10.354 14.0297 10.3613C13.8768 10.389 13.7292 10.4164 13.5872 10.4434C13.5869 10.4434 13.5862 10.4434 13.5858 10.4437C13.5459 10.4511 13.5063 10.4584 13.4673 10.4661C13.3499 10.4886 13.237 10.511 13.129 10.5324C13.0929 10.5394 13.0575 10.5468 13.0224 10.5538C12.9674 10.565 12.9137 10.5759 12.8615 10.5864C12.8142 10.5962 12.7682 10.6057 12.7234 10.6152C12.7206 10.6155 12.7174 10.6162 12.7143 10.6169C12.6985 10.6201 12.6827 10.6236 12.6673 10.6267C12.574 10.6464 12.4864 10.6649 12.405 10.6825C12.3822 10.6874 12.3598 10.6923 12.3377 10.6972C12.3209 10.7007 12.3044 10.7042 12.2879 10.7077C12.2757 10.7105 12.2634 10.7133 12.2511 10.7158C12.2431 10.7175 12.2353 10.7193 12.2276 10.721C12.1926 10.7287 12.1593 10.7361 12.1277 10.7431C12.0958 10.7501 12.0657 10.7568 12.0373 10.7635C12.0236 10.7663 12.0106 10.7694 11.9976 10.7722C11.971 10.7782 11.9458 10.7838 11.9226 10.7894C11.9033 10.7936 11.8854 10.7978 11.869 10.8017C11.8623 10.8031 11.856 10.8045 11.85 10.8062C11.8378 10.8087 11.8265 10.8115 11.816 10.8139C11.8108 10.815 11.8059 10.8164 11.801 10.8174C11.7624 10.8262 11.7382 10.8322 11.7298 10.8343C11.7277 10.8346 11.7266 10.835 11.7263 10.835H11.7259C11.7259 10.835 11.246 11.2063 11.0398 10.835C10.8901 10.5654 11.2256 9.31059 11.4206 8.64305C11.4987 8.3759 11.7014 8.16309 11.9647 8.07263C12.0159 8.0551 12.0716 8.03617 12.1309 8.01654C12.1719 8.00286 12.215 7.98884 12.2595 7.97411C12.2827 7.96675 12.3065 7.95904 12.3307 7.95133C12.3998 7.92924 12.4727 7.90645 12.5488 7.88296C12.5568 7.88051 12.5646 7.87805 12.5726 7.87595C12.5993 7.86753 12.6263 7.85912 12.654 7.85106C12.7434 7.82406 12.837 7.79636 12.9341 7.76867C12.952 7.76341 12.9698 7.7585 12.9881 7.75324C13.1606 7.70451 13.3443 7.65507 13.5368 7.60634C13.5557 7.60178 13.5746 7.59687 13.5936 7.59232C13.7454 7.55445 13.9024 7.51729 14.0633 7.48188C14.0833 7.47732 14.1037 7.47311 14.124 7.46856C14.1443 7.464 14.1647 7.45979 14.185 7.45558C14.2194 7.44822 14.2537 7.44086 14.2884 7.43385C14.3256 7.42613 14.3631 7.41842 14.4006 7.41106C14.4497 7.40124 14.4988 7.39178 14.5479 7.38231C14.5934 7.37354 14.639 7.36513 14.685 7.35672C14.6909 7.35566 14.6965 7.35461 14.7025 7.35356C14.7505 7.34515 14.7985 7.33673 14.8469 7.32867C14.8936 7.3206 14.9398 7.31324 14.9865 7.30588C14.9931 7.30448 14.9998 7.30342 15.0061 7.30272C15.105 7.28695 15.2045 7.27222 15.3045 7.2589C15.3556 7.25189 15.4072 7.24523 15.4587 7.23892C15.4605 7.23856 15.4622 7.23856 15.464 7.23821C15.5138 7.23225 15.5635 7.22629 15.6133 7.22103C15.6624 7.21543 15.7111 7.21052 15.7602 7.20561C15.7697 7.20491 15.7788 7.20386 15.7883 7.20315C15.8311 7.19895 15.8738 7.19509 15.9166 7.19194C15.9208 7.19123 15.9247 7.19088 15.9289 7.19088C15.9787 7.18668 16.0284 7.18282 16.0782 7.17966H16.0793C16.1161 7.17686 16.1529 7.17476 16.1897 7.173C16.2104 7.1716 16.2314 7.1702 16.2525 7.1695C16.298 7.16704 16.3436 7.16529 16.3888 7.16354C16.513 7.15898 16.6378 7.15723 16.7622 7.15723C16.8117 7.15723 16.8611 7.15758 16.9102 7.15828C16.9221 7.15828 16.9344 7.15828 16.9459 7.15863C17.0027 7.15968 17.0595 7.16108 17.1163 7.16284C17.1752 7.16459 17.2338 7.16669 17.2927 7.1695C17.3491 7.17195 17.4056 7.17476 17.4617 7.17826C17.4638 7.17826 17.4662 7.17826 17.4683 7.17861C17.5483 7.18317 17.6275 7.18878 17.7067 7.19474C17.7348 7.19684 17.7632 7.1993 17.7912 7.2014C17.8028 7.2021 17.814 7.20315 17.8252 7.20421C17.9038 7.21122 17.982 7.21858 18.0598 7.22629C18.1376 7.23436 18.2151 7.24277 18.2915 7.25189H18.2919C18.3301 7.25645 18.3683 7.261 18.4062 7.26591C18.4381 7.27012 18.47 7.27397 18.5015 7.27818C18.5075 7.27888 18.5138 7.27958 18.5198 7.28064C18.5573 7.28589 18.5948 7.2908 18.632 7.29606C18.6695 7.30097 18.7066 7.30658 18.7434 7.31219C18.7768 7.31745 18.8097 7.32236 18.8427 7.32727C18.8465 7.32762 18.85 7.32832 18.8535 7.32902C18.89 7.33498 18.9265 7.34059 18.9626 7.34655C18.9671 7.3469 18.9717 7.34795 18.9762 7.34865C19.0074 7.35391 19.039 7.35917 19.0699 7.36443C19.141 7.37635 19.2115 7.38897 19.2806 7.40194C19.3167 7.40825 19.3524 7.41491 19.3882 7.42193C19.4204 7.42859 19.4527 7.4349 19.485 7.44121C19.5291 7.44962 19.5726 7.45874 19.6157 7.46785C19.6536 7.47592 19.6911 7.48363 19.7283 7.49169C19.8089 7.50887 19.8874 7.52675 19.9642 7.54499C19.9944 7.552 20.0245 7.55901 20.054 7.56637C20.0585 7.56707 20.0631 7.56848 20.0673 7.56953C20.0925 7.57549 20.1171 7.5818 20.1416 7.58776C20.1704 7.59477 20.1988 7.60213 20.2265 7.60914C20.2436 7.61335 20.2608 7.61791 20.2777 7.62247C20.2945 7.62667 20.3113 7.63123 20.3281 7.63579C20.3495 7.6414 20.3706 7.64701 20.3912 7.65262C20.4179 7.65998 20.4442 7.66699 20.4698 7.67436C20.5052 7.68417 20.5403 7.69434 20.5739 7.70381C20.6016 7.71222 20.6286 7.72028 20.6549 7.728C20.6665 7.7315 20.678 7.73501 20.6896 7.73851C20.7205 7.74798 20.7506 7.75745 20.7801 7.76691C21.1286 7.8784 21.3571 7.97937 21.4174 8.04353C21.6373 8.27738 22.0576 10.2095 22.0215 10.3298Z" stroke="black" stroke-width="0.280477" stroke-linecap="round" stroke-linejoin="round"/>
<path d="M20.7803 7.76668C19.8558 7.47148 18.0874 7.10336 16.3891 7.16331C14.7399 7.22151 13.0079 7.72496 12.1311 8.01631C12.1311 8.01631 12.9133 4.93457 16.5132 4.93457C20.1131 4.93457 20.7712 7.72847 20.7803 7.76668Z" stroke="black" stroke-width="0.280477" stroke-linecap="round" stroke-linejoin="round"/>
<path d="M20.8026 13.9795C20.5025 14.1513 20.2974 14.2526 20.2974 14.2526" stroke="black" stroke-width="0.280477" stroke-linecap="round" stroke-linejoin="round"/>
<path d="M22.7491 12.4986C22.238 13.1027 21.3576 13.6612 20.8026 13.9792C20.8026 13.9792 21.034 18.0696 21.3744 20.5434C21.4186 20.8628 21.4645 21.1552 21.5119 21.4083C21.5515 21.6208 21.5925 21.8059 21.6342 21.956C21.6917 22.1614 21.7219 22.4166 21.7271 22.7083C21.0382 23.8429 19.5506 25.545 17.8026 25.5184C16.1411 25.4935 14.9915 24.1167 14.3825 23.1206V19.7679C13.5888 20.0094 12.7575 20.0631 11.9939 19.7318C9.65578 18.7164 11.2875 12.2423 11.7261 10.8344H11.7264C11.7618 10.8259 16.715 9.63602 19.7922 9.84743C20.1316 9.87057 20.4482 9.91089 20.7329 9.97189H20.7332C20.939 9.88915 21.142 9.85304 21.3176 9.90387C21.508 9.95892 21.7664 10.1139 22.0216 10.3291C22.0413 10.3456 22.0613 10.3628 22.0809 10.38C22.7151 10.9378 23.2985 11.8493 22.7491 12.4986Z" stroke="black" stroke-width="0.280477" stroke-linecap="round" stroke-linejoin="round"/>
<path d="M14.3823 19.768C16.3011 19.1836 18.0019 17.5 18.0019 17.5" stroke="black" stroke-width="0.280477" stroke-linecap="round" stroke-linejoin="round"/>
<path d="M22.0573 13.5368C22.1106 13.6258 22.1562 13.724 22.1909 13.8299C22.3785 14.3989 22.193 14.9711 21.7765 15.1085C21.36 15.2459 20.8706 14.896 20.683 14.327C20.5427 13.9014 20.6111 13.4733 20.8292 13.2275" stroke="#49A2A6" stroke-width="0.280477" stroke-linecap="round" stroke-linejoin="round"/>
</g>
<defs>
<clipPath id="clip0_1548_4746">
<rect width="35" height="35" rx="17.5" fill="white"/>
</clipPath>
</defs>
</svg>
