<svg width="50" height="55" viewBox="0 0 50 55" fill="none" xmlns="http://www.w3.org/2000/svg">
<path d="M21.7744 10.3447C30.7398 0.965535 42.0858 -2.70948 47.1162 2.13672C52.1465 6.98326 48.9568 18.5162 39.9912 27.8955C38.1815 29.7887 36.2739 31.4483 34.3418 32.8535C40.8274 40.172 42.9547 48.8663 39.0635 52.4736C35.0879 56.1585 26.3382 53.1363 19.5205 45.7236C15.3607 41.2006 12.8804 36.0881 12.4824 31.9521C11.3333 26.2111 14.8118 17.6288 21.7744 10.3447Z" fill="#4D61F4"/>
<path d="M2.34684 6.23584L1.89074 6.55954C1.88924 6.55803 1.88775 6.55652 1.88775 6.55501L0.5 7.53822C18.0188 32.8159 3.05268 51.9084 3.01081 51.9644C3.42653 51.6225 3.84974 51.1929 4.27294 50.6847C9.67589 44.92 15.3884 25.5991 2.34684 6.23584Z" fill="#D9FF78"/>
</svg>
